<svg xmlns="http://www.w3.org/2000/svg" viewBox="0 0 500 500"><g id="freepik--College--inject-2"><g><rect x="181.58" y="88.4" width="132.92" height="129.48" style="fill:#263238;"></rect><rect x="181.58" y="88.4" width="132.92" height="129.48" style="fill:#fff; opacity:.5;"></rect><rect x="189.07" y="169.12" width="119.41" height="46.3" style="fill:#fff; opacity:.3;"></rect><rect x="190.22" y="169.12" width="117.48" height="2.68" style="fill:#fff;"></rect><path d="M194.66,215.35c1.34,0,0-113.52,0-113.52l7.02-5.64h98.1l3.51,3.51v115.65h12.34V86.3H187.36s-1.97,132.47,0,130.5,7.29-1.45,7.29-1.45Z" style="opacity:.1;"></path><g><rect x="39.57" y="103.22" width="135.71" height="128.06" style="fill:#263238;"></rect><rect x="39.57" y="103.22" width="135.71" height="128.06" style="fill:#fff; opacity:.5;"></rect><polygon points="173.31 103.22 36.89 103.22 43.51 91.28 173.31 91.28 173.31 103.22" style="fill:#263238;"></polygon><rect x="39.57" y="181.37" width="133.74" height="1.59" rx=".76" ry=".76" style="fill:#fff;"></rect><rect x="39.72" y="182.17" width="135.71" height="49.11" style="fill:#fff; opacity:.3;"></rect><g><g><rect x="58.49" y="115.08" width="10.66" height="21.5" style="fill:#407BFF;"></rect><path d="M69.15,118.61l-10.66,8.97s0,5.37,0,5.33,10.66-8.39,10.66-8.35,0-5.95,0-5.95Z" style="fill:#fff; opacity:.2;"></path></g><g><rect x="79.87" y="115.08" width="10.66" height="21.5" style="fill:#407BFF;"></rect><rect x="79.87" y="115.08" width="10.66" height="21.5" style="fill:#fff; opacity:.4;"></rect><path d="M90.54,118.61l-10.66,8.97s0,5.37,0,5.33,10.66-8.39,10.66-8.35,0-5.95,0-5.95Z" style="fill:#fff; opacity:.2;"></path></g><g><rect x="101.26" y="115.08" width="10.66" height="21.5" style="fill:#407BFF;"></rect><rect x="101.26" y="115.08" width="10.66" height="21.5" style="fill:#fff; opacity:.4;"></rect><path d="M111.92,118.61l-10.66,8.97s0,5.37,0,5.33,10.66-8.39,10.66-8.35,0-5.95,0-5.95Z" style="fill:#fff; opacity:.2;"></path></g><g><rect x="122.64" y="115.08" width="10.66" height="21.5" style="fill:#407BFF;"></rect><rect x="122.64" y="115.08" width="10.66" height="21.5" style="fill:#fff; opacity:.4;"></rect><path d="M133.3,118.61l-10.66,8.97s0,5.37,0,5.33,10.66-8.39,10.66-8.35,0-5.95,0-5.95Z" style="fill:#fff; opacity:.2;"></path></g><rect x="57.25" y="136.54" width="13.76" height="1.58" style="fill:#fff;"></rect><rect x="78.45" y="136.54" width="13.76" height="1.58" style="fill:#fff;"></rect><rect x="99.65" y="136.54" width="13.76" height="1.58" style="fill:#fff;"></rect><rect x="120.85" y="136.54" width="13.76" height="1.58" style="fill:#fff;"></rect><g><rect x="143.66" y="115.08" width="10.66" height="21.5" style="fill:#407BFF;"></rect><rect x="143.66" y="115.08" width="10.66" height="21.5" style="fill:#fff; opacity:.4;"></rect><path d="M154.32,118.61l-10.66,8.97s0,5.37,0,5.33,10.66-8.39,10.66-8.35,0-5.95,0-5.95Z" style="fill:#fff; opacity:.2;"></path></g><rect x="141.87" y="136.54" width="13.76" height="1.58" style="fill:#fff;"></rect><rect x="58.49" y="115.08" width="10.66" height="21.5" style="fill:#fff; opacity:.4;"></rect></g><g><g><rect x="58.49" y="150.42" width="10.66" height="21.5" style="fill:#407BFF;"></rect><path d="M69.15,153.95l-10.66,8.97s0,5.37,0,5.33,10.66-8.39,10.66-8.35,0-5.95,0-5.95Z" style="fill:#fff; opacity:.2;"></path></g><g><rect x="79.87" y="150.42" width="10.66" height="21.5" style="fill:#407BFF;"></rect><rect x="79.87" y="150.42" width="10.66" height="21.5" style="fill:#fff; opacity:.4;"></rect><path d="M90.54,153.95l-10.66,8.97s0,5.37,0,5.33,10.66-8.39,10.66-8.35,0-5.95,0-5.95Z" style="fill:#fff; opacity:.2;"></path></g><g><rect x="101.26" y="150.42" width="10.66" height="21.5" style="fill:#407BFF;"></rect><rect x="101.26" y="150.42" width="10.66" height="21.5" style="fill:#fff; opacity:.4;"></rect><path d="M111.92,153.95l-10.66,8.97s0,5.37,0,5.33,10.66-8.39,10.66-8.35,0-5.95,0-5.95Z" style="fill:#fff; opacity:.2;"></path></g><g><rect x="122.64" y="150.42" width="10.66" height="21.5" style="fill:#407BFF;"></rect><rect x="122.64" y="150.42" width="10.66" height="21.5" style="fill:#fff; opacity:.4;"></rect><path d="M133.3,153.95l-10.66,8.97s0,5.37,0,5.33,10.66-8.39,10.66-8.35,0-5.95,0-5.95Z" style="fill:#fff; opacity:.2;"></path></g><rect x="57.25" y="171.88" width="13.76" height="1.58" style="fill:#fff;"></rect><rect x="78.45" y="171.88" width="13.76" height="1.58" style="fill:#fff;"></rect><rect x="99.65" y="171.88" width="13.76" height="1.58" style="fill:#fff;"></rect><rect x="120.85" y="171.88" width="13.76" height="1.58" style="fill:#fff;"></rect><g><rect x="143.66" y="150.42" width="10.66" height="21.5" style="fill:#407BFF;"></rect><rect x="143.66" y="150.42" width="10.66" height="21.5" style="fill:#fff; opacity:.4;"></rect><path d="M154.32,153.95l-10.66,8.97s0,5.37,0,5.33,10.66-8.39,10.66-8.35,0-5.95,0-5.95Z" style="fill:#fff; opacity:.2;"></path></g><rect x="141.87" y="171.88" width="13.76" height="1.58" style="fill:#fff;"></rect><rect x="58.49" y="150.42" width="10.66" height="21.5" style="fill:#fff; opacity:.4;"></rect></g><g><g><rect x="58.49" y="193.76" width="10.66" height="21.5" style="fill:#407BFF;"></rect><path d="M69.15,197.29l-10.66,8.97s0,5.37,0,5.33,10.66-8.39,10.66-8.35,0-5.95,0-5.95Z" style="fill:#fff; opacity:.2;"></path></g><g><rect x="79.87" y="193.76" width="10.66" height="21.5" style="fill:#407BFF;"></rect><rect x="79.87" y="193.76" width="10.66" height="21.5" style="fill:#fff; opacity:.4;"></rect><path d="M90.54,197.29l-10.66,8.97s0,5.37,0,5.33,10.66-8.39,10.66-8.35,0-5.95,0-5.95Z" style="fill:#fff; opacity:.2;"></path></g><g><rect x="101.26" y="193.76" width="10.66" height="21.5" style="fill:#407BFF;"></rect><rect x="101.26" y="193.76" width="10.66" height="21.5" style="fill:#fff; opacity:.4;"></rect><path d="M111.92,197.29l-10.66,8.97s0,5.37,0,5.33,10.66-8.39,10.66-8.35,0-5.95,0-5.95Z" style="fill:#fff; opacity:.2;"></path></g><g><rect x="122.64" y="193.76" width="10.66" height="21.5" style="fill:#407BFF;"></rect><rect x="122.64" y="193.76" width="10.66" height="21.5" style="fill:#fff; opacity:.4;"></rect><path d="M133.3,197.29l-10.66,8.97s0,5.37,0,5.33,10.66-8.39,10.66-8.35,0-5.95,0-5.95Z" style="fill:#fff; opacity:.2;"></path></g><rect x="57.25" y="215.21" width="13.76" height="1.58" style="fill:#fff;"></rect><rect x="78.45" y="215.21" width="13.76" height="1.58" style="fill:#fff;"></rect><rect x="99.65" y="215.21" width="13.76" height="1.58" style="fill:#fff;"></rect><rect x="120.85" y="215.21" width="13.76" height="1.58" style="fill:#fff;"></rect><g><rect x="143.66" y="193.76" width="10.66" height="21.5" style="fill:#407BFF;"></rect><rect x="143.66" y="193.76" width="10.66" height="21.5" style="fill:#fff; opacity:.4;"></rect><path d="M154.32,197.29l-10.66,8.97s0,5.37,0,5.33,10.66-8.39,10.66-8.35,0-5.95,0-5.95Z" style="fill:#fff; opacity:.2;"></path></g><rect x="141.87" y="215.21" width="13.76" height="1.58" style="fill:#fff;"></rect><rect x="58.49" y="193.76" width="10.66" height="21.5" style="fill:#fff; opacity:.4;"></rect></g><polygon points="173.31 103.22 36.89 103.22 43.51 91.28 173.31 91.28 173.31 103.22" style="fill:#fff; opacity:.3;"></polygon><rect x="39.57" y="103.22" width="135.71" height="1.79" style="opacity:.2;"></rect></g><g><rect x="321.18" y="102.62" width="135.71" height="128.06" transform="translate(778.07 333.29) rotate(180)" style="fill:#263238;"></rect><rect x="321.18" y="102.62" width="135.71" height="128.06" transform="translate(778.07 333.29) rotate(180)" style="fill:#fff; opacity:.5;"></rect><polygon points="323.15 102.62 459.57 102.62 452.95 90.68 323.15 90.68 323.15 102.62" style="fill:#263238;"></polygon><rect x="323.15" y="180.77" width="133.74" height="1.59" rx=".76" ry=".76" transform="translate(780.04 363.14) rotate(180)" style="fill:#fff;"></rect><rect x="321.04" y="181.57" width="135.71" height="49.11" transform="translate(777.78 412.24) rotate(180)" style="fill:#fff; opacity:.3;"></rect><g><g><rect x="427.31" y="114.48" width="10.66" height="21.5" transform="translate(865.28 250.46) rotate(180)" style="fill:#407BFF;"></rect><path d="M427.31,118.01l10.66,8.97s0,5.37,0,5.33-10.66-8.39-10.66-8.35,0-5.95,0-5.95Z" style="fill:#fff; opacity:.2;"></path></g><g><rect x="405.93" y="114.48" width="10.66" height="21.5" transform="translate(822.51 250.46) rotate(180)" style="fill:#407BFF;"></rect><rect x="405.93" y="114.48" width="10.66" height="21.5" transform="translate(822.51 250.46) rotate(180)" style="fill:#fff; opacity:.4;"></rect><path d="M405.93,118.01l10.66,8.97s0,5.37,0,5.33-10.66-8.39-10.66-8.35,0-5.95,0-5.95Z" style="fill:#fff; opacity:.2;"></path></g><g><rect x="384.54" y="114.48" width="10.66" height="21.5" transform="translate(779.75 250.46) rotate(180)" style="fill:#407BFF;"></rect><rect x="384.54" y="114.48" width="10.66" height="21.5" transform="translate(779.75 250.46) rotate(180)" style="fill:#fff; opacity:.4;"></rect><path d="M384.54,118.01l10.66,8.97s0,5.37,0,5.33-10.66-8.39-10.66-8.35,0-5.95,0-5.95Z" style="fill:#fff; opacity:.2;"></path></g><g><rect x="363.16" y="114.48" width="10.66" height="21.5" transform="translate(736.99 250.46) rotate(180)" style="fill:#407BFF;"></rect><rect x="363.16" y="114.48" width="10.66" height="21.5" transform="translate(736.99 250.46) rotate(180)" style="fill:#fff; opacity:.4;"></rect><path d="M363.16,118.01l10.66,8.97s0,5.37,0,5.33-10.66-8.39-10.66-8.35,0-5.95,0-5.95Z" style="fill:#fff; opacity:.2;"></path></g><rect x="425.45" y="135.94" width="13.76" height="1.58" transform="translate(864.66 273.45) rotate(180)" style="fill:#fff;"></rect><rect x="404.25" y="135.94" width="13.76" height="1.58" transform="translate(822.26 273.45) rotate(180)" style="fill:#fff;"></rect><rect x="383.05" y="135.94" width="13.76" height="1.58" transform="translate(779.86 273.45) rotate(180)" style="fill:#fff;"></rect><rect x="361.85" y="135.94" width="13.76" height="1.58" transform="translate(737.46 273.45) rotate(180)" style="fill:#fff;"></rect><g><rect x="342.14" y="114.48" width="10.66" height="21.5" transform="translate(694.94 250.46) rotate(180)" style="fill:#407BFF;"></rect><rect x="342.14" y="114.48" width="10.66" height="21.5" transform="translate(694.94 250.46) rotate(180)" style="fill:#fff; opacity:.4;"></rect><path d="M342.14,118.01l10.66,8.97s0,5.37,0,5.33-10.66-8.39-10.66-8.35,0-5.95,0-5.95Z" style="fill:#fff; opacity:.2;"></path></g><rect x="340.83" y="135.94" width="13.76" height="1.58" transform="translate(695.42 273.45) rotate(180)" style="fill:#fff;"></rect><rect x="427.31" y="114.48" width="10.66" height="21.5" transform="translate(865.28 250.46) rotate(180)" style="fill:#fff; opacity:.4;"></rect></g><g><g><rect x="427.31" y="149.82" width="10.66" height="21.5" transform="translate(865.28 321.14) rotate(180)" style="fill:#407BFF;"></rect><path d="M427.31,153.35l10.66,8.97s0,5.37,0,5.33-10.66-8.39-10.66-8.35,0-5.95,0-5.95Z" style="fill:#fff; opacity:.2;"></path></g><g><rect x="405.93" y="149.82" width="10.66" height="21.5" transform="translate(822.51 321.14) rotate(180)" style="fill:#407BFF;"></rect><rect x="405.93" y="149.82" width="10.66" height="21.5" transform="translate(822.51 321.14) rotate(180)" style="fill:#fff; opacity:.4;"></rect><path d="M405.93,153.35l10.66,8.97s0,5.37,0,5.33-10.66-8.39-10.66-8.35,0-5.95,0-5.95Z" style="fill:#fff; opacity:.2;"></path></g><g><rect x="384.54" y="149.82" width="10.66" height="21.5" transform="translate(779.75 321.14) rotate(180)" style="fill:#407BFF;"></rect><rect x="384.54" y="149.82" width="10.66" height="21.5" transform="translate(779.75 321.14) rotate(180)" style="fill:#fff; opacity:.4;"></rect><path d="M384.54,153.35l10.66,8.97s0,5.37,0,5.33-10.66-8.39-10.66-8.35,0-5.95,0-5.95Z" style="fill:#fff; opacity:.2;"></path></g><g><rect x="363.16" y="149.82" width="10.66" height="21.5" transform="translate(736.99 321.14) rotate(180)" style="fill:#407BFF;"></rect><rect x="363.16" y="149.82" width="10.66" height="21.5" transform="translate(736.99 321.14) rotate(180)" style="fill:#fff; opacity:.4;"></rect><path d="M363.16,153.35l10.66,8.97s0,5.37,0,5.33-10.66-8.39-10.66-8.35,0-5.95,0-5.95Z" style="fill:#fff; opacity:.2;"></path></g><rect x="425.45" y="171.28" width="13.76" height="1.58" transform="translate(864.66 344.13) rotate(180)" style="fill:#fff;"></rect><rect x="404.25" y="171.28" width="13.76" height="1.58" transform="translate(822.26 344.13) rotate(180)" style="fill:#fff;"></rect><rect x="383.05" y="171.28" width="13.76" height="1.58" transform="translate(779.86 344.13) rotate(180)" style="fill:#fff;"></rect><rect x="361.85" y="171.28" width="13.76" height="1.58" transform="translate(737.46 344.13) rotate(180)" style="fill:#fff;"></rect><g><rect x="342.14" y="149.82" width="10.66" height="21.5" transform="translate(694.94 321.14) rotate(180)" style="fill:#407BFF;"></rect><rect x="342.14" y="149.82" width="10.66" height="21.5" transform="translate(694.94 321.14) rotate(180)" style="fill:#fff; opacity:.4;"></rect><path d="M342.14,153.35l10.66,8.97s0,5.37,0,5.33-10.66-8.39-10.66-8.35,0-5.95,0-5.95Z" style="fill:#fff; opacity:.2;"></path></g><rect x="340.83" y="171.28" width="13.76" height="1.58" transform="translate(695.42 344.13) rotate(180)" style="fill:#fff;"></rect><rect x="427.31" y="149.82" width="10.66" height="21.5" transform="translate(865.28 321.14) rotate(180)" style="fill:#fff; opacity:.4;"></rect></g><g><g><rect x="427.31" y="193.16" width="10.66" height="21.5" transform="translate(865.28 407.81) rotate(180)" style="fill:#407BFF;"></rect><path d="M427.31,196.69l10.66,8.97s0,5.37,0,5.33-10.66-8.39-10.66-8.35,0-5.95,0-5.95Z" style="fill:#fff; opacity:.2;"></path></g><g><rect x="405.93" y="193.16" width="10.66" height="21.5" transform="translate(822.51 407.81) rotate(180)" style="fill:#407BFF;"></rect><rect x="405.93" y="193.16" width="10.66" height="21.5" transform="translate(822.51 407.81) rotate(180)" style="fill:#fff; opacity:.4;"></rect><path d="M405.93,196.69l10.66,8.97s0,5.37,0,5.33-10.66-8.39-10.66-8.35,0-5.95,0-5.95Z" style="fill:#fff; opacity:.2;"></path></g><g><rect x="384.54" y="193.16" width="10.66" height="21.5" transform="translate(779.75 407.81) rotate(180)" style="fill:#407BFF;"></rect><rect x="384.54" y="193.16" width="10.66" height="21.5" transform="translate(779.75 407.81) rotate(180)" style="fill:#fff; opacity:.4;"></rect><path d="M384.54,196.69l10.66,8.97s0,5.37,0,5.33-10.66-8.39-10.66-8.35,0-5.95,0-5.95Z" style="fill:#fff; opacity:.2;"></path></g><g><rect x="363.16" y="193.16" width="10.66" height="21.5" transform="translate(736.99 407.81) rotate(180)" style="fill:#407BFF;"></rect><rect x="363.16" y="193.16" width="10.66" height="21.5" transform="translate(736.99 407.81) rotate(180)" style="fill:#fff; opacity:.4;"></rect><path d="M363.16,196.69l10.66,8.97s0,5.37,0,5.33-10.66-8.39-10.66-8.35,0-5.95,0-5.95Z" style="fill:#fff; opacity:.2;"></path></g><rect x="425.45" y="214.61" width="13.76" height="1.58" transform="translate(864.66 430.8) rotate(180)" style="fill:#fff;"></rect><rect x="404.25" y="214.61" width="13.76" height="1.58" transform="translate(822.26 430.8) rotate(180)" style="fill:#fff;"></rect><rect x="383.05" y="214.61" width="13.76" height="1.58" transform="translate(779.86 430.8) rotate(180)" style="fill:#fff;"></rect><rect x="361.85" y="214.61" width="13.76" height="1.58" transform="translate(737.46 430.8) rotate(180)" style="fill:#fff;"></rect><g><rect x="342.14" y="193.16" width="10.66" height="21.5" transform="translate(694.94 407.81) rotate(180)" style="fill:#407BFF;"></rect><rect x="342.14" y="193.16" width="10.66" height="21.5" transform="translate(694.94 407.81) rotate(180)" style="fill:#fff; opacity:.4;"></rect><path d="M342.14,196.69l10.66,8.97s0,5.37,0,5.33-10.66-8.39-10.66-8.35,0-5.95,0-5.95Z" style="fill:#fff; opacity:.2;"></path></g><rect x="340.83" y="214.61" width="13.76" height="1.58" transform="translate(695.42 430.8) rotate(180)" style="fill:#fff;"></rect><rect x="427.31" y="193.16" width="10.66" height="21.5" transform="translate(865.28 407.81) rotate(180)" style="fill:#fff; opacity:.4;"></rect></g><polygon points="323.15 102.62 459.57 102.62 452.95 90.68 323.15 90.68 323.15 102.62" style="fill:#fff; opacity:.3;"></polygon><rect x="321.18" y="102.62" width="135.71" height="1.79" transform="translate(778.07 207.03) rotate(180)" style="opacity:.2;"></rect></g><g><g><rect x="208.59" y="113.57" width="11.62" height="30.38" style="fill:#407BFF;"></rect><rect x="208.59" y="113.57" width="11.62" height="30.38" style="fill:#fff; opacity:.4;"></rect><path d="M220.21,118.57l-11.62,12.68s0,7.59,0,7.53,11.62-11.86,11.62-11.8,0-8.41,0-8.41Z" style="fill:#fff; opacity:.2;"></path></g><g><rect x="231.89" y="113.57" width="11.62" height="30.38" style="fill:#407BFF;"></rect><rect x="231.89" y="113.57" width="11.62" height="30.38" style="fill:#fff; opacity:.4;"></rect><path d="M243.51,118.57l-11.62,12.68s0,7.59,0,7.53,11.62-11.86,11.62-11.8,0-8.41,0-8.41Z" style="fill:#fff; opacity:.2;"></path></g><g><rect x="255.19" y="113.57" width="11.62" height="30.38" style="fill:#407BFF;"></rect><rect x="255.19" y="113.57" width="11.62" height="30.38" style="fill:#fff; opacity:.4;"></rect><path d="M266.81,118.57l-11.62,12.68s0,7.59,0,7.53,11.62-11.86,11.62-11.8,0-8.41,0-8.41Z" style="fill:#fff; opacity:.2;"></path></g><g><rect x="278.49" y="113.57" width="11.62" height="30.38" style="fill:#407BFF;"></rect><rect x="278.49" y="113.57" width="11.62" height="30.38" style="fill:#fff; opacity:.4;"></rect><path d="M290.11,118.57l-11.62,12.68s0,7.59,0,7.53,11.62-11.86,11.62-11.8,0-8.41,0-8.41Z" style="fill:#fff; opacity:.2;"></path></g><rect x="207.24" y="143.9" width="14.99" height="1.72" style="fill:#fff;"></rect><rect x="230.34" y="143.9" width="14.99" height="1.72" style="fill:#fff;"></rect><rect x="253.45" y="143.9" width="14.99" height="1.72" style="fill:#fff;"></rect><rect x="276.55" y="143.9" width="14.99" height="1.72" style="fill:#fff;"></rect></g><g><g><polygon points="169.24 93.26 169.24 88.4 194.66 88.4 194.66 93.26 189.86 96.19 173.31 96.19 169.24 93.26" style="fill:#263238;"></polygon><rect x="173.31" y="96.19" width="16.55" height="124.49" style="fill:#263238;"></rect></g><g style="opacity:.4;"><polygon points="169.24 93.26 169.24 88.4 194.66 88.4 194.66 93.26 189.86 96.19 173.31 96.19 169.24 93.26" style="fill:#fff;"></polygon><rect x="173.31" y="96.19" width="16.55" height="124.49" style="fill:#fff;"></rect></g><polygon points="169.24 93.26 194.66 93.26 189.86 96.19 173.31 96.19 169.24 93.26" style="opacity:.2;"></polygon><g><rect x="176.53" y="99.36" width="1.41" height="118.14" rx=".67" ry=".67" style="opacity:.2;"></rect><rect x="181.24" y="99.36" width="1.41" height="118.14" rx=".67" ry=".67" style="opacity:.2;"></rect><rect x="185.95" y="99.36" width="1.41" height="118.14" rx=".67" ry=".67" style="opacity:.2;"></rect></g></g><g><g><polygon points="303.62 93.26 303.62 88.4 329.04 88.4 329.04 93.26 324.24 96.19 307.69 96.19 303.62 93.26" style="fill:#263238;"></polygon><rect x="307.69" y="96.19" width="16.55" height="124.49" style="fill:#263238;"></rect></g><g style="opacity:.4;"><polygon points="303.62 93.26 303.62 88.4 329.04 88.4 329.04 93.26 324.24 96.19 307.69 96.19 303.62 93.26" style="fill:#fff;"></polygon><rect x="307.69" y="96.19" width="16.55" height="124.49" style="fill:#fff;"></rect></g><polygon points="303.62 93.26 329.04 93.26 324.24 96.19 307.69 96.19 303.62 93.26" style="opacity:.2;"></polygon><g><rect x="310.91" y="99.36" width="1.41" height="118.14" rx=".67" ry=".67" style="opacity:.2;"></rect><rect x="315.62" y="99.36" width="1.41" height="118.14" rx=".67" ry=".67" style="opacity:.2;"></rect><rect x="320.33" y="99.36" width="1.41" height="118.14" rx=".67" ry=".67" style="opacity:.2;"></rect></g></g><g><rect x="147.94" y="220.68" width="196.71" height="5.33" style="fill:#263238;"></rect><rect x="155.83" y="215.35" width="181.39" height="5.33" style="fill:#263238;"></rect><rect x="140.19" y="225.94" width="210.92" height="5.33" style="fill:#263238;"></rect></g><g><path d="M161.18,78.81c.87,0,88.75-42.06,88.75-42.06l88.17,42.06H161.18Z" style="fill:#263238;"></path><path d="M181.35,74.37c12.68-5.98,33.65-15.97,68.59-32.69l68.54,32.69H181.35Z" style="fill:#fff; opacity:.2;"></path><path d="M161.18,78.81c.87,0,88.75-42.06,88.75-42.06l88.17,42.06H161.18Z" style="fill:#fff; opacity:.3;"></path><g><polygon points="338.11 88.4 162.95 88.4 160.93 88.4 160.93 78.81 338.11 78.81 338.11 88.4" style="fill:#263238;"></polygon><polygon points="338.11 88.4 162.95 88.4 160.93 88.4 160.93 78.81 338.11 78.81 338.11 88.4" style="fill:#fff; opacity:.3;"></polygon></g><rect x="160.93" y="78.81" width="177.18" height="1.17" style="opacity:.2;"></rect><path d="M185.5,72.41c.76-.39,128.49-.17,128.49-.17l4.48,2.14H181.35l4.15-1.96Z" style="opacity:.2;"></path></g><g style="opacity:.3;"><rect x="147.94" y="220.68" width="196.71" height="5.33" style="fill:#fff;"></rect><rect x="155.83" y="215.35" width="181.39" height="5.33" style="fill:#fff;"></rect><rect x="140.19" y="225.94" width="210.92" height="5.33" style="fill:#fff;"></rect></g><rect x="155.83" y="219.46" width="181.39" height="1.22" style="opacity:.2;"></rect><rect x="147.94" y="224.73" width="196.71" height="1.22" style="opacity:.2;"></rect><rect x="140.25" y="230.07" width="210.86" height="1.22" style="opacity:.2;"></rect><g><rect x="209.09" y="179.2" width="83.54" height="36.13" style="fill:#263238;"></rect><rect x="209.09" y="179.2" width="83.54" height="36.13" style="fill:#fff; opacity:.5;"></rect><rect x="211.38" y="181.36" width="16.82" height="33.97" style="fill:#407BFF;"></rect><rect x="211.38" y="181.36" width="16.82" height="33.97" style="fill:#fff; opacity:.4;"></rect><rect x="273.27" y="181.36" width="17.48" height="33.97" style="fill:#407BFF;"></rect><rect x="230.44" y="181.36" width="19.08" height="33.97" style="fill:#407BFF;"></rect><rect x="230.44" y="181.36" width="19.08" height="33.97" style="fill:#fff; opacity:.4;"></rect><rect x="252.06" y="181.36" width="19.08" height="33.97" style="fill:#407BFF;"></rect><rect x="273.27" y="181.36" width="17.48" height="33.97" style="fill:#fff; opacity:.4;"></rect><rect x="252.06" y="181.36" width="19.08" height="33.97" style="fill:#fff; opacity:.4;"></rect><rect x="229.89" y="184.64" width="41.44" height="1.15" style="fill:#263238;"></rect><rect x="229.89" y="184.64" width="41.44" height="1.15" style="fill:#fff; opacity:.5;"></rect><path d="M228.2,184.64c0-.11-16.82,12.27-16.82,12.63v8.55l16.82-12.63v-8.54Z" style="fill:#fff; opacity:.2;"></path><polyline points="228.2 197.27 211.38 209.55 211.38 212.04 228.2 199.68 228.2 197.8" style="fill:#fff; opacity:.2;"></polyline><path d="M290.75,184.64c0-.11-17.48,12.27-17.48,12.63v8.55l17.48-12.63v-8.54Z" style="fill:#fff; opacity:.2;"></path><polyline points="290.75 197.27 273.27 209.55 273.27 212.04 290.75 199.68 290.75 197.8" style="fill:#fff; opacity:.2;"></polyline><polygon points="249.52 188.99 230.44 200.21 230.44 207.65 249.52 195.74 249.52 188.99" style="fill:#fff; opacity:.2;"></polygon><polygon points="271.14 193.84 252.06 206.04 252.06 213.48 271.14 201.56 271.14 193.84" style="fill:#fff; opacity:.2;"></polygon><g><rect x="246.56" y="196.65" width="2.95" height="9.17" style="fill:#263238;"></rect><rect x="246.56" y="196.65" width="2.95" height="9.17" style="fill:#fff; opacity:.7;"></rect></g><g><rect x="252.08" y="196.65" width="2.95" height="9.17" style="fill:#263238;"></rect><rect x="252.08" y="196.65" width="2.95" height="9.17" style="fill:#fff; opacity:.7;"></rect></g></g></g></g></svg>
