<svg xmlns="http://www.w3.org/2000/svg" viewBox="0 0 750 500"><g id="freepik--background-simple--inject-62"><path d="M281,127.24c97.47-48,197.73-110.75,311-85.07C627.05,50.13,659,70,680.6,99c57.76,77.39,53.06,195.92,21.68,283a158.33,158.33,0,0,1-15.78,32.55C654.65,463.71,601,466,549.22,451.82c-43.81-12-82.62-24.4-127.87-12.17C396.29,446.42,372,455.73,347,462.82c-34,9.64-69,16.19-104.45,16.86-93.67,1.75-200.66-46-209-150.63a163.23,163.23,0,0,1-.33-20.39C35.16,266.9,49,225.08,87.21,203.4c38.46-21.8,84.09-30.41,125.23-45.87C235.84,148.73,258.53,138.29,281,127.24Z" style="fill:#407BFF"></path><path d="M281,127.24c97.47-48,197.73-110.75,311-85.07C627.05,50.13,659,70,680.6,99c57.76,77.39,53.06,195.92,21.68,283a158.33,158.33,0,0,1-15.78,32.55C654.65,463.71,601,466,549.22,451.82c-43.81-12-82.62-24.4-127.87-12.17C396.29,446.42,372,455.73,347,462.82c-34,9.64-69,16.19-104.45,16.86-93.67,1.75-200.66-46-209-150.63a163.23,163.23,0,0,1-.33-20.39C35.16,266.9,49,225.08,87.21,203.4c38.46-21.8,84.09-30.41,125.23-45.87C235.84,148.73,258.53,138.29,281,127.24Z" style="fill:#fff;opacity:0.7000000000000001"></path></g></svg>