<svg xmlns="http://www.w3.org/2000/svg" viewBox="0 0 750 500"><g id="freepik--Trees--inject-62"><path d="M361.42,68.26c-64.81.1-117.32,50-117.32,111.55v.93a60.21,60.21,0,0,0,61.61,59.54,89.33,89.33,0,0,1,16.29,1c11.09,1.79,19.68,8.3,25.5,15.82a17,17,0,0,0,13.3,6.8H362a17,17,0,0,0,13.31-6.8c5.82-7.52,14.4-14,25.5-15.82a89.28,89.28,0,0,1,16.29-1,60.2,60.2,0,0,0,61.6-59.54c0-.31,0-.62,0-.93C478.75,118.27,426.24,68.36,361.42,68.26Z" style="fill:#407BFF"></path><path d="M361.42,68.26c-64.81.1-117.32,50-117.32,111.55v.93a60.21,60.21,0,0,0,61.61,59.54,89.33,89.33,0,0,1,16.29,1c11.09,1.79,19.68,8.3,25.5,15.82a17,17,0,0,0,13.3,6.8H362a17,17,0,0,0,13.31-6.8c5.82-7.52,14.4-14,25.5-15.82a89.28,89.28,0,0,1,16.29-1,60.2,60.2,0,0,0,61.6-59.54c0-.31,0-.62,0-.93C478.75,118.27,426.24,68.36,361.42,68.26Z" style="fill:#fff;opacity:0.46"></path><path d="M341.11,166.27s-2.32-6.63-7.3-9a40.59,40.59,0,0,0-8.28-3S328.18,167.93,341.11,166.27Z" style="fill:#fff"></path><path d="M347.11,148.65s-.38-7-4.51-10.63a40.82,40.82,0,0,0-7.13-5.17S334.23,146.64,347.11,148.65Z" style="fill:#fff"></path><path d="M402.35,202.35s-4.45-5.44-9.91-5.92a40.79,40.79,0,0,0-8.81,0S390.77,208.33,402.35,202.35Z" style="fill:#fff"></path><path d="M425.84,215.37s-4.44-5.44-9.91-5.92a40.83,40.83,0,0,0-8.81,0S414.26,221.35,425.84,215.37Z" style="fill:#fff"></path><path d="M315.55,200.69s4.45-5.44,9.92-5.92a40.71,40.71,0,0,1,8.8,0S327.13,206.66,315.55,200.69Z" style="fill:#fff"></path><path d="M282.78,210.59s4.45-5.43,9.91-5.91a40.79,40.79,0,0,1,8.81,0S294.36,216.57,282.78,210.59Z" style="fill:#fff"></path><path d="M327.55,142.68s-.38-7-4.51-10.62a40.57,40.57,0,0,0-7.12-5.17S314.68,140.68,327.55,142.68Z" style="fill:#fff"></path><path d="M308.4,119.28s-.38-7-4.51-10.62a40.61,40.61,0,0,0-7.13-5.18S295.52,117.27,308.4,119.28Z" style="fill:#fff"></path><path d="M392.52,146.66s.38-7,4.51-10.62a40.37,40.37,0,0,1,7.12-5.18S405.39,144.65,392.52,146.66Z" style="fill:#fff"></path><path d="M416.14,133.7s.39-7,4.51-10.62a40.82,40.82,0,0,1,7.13-5.17S429,131.7,416.14,133.7Z" style="fill:#fff"></path><path d="M360.18,137.64s4-5.74,3.05-11.13a40.49,40.49,0,0,0-2.39-8.48S351.32,128.08,360.18,137.64Z" style="fill:#fff"></path><path d="M364.69,164s.65-7-2.9-11.17a40.53,40.53,0,0,0-6.28-6.17S352.25,160.15,364.69,164Z" style="fill:#fff"></path><path d="M348,132.1s2.1-6.7-.5-11.53a40.38,40.38,0,0,0-4.87-7.34S336.65,125.71,348,132.1Z" style="fill:#fff"></path><path d="M348,105.42s2.1-6.7-.5-11.53a40.38,40.38,0,0,0-4.87-7.34S336.65,99,348,105.42Z" style="fill:#fff"></path><path d="M353.31,184.14s2.09-6.71-.51-11.54a40.73,40.73,0,0,0-4.86-7.34S342,177.75,353.31,184.14Z" style="fill:#fff"></path><path d="M369,176.26s5.93-3.76,7.06-9.12a40.84,40.84,0,0,0,1-8.75S364.48,164.05,369,176.26Z" style="fill:#fff"></path><path d="M369.72,132.1s-2.09-6.7.51-11.53a40.73,40.73,0,0,1,4.86-7.34S381.08,125.71,369.72,132.1Z" style="fill:#fff"></path><path d="M391.8,109.52s-2.1-6.71.51-11.54a40.73,40.73,0,0,1,4.86-7.34S403.16,103.13,391.8,109.52Z" style="fill:#fff"></path><path d="M378,149s5.92-3.78,7-9.15a40.42,40.42,0,0,0,1-8.75S373.41,136.75,378,149Z" style="fill:#fff"></path><path d="M394,167.31s6.8-1.77,9.52-6.53a40.27,40.27,0,0,0,3.66-8S393.37,154.29,394,167.31Z" style="fill:#fff"></path><path d="M395.48,183.7s6.37,2.94,11.5,1a40.79,40.79,0,0,0,7.9-3.88S403.27,173.26,395.48,183.7Z" style="fill:#fff"></path><path d="M404.43,168.79s6.37,2.94,11.5,1a40.79,40.79,0,0,0,7.9-3.88S412.22,158.34,404.43,168.79Z" style="fill:#fff"></path><path d="M432.64,170.18s6.37,2.94,11.5,1a40.79,40.79,0,0,0,7.9-3.88S440.43,159.73,432.64,170.18Z" style="fill:#fff"></path><path d="M315.15,178.31s4.28,5.57,9.73,6.21a40.82,40.82,0,0,0,8.8.23S326.9,172.68,315.15,178.31Z" style="fill:#fff"></path><path d="M301.23,159.09s4.28,5.57,9.73,6.21a40.82,40.82,0,0,0,8.8.23S313,153.46,301.23,159.09Z" style="fill:#fff"></path><path d="M268.45,155.28s4.29,5.57,9.74,6.21a40.84,40.84,0,0,0,8.8.23S280.2,149.65,268.45,155.28Z" style="fill:#fff"></path><polygon points="402.01 205.36 376.05 210.97 407.02 172.38 364.73 211.81 364.47 214.54 362.58 173.1 359.59 238.55 317.89 199.68 348.86 238.26 322.91 232.65 355.72 246.81 359.03 250.93 353.26 467.5 371.9 467.5 364.94 224.81 369.2 219.51 402.01 205.36" style="fill:#a3a3a3"></polygon><path d="M163.22,13C89.44,13.16,29.67,70,29.67,140v1A68.53,68.53,0,0,0,99.8,208.85,101.72,101.72,0,0,1,118.34,210c12.63,2,22.4,9.44,29,18a19.35,19.35,0,0,0,15.15,7.74h1.4A19.36,19.36,0,0,0,179.07,228c6.63-8.56,16.4-16,29-18a101.72,101.72,0,0,1,18.54-1.18,68.52,68.52,0,0,0,70.12-67.78c0-.34,0-.69,0-1C296.77,70,237,13.16,163.22,13Z" style="fill:#407BFF"></path><path d="M163.22,13C89.44,13.16,29.67,70,29.67,140v1A68.53,68.53,0,0,0,99.8,208.85,101.72,101.72,0,0,1,118.34,210c12.63,2,22.4,9.44,29,18a19.35,19.35,0,0,0,15.15,7.74h1.4A19.36,19.36,0,0,0,179.07,228c6.63-8.56,16.4-16,29-18a101.72,101.72,0,0,1,18.54-1.18,68.52,68.52,0,0,0,70.12-67.78c0-.34,0-.69,0-1C296.77,70,237,13.16,163.22,13Z" style="fill:#fff;opacity:0.30000000000000004"></path><path d="M140.09,124.6s-2.64-7.54-8.3-10.18a46.71,46.71,0,0,0-9.43-3.4S125.38,126.49,140.09,124.6Z" style="fill:#fff"></path><path d="M146.93,104.55s-.44-8-5.14-12.1a46.24,46.24,0,0,0-8.11-5.88S132.27,102.26,146.93,104.55Z" style="fill:#fff"></path><path d="M209.81,165.67s-5.07-6.18-11.29-6.73a45.78,45.78,0,0,0-10,0S196.63,172.48,209.81,165.67Z" style="fill:#fff"></path><path d="M236.55,180.49s-5.06-6.18-11.28-6.73a46.7,46.7,0,0,0-10,0S223.37,187.3,236.55,180.49Z" style="fill:#fff"></path><path d="M111,163.78s5.06-6.18,11.28-6.73a45.9,45.9,0,0,1,10,0S124.19,170.59,111,163.78Z" style="fill:#fff"></path><path d="M73.7,175.06s5.06-6.18,11.28-6.73a45.9,45.9,0,0,1,10,0S86.88,181.87,73.7,175.06Z" style="fill:#fff"></path><path d="M124.67,97.76s-.44-8-5.14-12.1a46.24,46.24,0,0,0-8.11-5.88S110,95.47,124.67,97.76Z" style="fill:#fff"></path><path d="M102.86,71.12s-.43-8-5.13-12.1a46,46,0,0,0-8.12-5.88S88.2,68.83,102.86,71.12Z" style="fill:#fff"></path><path d="M198.61,102.29s.44-8,5.14-12.1a46.72,46.72,0,0,1,8.11-5.89S213.27,100,198.61,102.29Z" style="fill:#fff"></path><path d="M225.51,87.54s.43-8,5.13-12.1a46.52,46.52,0,0,1,8.12-5.89S240.17,85.25,225.51,87.54Z" style="fill:#fff"></path><path d="M161.8,92s4.61-6.53,3.47-12.67a46,46,0,0,0-2.71-9.66S151.72,81.13,161.8,92Z" style="fill:#fff"></path><path d="M166.93,122.07s.75-8-3.29-12.72a46.47,46.47,0,0,0-7.15-7S152.78,117.64,166.93,122.07Z" style="fill:#fff"></path><path d="M148,85.71s2.38-7.63-.58-13.13a46.3,46.3,0,0,0-5.54-8.35S135,78.44,148,85.71Z" style="fill:#fff"></path><path d="M148,55.34s2.38-7.63-.58-13.12a46.2,46.2,0,0,0-5.54-8.36S135,48.07,148,55.34Z" style="fill:#fff"></path><path d="M154,144.94s2.39-7.63-.57-13.12a46.85,46.85,0,0,0-5.54-8.36S141.05,137.67,154,144.94Z" style="fill:#fff"></path><path d="M171.86,136s6.76-4.28,8-10.39a46.33,46.33,0,0,0,1.17-10S166.7,122.08,171.86,136Z" style="fill:#fff"></path><path d="M172.67,85.71s-2.39-7.63.57-13.13a47,47,0,0,1,5.54-8.35S185.6,78.44,172.67,85.71Z" style="fill:#fff"></path><path d="M197.8,60s-2.39-7.63.57-13.12a46.85,46.85,0,0,1,5.54-8.36S210.73,52.73,197.8,60Z" style="fill:#fff"></path><path d="M182.08,104.89s6.74-4.3,8-10.42a46,46,0,0,0,1.13-10S176.86,91,182.08,104.89Z" style="fill:#fff"></path><path d="M200.25,125.79s7.74-2,10.84-7.43a46.12,46.12,0,0,0,4.16-9.12S199.59,111,200.25,125.79Z" style="fill:#fff"></path><path d="M202,144.45s7.25,3.35,13.09,1.12a47.1,47.1,0,0,0,9-4.42S210.86,132.56,202,144.45Z" style="fill:#fff"></path><path d="M212.17,127.47s7.26,3.35,13.09,1.12a46,46,0,0,0,9-4.42S221.05,115.58,212.17,127.47Z" style="fill:#fff"></path><path d="M244.28,129.05s7.26,3.35,13.09,1.12a46,46,0,0,0,9-4.42S253.16,117.17,244.28,129.05Z" style="fill:#fff"></path><path d="M110.55,138.32s4.87,6.33,11.07,7.06a46.27,46.27,0,0,0,10,.26S123.92,131.91,110.55,138.32Z" style="fill:#fff"></path><path d="M94.7,116.44s4.88,6.33,11.08,7.06a46.29,46.29,0,0,0,10,.26S108.08,110,94.7,116.44Z" style="fill:#fff"></path><path d="M57.39,112.1s4.88,6.33,11.08,7.06a46.29,46.29,0,0,0,10,.26S70.77,105.69,57.39,112.1Z" style="fill:#fff"></path><polygon points="209.42 169.1 179.87 175.49 215.13 131.56 166.99 176.44 166.69 179.55 164.54 132.38 161.14 206.89 113.67 162.63 148.92 206.56 119.38 200.17 156.72 216.28 160.5 220.98 153.93 467.5 175.15 467.5 167.22 191.25 172.07 185.21 209.42 169.1" style="fill:#a3a3a3"></polygon><path d="M571.88,13C498.1,13.16,438.33,70,438.33,140c0,.36,0,.71,0,1a68.52,68.52,0,0,0,70.12,67.78A101.72,101.72,0,0,1,527,210c12.63,2,22.4,9.44,29,18a19.36,19.36,0,0,0,15.15,7.74h1.4A19.35,19.35,0,0,0,587.73,228c6.63-8.56,16.4-16,29-18a101.72,101.72,0,0,1,18.54-1.18,68.53,68.53,0,0,0,70.13-67.78v-1C705.43,70,645.66,13.16,571.88,13Z" style="fill:#407BFF"></path><path d="M571.88,13C498.1,13.16,438.33,70,438.33,140c0,.36,0,.71,0,1a68.52,68.52,0,0,0,70.12,67.78A101.72,101.72,0,0,1,527,210c12.63,2,22.4,9.44,29,18a19.36,19.36,0,0,0,15.15,7.74h1.4A19.35,19.35,0,0,0,587.73,228c6.63-8.56,16.4-16,29-18a101.72,101.72,0,0,1,18.54-1.18,68.53,68.53,0,0,0,70.13-67.78v-1C705.43,70,645.66,13.16,571.88,13Z" style="fill:#fff;opacity:0.30000000000000004"></path><path d="M548.75,124.6s-2.64-7.54-8.3-10.18A46.47,46.47,0,0,0,531,111S534,126.49,548.75,124.6Z" style="fill:#fff"></path><path d="M555.59,104.55s-.44-8-5.14-12.1a46.24,46.24,0,0,0-8.11-5.88S540.93,102.26,555.59,104.55Z" style="fill:#fff"></path><path d="M618.47,165.67s-5.06-6.18-11.28-6.73a45.85,45.85,0,0,0-10,0S605.29,172.48,618.47,165.67Z" style="fill:#fff"></path><path d="M645.21,180.49s-5.06-6.18-11.28-6.73a46.7,46.7,0,0,0-10,0S632,187.3,645.21,180.49Z" style="fill:#fff"></path><path d="M519.67,163.78s5.06-6.18,11.28-6.73a45.9,45.9,0,0,1,10,0S532.85,170.59,519.67,163.78Z" style="fill:#fff"></path><path d="M482.36,175.06s5.06-6.18,11.28-6.73a45.85,45.85,0,0,1,10,0S495.54,181.87,482.36,175.06Z" style="fill:#fff"></path><path d="M533.33,97.76s-.44-8-5.13-12.1a46,46,0,0,0-8.12-5.88S518.67,95.47,533.33,97.76Z" style="fill:#fff"></path><path d="M511.52,71.12s-.43-8-5.13-12.1a46.24,46.24,0,0,0-8.11-5.88S496.87,68.83,511.52,71.12Z" style="fill:#fff"></path><path d="M607.27,102.29s.44-8,5.14-12.1a46.72,46.72,0,0,1,8.11-5.89S621.93,100,607.27,102.29Z" style="fill:#fff"></path><path d="M634.17,87.54s.44-8,5.14-12.1a46.72,46.72,0,0,1,8.11-5.89S648.83,85.25,634.17,87.54Z" style="fill:#fff"></path><path d="M570.46,92s4.61-6.53,3.48-12.67a46.34,46.34,0,0,0-2.72-9.66S560.38,81.13,570.46,92Z" style="fill:#fff"></path><path d="M575.6,122.07s.74-8-3.3-12.72a46.47,46.47,0,0,0-7.15-7S561.44,117.64,575.6,122.07Z" style="fill:#fff"></path><path d="M556.61,85.71S559,78.08,556,72.58a46.3,46.3,0,0,0-5.54-8.35S543.68,78.44,556.61,85.71Z" style="fill:#fff"></path><path d="M556.61,55.34S559,47.71,556,42.22a46.2,46.2,0,0,0-5.54-8.36S543.68,48.07,556.61,55.34Z" style="fill:#fff"></path><path d="M562.64,144.94s2.39-7.63-.57-13.12a46.2,46.2,0,0,0-5.54-8.36S549.71,137.67,562.64,144.94Z" style="fill:#fff"></path><path d="M580.53,136s6.75-4.28,8-10.39a46.85,46.85,0,0,0,1.18-10S575.36,122.08,580.53,136Z" style="fill:#fff"></path><path d="M581.33,85.71s-2.39-7.63.57-13.13a47,47,0,0,1,5.54-8.35S594.26,78.44,581.33,85.71Z" style="fill:#fff"></path><path d="M606.46,60s-2.39-7.63.58-13.12a46.55,46.55,0,0,1,5.53-8.36S619.39,52.73,606.46,60Z" style="fill:#fff"></path><path d="M590.74,104.89s6.74-4.3,8-10.42a46,46,0,0,0,1.13-10S585.52,91,590.74,104.89Z" style="fill:#fff"></path><path d="M608.91,125.79s7.74-2,10.84-7.43a46.62,46.62,0,0,0,4.17-9.12S608.25,111,608.91,125.79Z" style="fill:#fff"></path><path d="M610.65,144.45s7.26,3.35,13.09,1.12a47.1,47.1,0,0,0,9-4.42S619.52,132.56,610.65,144.45Z" style="fill:#fff"></path><path d="M620.83,127.47s7.26,3.35,13.1,1.12a46.06,46.06,0,0,0,9-4.42S629.71,115.58,620.83,127.47Z" style="fill:#fff"></path><path d="M652.94,129.05s7.26,3.35,13.1,1.12a46.06,46.06,0,0,0,9-4.42S661.82,117.17,652.94,129.05Z" style="fill:#fff"></path><path d="M519.21,138.32s4.87,6.33,11.08,7.06a46.29,46.29,0,0,0,10,.26S532.58,131.91,519.21,138.32Z" style="fill:#fff"></path><path d="M503.36,116.44s4.88,6.33,11.08,7.06a46.29,46.29,0,0,0,10,.26S516.74,110,503.36,116.44Z" style="fill:#fff"></path><path d="M466.05,112.1s4.88,6.33,11.08,7.06a46.29,46.29,0,0,0,10,.26S479.43,105.69,466.05,112.1Z" style="fill:#fff"></path><polygon points="618.08 169.1 588.54 175.49 623.79 131.56 575.65 176.44 575.35 179.55 573.2 132.38 569.8 206.89 522.33 162.63 557.58 206.56 528.04 200.17 565.39 216.28 569.16 220.98 562.59 467.5 583.81 467.5 575.88 191.25 580.73 185.21 618.08 169.1" style="fill:#a3a3a3"></polygon></g></svg>