<svg xmlns="http://www.w3.org/2000/svg" viewBox="545.2 148.61 97.5 319.54"><g id="freepik--character-4--inject-62"><path d="M555.55,219.19s-3.08,2.23-4.1,9.75,1.36,17.77,1.54,19.48-5.82,21.37-6,25.13,3.93,5.64,7.18,6,6.5-5.29,6.5-5.29a105.26,105.26,0,0,0,1.71-16.07c0-7-4.11-13.34-4.11-21s1.71-14.87,1-16.92S555.55,219.19,555.55,219.19Z" style="fill:#407BFF"/><path d="M554.46,280.05l-.33,0c-3.8-.4-7.8-2.6-7.63-6.5.1-2.07,1.81-8.45,3.46-14.63,1.22-4.56,2.6-9.72,2.53-10.43,0-.3-.15-1-.3-1.8-.67-3.78-2.08-11.64-1.24-17.8,1-7.65,4.17-10,4.31-10.08l.13-.07a6.45,6.45,0,0,1,1.78-.28,2.49,2.49,0,0,1,2.62,1.62c.38,1.14.11,3.46-.25,6.67a91.17,91.17,0,0,0-.75,10.41,37.38,37.38,0,0,0,2.1,10.87c1,3.42,2,6.66,2,10.16a106.13,106.13,0,0,1-1.72,16.16.39.39,0,0,1-.06.15C561,274.72,557.87,280.05,554.46,280.05Zm1.33-60.41c-.41.36-2.95,2.76-3.85,9.36-.81,6,.57,13.76,1.23,17.49.16.89.28,1.54.31,1.88.09.85-.91,4.65-2.56,10.79-1.56,5.84-3.33,12.45-3.42,14.41-.17,3.75,4.33,5.21,6.74,5.47s5.06-3.44,6-5a104.55,104.55,0,0,0,1.69-15.89c0-3.35-.95-6.52-2-9.88a38.38,38.38,0,0,1-2.14-11.15,92.38,92.38,0,0,1,.76-10.52c.32-2.85.6-5.31.29-6.24C558.37,219,556.23,219.52,555.79,219.64Z" style="fill:#263238"/><path d="M614.54,290.41s10.85,42.76,10.42,45.74-11.27,4.68-11.27,4.68L609.64,294Z" style="fill:#263238"/><path d="M613.69,341.33a.49.49,0,0,1-.31-.11.48.48,0,0,1-.19-.35l-4-46.8a.51.51,0,0,1,.2-.45l4.89-3.61a.5.5,0,0,1,.78.28c1.11,4.38,10.86,42.94,10.44,45.93-.46,3.18-9.82,4.81-11.7,5.1Zm-3.52-47.07,4,46c4.07-.7,10.07-2.35,10.33-4.17.29-2.09-5.89-27.67-10.24-44.83Z" style="fill:#263238"/><path d="M571.24,449.66s-4.14,3.7-6.1,5.23-5.23,4.36-8.5,5.45-5,1.74-4.8,3.49.22,3.49,1.31,3.7,40.33,0,40.33,0,1.09-1.74.87-5.66a22.64,22.64,0,0,0-1.52-7s-10-2.84-14.39-5.23S571.24,449.66,571.24,449.66Z" style="fill:#fff"/><path d="M564.56,468.13c-6.25,0-11.11,0-11.51-.11-1.29-.25-1.45-1.77-1.62-3.37,0-.25,0-.5-.09-.76-.27-2.22,2-3,5.14-4,2.75-.92,5.49-3.1,7.49-4.7l.86-.67c1.93-1.5,6-5.18,6.08-5.22h0c.13-.1,3.15-2.58,7.76,0,4.26,2.34,14.18,5.16,14.28,5.19a.49.49,0,0,1,.33.28,23.4,23.4,0,0,1,1.56,7.15c.23,4-.9,5.88-.94,6a.52.52,0,0,1-.43.23C590.92,468.05,575.59,468.13,564.56,468.13Zm7-18.09c-.26.22-4.19,3.74-6.12,5.24l-.86.68c-2.06,1.64-4.88,3.88-7.8,4.85-3.36,1.12-4.62,1.67-4.45,3,0,.26.06.52.08.77.13,1.23.26,2.39.83,2.5,1.1.17,28.89.06,39.92,0a11.17,11.17,0,0,0,.68-5.15,22.35,22.35,0,0,0-1.4-6.59c-1.57-.45-10.21-3-14.25-5.21S571.73,449.9,571.57,450Z" style="fill:#263238"/><path d="M594.13,465.57H552c.15,1,.39,1.82,1.11,2,1.09.22,40.33,0,40.33,0A6.35,6.35,0,0,0,594.13,465.57Z" style="fill:#fff"/><path d="M564.56,468.13c-6.25,0-11.11,0-11.51-.11-1.19-.23-1.4-1.68-1.5-2.38a.51.51,0,0,1,.49-.57h42.09a.51.51,0,0,1,.39.19.49.49,0,0,1,.1.41,7,7,0,0,1-.71,2.12.5.5,0,0,1-.43.24C590.92,468.05,575.59,468.13,564.56,468.13Zm-11.92-2.06c.14.62.33.92.61,1,1.1.17,28.89.06,39.92,0a6.51,6.51,0,0,0,.33-1Z" style="fill:#263238"/><path d="M558.38,301a140.65,140.65,0,0,0,0,37.29c2.83,19,5.89,32.48,5.89,32.48s4.36,19,4.79,25.07,4.58,38.38,4.36,39a12.75,12.75,0,0,0-.65,3.27c0,1.09-2.84,2.62-2.4,3.93a66.7,66.7,0,0,1,.87,7.63s5-.88,7.2,0,12,4.36,12,4.36l2.4.87a6.92,6.92,0,0,0,2.61-5c0-3.05-3.92-6.54-3.92-6.54s2.62-1.09,2.83-2.18-1.09-5-1.09-5.66-.43-7.2-.43-8.51.22-17.88.22-19.84-2-32.05-2-32.05l-2.18-21.8s5.24,24.64,7.42,32.49,8.5,40.77,8.72,41.86,1.09,9.59.87,10.24-2.62,2.18-2.4,3.06,1.74,11.77,1.74,11.77L621,454a54.4,54.4,0,0,0,2.62-5.67c.87-2.4-.66-4.58-.66-5.45s1.31-.66.88-4.14-.88-6.33-.88-6.33-1.09-1.74-1.3-7.85,3.27-22.89.87-32.48S617.25,374.44,617,364s-.22-30.08-1.09-35.32-2.27-21.59-2.27-21.59l-.57-2.39Z" style="fill:#8c8c8c"/><path d="M592.83,455.39a.47.47,0,0,1-.17,0l-2.4-.87c-.4-.14-9.84-3.5-12-4.37s-6.87,0-6.92,0a.49.49,0,0,1-.4-.1.52.52,0,0,1-.19-.36,63.74,63.74,0,0,0-.84-7.51c-.34-1,.57-2,1.38-2.79.42-.43,1-1,1-1.29a13.16,13.16,0,0,1,.68-3.43c0-.59-1-9.12-2-17.37-1.08-9.05-2.2-18.41-2.42-21.46-.42-6-4.74-24.81-4.78-25s-3.09-13.75-5.89-32.52,0-37.25,0-37.43a.47.47,0,0,1,.52-.42l54.73,3.7a.5.5,0,0,1,.45.39l.57,2.38c0,.24,1.41,16.48,2.27,21.63.67,4,.83,16,1,26.52.05,3.27.09,6.34.14,8.87.17,8.25,2,15.05,3.92,22.24.51,1.89,1,3.8,1.51,5.78,1.62,6.47.62,16-.19,23.61a77.41,77.41,0,0,0-.66,9c.2,5.81,1.22,7.59,1.23,7.6a.44.44,0,0,1,.07.19s.44,2.88.87,6.33c.3,2.39-.17,3.22-.67,3.86-.16.2-.19.25-.19.35a3.86,3.86,0,0,0,.27.93,6.67,6.67,0,0,1,.35,4.69,56.12,56.12,0,0,1-2.65,5.73.49.49,0,0,1-.48.27l-15.7-1.31a.5.5,0,0,1-.45-.43c-.42-3-1.56-11-1.73-11.72s.69-1.65,1.56-2.46a5.92,5.92,0,0,0,.85-.88c.14-.7-.66-8.82-.89-10l-.22-1.12c-4.21-21.68-7.23-36.13-8.5-40.7-1.33-4.8-3.82-16-5.55-23.87l1.3,13c.08,1.25,2,30.15,2,32.1,0,1.09-.07,6.64-.13,11.55,0,4-.09,7.7-.09,8.29,0,.75.15,3.34.27,5.42.1,1.74.16,2.81.16,3.09a15.67,15.67,0,0,0,.38,1.62,12.81,12.81,0,0,1,.7,4.14c-.19,1-1.55,1.78-2.44,2.23,1.11,1.12,3.54,3.85,3.54,6.4a7.39,7.39,0,0,1-2.81,5.41A.49.49,0,0,1,592.83,455.39Zm-17.25-6.62a8.66,8.66,0,0,1,3,.42c2.15.86,11.88,4.32,12,4.36l2.13.77a6.3,6.3,0,0,0,2.21-4.44c0-2.8-3.72-6.14-3.75-6.17a.5.5,0,0,1-.16-.46.49.49,0,0,1,.3-.38c.95-.4,2.42-1.25,2.53-1.81a15.21,15.21,0,0,0-.69-3.7,10.55,10.55,0,0,1-.41-1.87c0-.26-.08-1.61-.16-3-.13-2.2-.27-4.7-.27-5.48,0-.59,0-4.26.09-8.31.06-4.9.13-10.45.13-11.53,0-1.92-1.95-31.71-2-32l-2.17-21.78a.5.5,0,0,1,1-.15c.05.24,5.26,24.71,7.41,32.45,1.27,4.6,4.3,19.08,8.51,40.78l.22,1.12c.16.8,1.14,9.64.85,10.5a3.88,3.88,0,0,1-1.11,1.29c-.39.36-1.29,1.2-1.27,1.49.2.8,1.41,9.43,1.69,11.42l15,1.25a50.89,50.89,0,0,0,2.44-5.31,5.74,5.74,0,0,0-.35-4,4,4,0,0,1-.33-1.27,1.47,1.47,0,0,1,.4-1c.31-.39.74-.94.47-3.11-.39-3.11-.78-5.73-.86-6.23s-1.13-2.54-1.32-8a76.91,76.91,0,0,1,.67-9.11c.79-7.56,1.79-17,.21-23.27-.49-2-1-3.88-1.5-5.76-2-7.25-3.79-14.11-4-22.48,0-2.53-.09-5.6-.14-8.87-.13-10-.29-22.45-.95-26.37-.86-5.2-2.26-21.48-2.27-21.64l-.47-2-53.89-3.64a141,141,0,0,0,.06,36.67c2.8,18.74,5.85,32.32,5.88,32.45.18.78,4.38,19.08,4.81,25.15.22,3,1.33,12.37,2.41,21.41,1.74,14.61,2,17.44,1.93,17.81a12,12,0,0,0-.63,3.11c0,.69-.62,1.32-1.27,2s-1.3,1.33-1.15,1.78a55.61,55.61,0,0,1,.85,7.21A27.9,27.9,0,0,1,575.58,448.77Z" style="fill:#263238"/><path d="M588.25,351.39a.49.49,0,0,1-.49-.41L585,335.32l-8.05-3.82a.49.49,0,0,1-.24-.66.5.5,0,0,1,.66-.24l8.29,3.92a.51.51,0,0,1,.28.37l2.83,15.91a.49.49,0,0,1-.4.58Z" style="fill:#263238"/><path d="M607,449.44a46.79,46.79,0,0,1-3,8.07c-1.53,2.61-3.93,4.14-4.58,5.66a11.89,11.89,0,0,0-.44,4.36h23.33s1.74-2.18,1.74-7.41-2-7.85-3.7-10.9S612.67,444,607,449.44Z" style="fill:#fff"/><path d="M622.26,468H598.93a.5.5,0,0,1-.5-.46,12.19,12.19,0,0,1,.48-4.59,9.09,9.09,0,0,1,1.93-2.44,17.06,17.06,0,0,0,2.67-3.29,46.13,46.13,0,0,0,3-7.95.5.5,0,0,1,.13-.22c2.72-2.62,5.87-3.83,8.86-3.39a7.19,7.19,0,0,1,5.22,3.28l.63,1.07c1.55,2.63,3.15,5.34,3.15,10.08,0,5.35-1.78,7.63-1.86,7.73A.52.52,0,0,1,622.26,468Zm-22.85-1H622c.38-.61,1.51-2.78,1.51-6.91,0-4.47-1.47-6.95-3-9.57l-.64-1.08a6.21,6.21,0,0,0-4.49-2.8c-2.65-.37-5.45.7-7.93,3a45.29,45.29,0,0,1-3.06,8.05,17.84,17.84,0,0,1-2.82,3.47,8.64,8.64,0,0,0-1.73,2.14A10.07,10.07,0,0,0,599.41,467Z" style="fill:#263238"/><path d="M623.5,464.57l-.37-.09H599a15.74,15.74,0,0,0-.1,3h23.33A8.58,8.58,0,0,0,623.5,464.57Z" style="fill:#fff"/><path d="M622.26,468H598.93a.5.5,0,0,1-.5-.46,16.9,16.9,0,0,1,.1-3.16.51.51,0,0,1,.5-.43h24.1l.12,0,.36.08a.48.48,0,0,1,.31.23.5.5,0,0,1,.06.38,9,9,0,0,1-1.32,3.15A.51.51,0,0,1,622.26,468Zm-22.85-1H622a8.37,8.37,0,0,0,.87-2H599.47A13.73,13.73,0,0,0,599.41,467Z" style="fill:#263238"/><path d="M573.37,207.24s-4.32,4.43-7.73,6.31-9.06,3.59-10.09,5.64-2.22,16.24-.68,23.59a98.23,98.23,0,0,0,3.41,12.48l1.2,27.18L557.6,303.3s20.68,2.73,33.85,4.27,22.22-.51,22.22-.51.68-12.48.85-19S615,251,615,251l10.42,17.43s5.47,1.71,9.23.52,6.16-3.08,5.3-7.35S627.86,232,627.86,232s-4.45-13.33-7.87-16.75-8-4.27-13-4.95-13.13-4.07-13.13-4.07Z" style="fill:#407BFF"/><path d="M601.15,308.64a86.14,86.14,0,0,1-9.76-.57c-13-1.53-33.65-4.25-33.85-4.28a.5.5,0,0,1-.44-.54L559,282.4l-1.19-27a101.53,101.53,0,0,1-3.41-12.47c-1.51-7.21-.42-21.64.72-23.92.77-1.54,3.56-2.77,6.52-4.07,1.31-.58,2.68-1.18,3.77-1.79,3.32-1.82,7.57-6.18,7.62-6.22a.49.49,0,0,1,.33-.15l20.51-1a.49.49,0,0,1,.21,0c.08,0,8.17,3.36,13,4,5.19.72,9.77,1.59,13.28,5.1s7.8,16.4,8,17c.44,1,11.3,25.35,12.15,29.63,1,5.11-2.47,6.92-5.63,7.92-3.87,1.23-9.31-.44-9.54-.51a.54.54,0,0,1-.28-.22l-9.51-15.92c-.08,6.63-.35,29.82-.5,35.33-.17,6.43-.85,18.87-.85,19a.49.49,0,0,1-.39.46A63.12,63.12,0,0,1,601.15,308.64Zm-43-5.78c3.18.42,21.46,2.82,33.36,4.21a74.27,74.27,0,0,0,21.69-.43c.12-2.15.68-12.8.83-18.57.17-6.42.51-36.78.52-37.09a.5.5,0,0,1,.92-.25L625.79,268c1,.27,5.56,1.47,8.75.46,4.22-1.34,5.66-3.3,5-6.78-.83-4.17-12-29.21-12.1-29.46s-4.46-13.31-7.76-16.6-7.7-4.13-12.71-4.82c-4.72-.65-12.14-3.64-13.15-4.05l-20.19,1a42.44,42.44,0,0,1-7.71,6.26c-1.14.63-2.52,1.23-3.86,1.82-2.54,1.12-5.41,2.39-6,3.61-1,1.89-2.16,16-.64,23.26a98.23,98.23,0,0,0,3.4,12.41l0,.15L560,282.42Z" style="fill:#263238"/><path d="M558.84,173.35s.43,14.81,1,17.23,4.55,7.4,6.26,9.68,5.27,2.85,5.7,2.85,1.57,1.71,1.57,4.13-1,2.85-.86,9.82a100.35,100.35,0,0,0,1.14,13s4.13-2.7,11.25-10.39,9-13.39,9-13.39a16.39,16.39,0,0,1-4.13-6.12c-1-3.28-.85-11.54-.85-11.54s5.12-4,5.41-6.26-1.85-6.55-1.85-6.55S590,167.22,587.32,163s-3.13-6.41-12.1-4-12.11,3-15,5.13a8.2,8.2,0,0,0-3.27,4.7Z" style="fill:#fff"/><path d="M573.65,230.52a.45.45,0,0,1-.2,0,.48.48,0,0,1-.29-.37,101.8,101.8,0,0,1-1.15-13,29.79,29.79,0,0,1,.58-7.7,9.61,9.61,0,0,0,.28-2.13,5.4,5.4,0,0,0-1.15-3.64c-.74,0-4.24-.67-6-3l-.75-1c-2-2.65-5.08-6.66-5.6-8.87-.56-2.37-1-15.88-1-17.24L556.53,169a.42.42,0,0,1,0-.27,8.56,8.56,0,0,1,3.46-5c2.48-1.86,5.06-2.54,11.29-4.19l3.84-1c8.3-2.24,9.62-.72,12.06,3.25l.59,1c2.72,4.29,5.09,12.6,5.19,12.95.05.09,2.17,4.35,1.87,6.75-.28,2.23-4.37,5.62-5.42,6.45,0,1.36,0,8.28.84,11.14a15.92,15.92,0,0,0,4,5.9.52.52,0,0,1,.14.53c-.08.23-2,5.88-9.08,13.57s-11.18,10.36-11.35,10.47A.43.43,0,0,1,573.65,230.52Zm-16.14-61.78,1.79,4.42a.33.33,0,0,1,0,.17c0,.15.43,14.79,1,17.13.48,2,3.57,6.07,5.42,8.5l.76,1c1.56,2.08,4.91,2.65,5.3,2.65.91,0,2.07,2.18,2.07,4.63a10.38,10.38,0,0,1-.3,2.34,28.29,28.29,0,0,0-.56,7.47,102.81,102.81,0,0,0,1,12.09,81.93,81.93,0,0,0,10.51-9.85c6.07-6.56,8.28-11.67,8.76-12.91a16.23,16.23,0,0,1-4-6.12c-1-3.31-.88-11.34-.87-11.69a.47.47,0,0,1,.19-.38c1.38-1.08,5-4.24,5.22-5.94.27-2.1-1.78-6.22-1.8-6.26s-2.47-8.61-5.1-12.77l-.6-1c-2.15-3.49-3-4.94-10.95-2.8l-3.84,1c-6.1,1.61-8.63,2.28-11,4A8,8,0,0,0,557.51,168.74Z" style="fill:#263238"/><path d="M571.8,203.11a36.74,36.74,0,0,0,4.27-.71c1.57-.43,3.7-1.29,3.7-1.29l-6.4,6.13Z" style="fill:#263238"/><path d="M573.37,207.74h-.11a.51.51,0,0,1-.36-.31l-1.57-4.13a.52.52,0,0,1,0-.44.49.49,0,0,1,.38-.24,33.05,33.05,0,0,0,4.19-.7c1.52-.41,3.63-1.25,3.65-1.26a.49.49,0,0,1,.6.19.51.51,0,0,1-.07.64l-6.41,6.12A.49.49,0,0,1,573.37,207.74Zm-.88-4.21,1.08,2.83,4.12-3.94c-.5.17-1,.33-1.49.46A29.69,29.69,0,0,1,572.49,203.53Z" style="fill:#263238"/><path d="M567.76,191.34a2.87,2.87,0,0,1-2.22-1.35.5.5,0,1,1,.84-.54h0c0,.05.8,1.21,1.82.8a14.5,14.5,0,0,0,3.26-2.32.5.5,0,0,1,.71,0,.5.5,0,0,1,0,.7,15.38,15.38,0,0,1-3.57,2.52A2.2,2.2,0,0,1,567.76,191.34Z" style="fill:#263238"/><path d="M568.84,194.26a6.51,6.51,0,0,1-1-.06.48.48,0,0,1-.42-.56.5.5,0,0,1,.56-.43,8.35,8.35,0,0,0,7.64-3.35.5.5,0,0,1,.82.58A9.17,9.17,0,0,1,568.84,194.26Z" style="fill:#263238"/><path d="M569.8,178.83a.51.51,0,0,1-.48-.37.5.5,0,0,1,.35-.61c.19-.06,4.78-1.32,7.35,0a.49.49,0,0,1,.2.67.49.49,0,0,1-.67.21c-2.22-1.17-6.57,0-6.61,0Z" style="fill:#263238"/><path d="M560,179.68a.5.5,0,0,1-.31-.1.51.51,0,0,1-.09-.7c1.35-1.76,3.55-1,4.52-.4a.5.5,0,0,1-.55.84c-.08,0-2-1.29-3.17.17A.5.5,0,0,1,560,179.68Z" style="fill:#263238"/><path d="M564.79,182.63c.11.94-.2,1.75-.7,1.81s-1-.65-1.11-1.59.2-1.76.7-1.82S564.67,181.69,564.79,182.63Z" style="fill:#263238"/><path d="M575.55,182.07c.11.94-.2,1.75-.7,1.81s-1-.66-1.11-1.6.2-1.75.7-1.81S575.44,181.13,575.55,182.07Z" style="fill:#263238"/><path d="M579.49,164.52s-4.84,3.7-6.41,4-7.12-1.56-9.11-1.71-5.7,2.85-5.7,2.85l.57,3.71s-5.41-1.29-6.55-3.42,2.7-5,2.56-5.7-2.13-3.42-.71-4.27a70.11,70.11,0,0,1,7.69-2.85s3.28-6.83,5.55-7a34.91,34.91,0,0,1,6.55.72,6.66,6.66,0,0,1,5-1.71c2.7.42,6.69,5.41,6.69,5.41s6-.57,7.12,2,2.28,6,1.43,8.69a75.71,75.71,0,0,0-1.71,8.4v2.14a9,9,0,0,0-3.56,1.42c-1.14,1-1,1.85-1.85,2.56s-1.29.72-1.86.43-.85-1.14-1.13-2.85-.57-2.13-1.71-2.56a10.14,10.14,0,0,1-3.85-2.56c-1.14-1.29-2.56-2.42-1.71-3.56S579.49,164.52,579.49,164.52Z" style="fill:#263238"/><path d="M585.82,180.86a1.91,1.91,0,0,1-.86-.23c-.8-.4-1.11-1.44-1.41-3.22-.27-1.61-.49-1.83-1.39-2.17a10.64,10.64,0,0,1-4-2.7l-.53-.58c-1-1.08-2.18-2.32-1.21-3.61.33-.44.81-1.16,1.28-1.88a17.49,17.49,0,0,1-4.49,2.53c-1,.18-3.19-.36-5.5-.92a29,29,0,0,0-3.74-.79c-1.36-.09-4,1.68-5.12,2.56l.52,3.42a.5.5,0,0,1-.61.56c-.57-.13-5.66-1.4-6.87-3.67-.92-1.72.69-3.65,1.76-4.93a5.37,5.37,0,0,0,.75-1s-.19-.36-.34-.64c-.59-1.19-1.6-3.18-.14-4.06a65.2,65.2,0,0,1,7.59-2.83c.75-1.53,3.55-6.92,5.88-7.07a32.66,32.66,0,0,1,6.44.68,7,7,0,0,1,5.21-1.67c2.56.41,6,4.41,6.83,5.39,1.32-.1,6.22-.26,7.36,2.31,1.69,3.8,2.16,6.76,1.44,9a78.73,78.73,0,0,0-1.69,8.32v2.07a.5.5,0,0,1-.42.49,8.47,8.47,0,0,0-3.31,1.31,3.7,3.7,0,0,0-1,1.31,3.48,3.48,0,0,1-.9,1.26A2.51,2.51,0,0,1,585.82,180.86ZM579.49,164a.46.46,0,0,1,.33.13.49.49,0,0,1,.09.63c-.07.12-1.87,3-2.73,4.17-.42.56.05,1.17,1.13,2.33.19.19.37.39.56.59a9.77,9.77,0,0,0,3.64,2.43c1.4.53,1.74,1.2,2,2.95.18,1.11.43,2.26.87,2.48s.54.28,1.31-.36a2.65,2.65,0,0,0,.65-.93,4.66,4.66,0,0,1,1.19-1.63,8.52,8.52,0,0,1,3.39-1.45v-1.73a73.84,73.84,0,0,1,1.73-8.55c.63-2,.16-4.81-1.4-8.34-.82-1.83-5-1.84-6.62-1.7a.5.5,0,0,1-.44-.18c-1.07-1.34-4.32-4.9-6.38-5.23-2.42-.39-4.54,1.56-4.56,1.58a.51.51,0,0,1-.44.13,35,35,0,0,0-6.42-.71c-1.45.09-3.92,4.16-5.14,6.7a.51.51,0,0,1-.3.26,71.22,71.22,0,0,0-7.58,2.8c-.67.4.07,1.87.52,2.75a4.57,4.57,0,0,1,.42,1c.1.48-.3,1-1,1.74-.9,1.08-2.25,2.7-1.65,3.82.73,1.37,3.75,2.48,5.5,3l-.45-2.95a.5.5,0,0,1,.18-.47c.39-.31,3.91-3.13,6-2.95a29.43,29.43,0,0,1,3.91.8c1.91.47,4.28,1.06,5.08.91,1.06-.19,4.29-2.43,6.19-3.89A.5.5,0,0,1,579.49,164Z" style="fill:#263238"/><path d="M563.24,265.52s7.18-15.39,7.87-15.39,10.08,3.76,10.25,4.62A40.58,40.58,0,0,1,580,263c-.34.52-1,2.05-1.88,2.4s-3.76,1-3.76,1a5.66,5.66,0,0,1-2.39,3.08,29.13,29.13,0,0,1-5.64,1.54s-6,9.57-6.84,11.45-4.27,4.62-8,3.08-7.52-9.23-4.79-14.36a10.28,10.28,0,0,1,9.23-5.81C557.94,265.35,563.24,265.52,563.24,265.52Z" style="fill:#fff"/><path d="M553.69,286.47a6.35,6.35,0,0,1-2.43-.49c-2.07-.85-4.12-3.37-5.23-6.44a10.59,10.59,0,0,1,9.86-14.69c1.74,0,5.85.12,7,.16,7.18-15.38,7.8-15.38,8.18-15.38.09,0,10.45,3.54,10.74,5a37.73,37.73,0,0,1-1.44,8.58c-.07.11-.15.26-.25.43a4.73,4.73,0,0,1-1.86,2.15c-.73.29-2.82.81-3.57,1a5.88,5.88,0,0,1-2.55,3.1,26.67,26.67,0,0,1-5.55,1.54c-.84,1.35-5.93,9.52-6.69,11.21A7.34,7.34,0,0,1,553.69,286.47Zm2.2-20.62A9.59,9.59,0,0,0,547,279.2c1,2.77,2.87,5.12,4.67,5.85a6,6,0,0,0,7.39-2.82c.85-1.88,6.62-11.11,6.87-11.51a.45.45,0,0,1,.33-.22,29.15,29.15,0,0,0,5.51-1.5,5.15,5.15,0,0,0,2.14-2.78.5.5,0,0,1,.36-.33s2.88-.68,3.69-1c.5-.2,1-1.15,1.36-1.71.11-.2.21-.37.29-.49a47,47,0,0,0,1.3-7.77c-.8-.84-8.15-3.88-9.63-4.24-1,1.22-5.08,9.75-7.55,15.06a.47.47,0,0,1-.47.29C563.17,266,557.91,265.85,555.89,265.85Zm25-10.9Z" style="fill:#263238"/><path d="M555.89,265.35a10.28,10.28,0,0,0-9.23,5.81c-2.73,5.13,1,12.82,4.79,14.36s7.18-1.2,8-3.08c-2.73.51-9.57,0-8.89-8S555.89,265.35,555.89,265.35Z" style="fill:#407BFF"/><path d="M553.69,286.47a6.35,6.35,0,0,1-2.43-.49c-2.07-.85-4.12-3.37-5.23-6.44a10.59,10.59,0,0,1,9.86-14.69.5.5,0,0,1,.11,1c-.19.05-4.27,1.11-4.91,8.62-.23,2.67.39,4.68,1.83,6,2,1.79,5,1.79,6.47,1.52a.5.5,0,0,1,.55.7A7.34,7.34,0,0,1,553.69,286.47Zm-.18-20.32a10,10,0,0,0-6.41,5.24,9.77,9.77,0,0,0-.13,7.81c1,2.77,2.87,5.12,4.67,5.85a6,6,0,0,0,6.87-2,8.69,8.69,0,0,1-6.26-1.89c-1.69-1.52-2.41-3.81-2.16-6.81C550.48,269.8,552.1,267.4,553.51,266.15Z" style="fill:#263238"/><path d="M580.51,259a.46.46,0,0,1-.23-.06l-8.21-4.27a.5.5,0,0,1,.46-.89l8.21,4.28a.5.5,0,0,1-.23.94Z" style="fill:#263238"/><polygon points="575.55 261.42 569.57 260.05 567.35 291.33 608.2 301.93 609.74 272.7 575.55 261.42" style="fill:#fff"/><path d="M608.2,302.43l-.13,0-40.85-10.6a.5.5,0,0,1-.37-.52L569.07,260a.47.47,0,0,1,.2-.36.5.5,0,0,1,.41-.09l6,1.37h.05l34.18,11.28a.5.5,0,0,1,.35.5L608.7,302a.49.49,0,0,1-.21.38A.51.51,0,0,1,608.2,302.43ZM567.87,291l39.86,10.34,1.49-28.24-33.8-11.15-5.4-1.23Z" style="fill:#263238"/><polygon points="572.64 259.02 566.32 289.11 608.2 301.93 613.67 271.67 572.64 259.02" style="fill:#263238"/><path d="M608.2,302.43l-.15,0-41.88-12.82a.52.52,0,0,1-.34-.59l6.32-30.08a.51.51,0,0,1,.64-.38l41,12.65a.5.5,0,0,1,.34.57L608.69,302a.46.46,0,0,1-.23.33A.5.5,0,0,1,608.2,302.43Zm-41.3-13.67,40.91,12.53L613.1,272,573,259.66Z" style="fill:#263238"/><path d="M629.74,260.73a14.48,14.48,0,0,0-5.13,2.74c-2.05,1.88-11.45,12.13-15.73,16.06s-3.59,3.77-6.84,5.13L598.8,286s-5-1.88-6.16-1.54-2.73,1-3.59,1.2-3.93.51-4.78.17-3.42,1-.17,2.56a10.11,10.11,0,0,0,5.81,1s-3.42,4.27-4.79,6.15-.68,2.4.34,2.57a9.33,9.33,0,0,0,2.91-.34s2.39,1,4.1,1.53a5.63,5.63,0,0,0,4.1.17c1.54-.51,7.53-5.81,8.21-6.15s16.24-8.72,19.32-10.77,16.92-13,17.77-14.87,0-3.59-.51-4.79a29.35,29.35,0,0,0-2.22-3.59" style="fill:#407BFF"/><path d="M594.89,300.34a8.89,8.89,0,0,1-2.56-.5c-1.48-.44-3.43-1.25-4-1.49a8.77,8.77,0,0,1-3,.31,1.78,1.78,0,0,1-1.43-.9c-.25-.61,0-1.39.77-2.45,1-1.34,3-3.92,4.08-5.28h0a11.52,11.52,0,0,1-4.91-1.15c-2.07-1-2-2-1.78-2.49a2.05,2.05,0,0,1,2.35-1,15.61,15.61,0,0,0,4.51-.2,16.77,16.77,0,0,0,1.77-.58c.6-.22,1.22-.45,1.78-.61,1.22-.35,5.11,1.05,6.28,1.48l3.06-1.29a10.27,10.27,0,0,0,4.51-3c.55-.53,1.25-1.19,2.18-2.05,2.5-2.3,6.82-6.84,10.3-10.48,2.45-2.58,4.57-4.81,5.43-5.59a14.9,14.9,0,0,1,5.33-2.85.5.5,0,1,1,.27,1,14.06,14.06,0,0,0-4.92,2.62c-.84.77-3,3-5.39,5.55-3.48,3.65-7.81,8.2-10.34,10.52-.93.86-1.62,1.52-2.17,2a11.11,11.11,0,0,1-4.81,3.18L599,286.49a.52.52,0,0,1-.37,0c-2-.76-5.13-1.73-5.84-1.53-.52.15-1.12.37-1.71.59a13.85,13.85,0,0,1-1.92.62c-.64.13-4,.57-5.07.14a1.14,1.14,0,0,0-1.06.47c-.11.23.25.69,1.29,1.18a9.83,9.83,0,0,0,5.5,1,.51.51,0,0,1,.53.23.51.51,0,0,1,0,.57s-3.43,4.29-4.77,6.14c-.77,1.05-.68,1.42-.65,1.48s.15.21.67.29a8.2,8.2,0,0,0,2.69-.33.47.47,0,0,1,.33,0s2.38,1,4,1.51a5.26,5.26,0,0,0,3.8.18c.91-.3,4-2.8,5.79-4.29a24.8,24.8,0,0,1,2.35-1.84c.63-.31,16.19-8.68,19.26-10.73s16.83-13,17.6-14.67.08-3-.42-4.15l-.1-.23a27.49,27.49,0,0,0-2.17-3.49.5.5,0,0,1,.12-.7.51.51,0,0,1,.7.11,29.14,29.14,0,0,1,2.27,3.69l.1.23a5.84,5.84,0,0,1,.41,5c-1,2.11-15.33,13.32-18,15.08-3.09,2.06-18.73,10.48-19.37,10.8-.2.1-1.2.92-2.16,1.71-2.75,2.25-5.1,4.13-6.11,4.47A5.69,5.69,0,0,1,594.89,300.34Z" style="fill:#263238"/><path d="M608.88,279.53c-4.27,3.94-3.59,3.77-6.84,5.13L598.8,286s-5-1.88-6.16-1.54-2.73,1-3.59,1.2-3.93.51-4.78.17-3.42,1-.17,2.56a10.11,10.11,0,0,0,5.81,1s-3.42,4.27-4.79,6.15-.68,2.4.34,2.57a9.33,9.33,0,0,0,2.91-.34s2.39,1,4.1,1.53a5.63,5.63,0,0,0,4.1.17c1.54-.51,7.53-5.81,8.21-6.15s11.15-6,16.63-9.14c-2.27-7.25-5-9.75-6.63-10.59C612.54,276,610.39,278.15,608.88,279.53Z" style="fill:#fff"/><path d="M594.89,300.34a8.89,8.89,0,0,1-2.56-.5c-1.48-.44-3.43-1.25-4-1.49a8.77,8.77,0,0,1-3,.31,1.78,1.78,0,0,1-1.43-.9c-.25-.61,0-1.39.77-2.45,1-1.34,3-3.92,4.08-5.28h0a11.52,11.52,0,0,1-4.91-1.15c-2.07-1-2-2-1.78-2.49a2.05,2.05,0,0,1,2.35-1,15.61,15.61,0,0,0,4.51-.2,16.77,16.77,0,0,0,1.77-.58c.6-.22,1.22-.45,1.78-.61,1.22-.35,5.11,1.05,6.28,1.48l3.06-1.29a10.27,10.27,0,0,0,4.51-3c.55-.53,1.25-1.19,2.18-2.05h0c1.31-1.2,3.17-3.07,5.88-5.87a.49.49,0,0,1,.59-.09c1.55.82,4.51,3.32,6.87,10.88a.5.5,0,0,1-.22.58c-5.42,3.13-16,8.84-16.66,9.16-.2.1-1.2.92-2.16,1.71-2.75,2.25-5.1,4.13-6.11,4.47A5.69,5.69,0,0,1,594.89,300.34Zm-6.52-3a.45.45,0,0,1,.2,0s2.38,1,4,1.51a5.26,5.26,0,0,0,3.8.18c.91-.3,4-2.8,5.79-4.29a24.8,24.8,0,0,1,2.35-1.84c.61-.3,10.75-5.76,16.25-8.93-2.07-6.41-4.49-8.82-5.94-9.72-2.57,2.66-4.37,4.45-5.65,5.62h0c-.93.86-1.62,1.52-2.17,2a11.11,11.11,0,0,1-4.81,3.18L599,286.49a.52.52,0,0,1-.37,0c-2-.76-5.13-1.73-5.84-1.53-.52.15-1.12.37-1.71.59a13.85,13.85,0,0,1-1.92.62c-.64.13-4,.57-5.07.14a1.14,1.14,0,0,0-1.06.47c-.11.23.25.69,1.29,1.18a9.83,9.83,0,0,0,5.5,1,.51.51,0,0,1,.53.23.51.51,0,0,1,0,.57s-3.43,4.29-4.77,6.14c-.77,1.05-.68,1.42-.65,1.48s.15.21.67.29a8.2,8.2,0,0,0,2.69-.33Zm20.51-17.79h0Z" style="fill:#263238"/><polygon points="605.46 210.48 573.33 250.99 579.48 253.38 612.13 211.67 605.46 210.48" style="fill:#263238"/><path d="M579.48,253.88a.57.57,0,0,1-.18,0l-6.15-2.4a.51.51,0,0,1-.31-.33.5.5,0,0,1,.1-.44l32.13-40.51a.5.5,0,0,1,.48-.19l6.67,1.2a.52.52,0,0,1,.38.31.51.51,0,0,1-.08.49l-32.64,41.71A.53.53,0,0,1,579.48,253.88Zm-5.34-3.11,5.18,2L611.22,212l-5.55-1Z" style="fill:#263238"/><path d="M615,251.49a.41.41,0,0,1-.16,0l-10.6-3.59a.51.51,0,0,1-.32-.63.52.52,0,0,1,.64-.32l9.13,3.1-5.43-7.63a.51.51,0,0,1,.12-.7.5.5,0,0,1,.7.12l6.32,8.89a.5.5,0,0,1,0,.59A.51.51,0,0,1,615,251.49Z" style="fill:#263238"/></g></svg>