<svg xmlns="http://www.w3.org/2000/svg" viewBox="0 0 750 500"><g id="freepik--character-3--inject-62"><path d="M425.55,328.06a.45.45,0,0,1-.27-.08c-.27-.18-6.56-4.39-7.78-6.41s-1.44-10.25-1.44-14.92c0-.92,0-2.55-.07-4.64-.17-8.07-.47-23.08.47-30.41a45.07,45.07,0,0,1,3.41-12.74,10.06,10.06,0,0,0,.69-1.92c.2-1.57,2.15-16.62,2.15-16.62a.51.51,0,0,1,.52-.44l10.75.4a.5.5,0,0,1,.48.5c0,.06,0,6.8-.78,19.18-.41,6.5-2.37,16-4.09,24.43-1.62,7.87-3.15,15.3-3.15,18.94,0,7.37.75,9.58.76,9.6a.47.47,0,0,1,0,.17V316l-1.18,11.59a.51.51,0,0,1-.28.4A.54.54,0,0,1,425.55,328.06Zm-1.91-87.16c-.32,2.52-1.91,14.76-2.09,16.16a9.7,9.7,0,0,1-.75,2.19,43.91,43.91,0,0,0-3.35,12.47C416.52,279,416.82,294,417,302c0,2.1.07,3.73.07,4.66,0,7.66.49,13.05,1.3,14.4s4.69,4.19,6.78,5.63l1.09-10.7v-2.8c-.15-.49-.79-3-.79-9.85,0-3.74,1.54-11.22,3.17-19.14,1.72-8.38,3.67-17.86,4.07-24.29.65-10.48.76-16.9.77-18.64Z" style="fill:#263238"></path><path d="M418.64,464.33s-1.35,2,.41,3.11,9.21,4.47,13.69,3.38,8.4-4.6,13.14-3.79,9.35.13,11.12-1.36a2.4,2.4,0,0,0,.36-3.33,10.06,10.06,0,0,1-4,.76c-2.44,0-13.69.13-17.21,2s-10.58,2.31-14,1.09S418.64,464.33,418.64,464.33Z" style="fill:#407BFF"></path><path d="M430.78,471.53c-4.48,0-10.23-2.58-12-3.67a2.23,2.23,0,0,1-1.09-1.46,3.44,3.44,0,0,1,.52-2.35.49.49,0,0,1,.51-.21.5.5,0,0,1,.37.29c.06.09.58.66,3.24,1.62,3.12,1.12,10,.86,13.55-1.06s15.18-2.09,17.45-2.09a9.75,9.75,0,0,0,3.81-.71.5.5,0,0,1,.61.15,2.86,2.86,0,0,1-.44,4c-2,1.65-6.8,2.27-11.52,1.46-2.87-.5-5.42.69-8.13,1.93a26.26,26.26,0,0,1-4.82,1.86A9.13,9.13,0,0,1,430.78,471.53Zm-12-6.35a1.89,1.89,0,0,0-.11,1,1.33,1.33,0,0,0,.64.82c1.69,1,9,4.38,13.31,3.33a25.89,25.89,0,0,0,4.63-1.79c2.73-1.26,5.55-2.55,8.72-2,5,.85,9.24,0,10.7-1.25a1.79,1.79,0,0,0,.49-2.32,11.55,11.55,0,0,1-3.82.63c-1.37,0-13.42,0-17,2S425.65,468,422,466.69A14.48,14.48,0,0,1,418.78,465.18Z" style="fill:#263238"></path><path d="M437,451.42s0,3.72-5,5.71-13.9,5.21-13.4,7.2,11.41,5.71,16.13,4.22,4.22-3.23,10.92-3.23,10.18.25,11.67-3,1.49-8.68,1.49-8.68Z" style="fill:#fff"></path><path d="M432.07,469.4a28.72,28.72,0,0,1-12-3.12c-1.16-.65-1.79-1.25-1.94-1.83-.51-2,4.6-4.2,11.87-7.06l1.84-.72c4.56-1.83,4.65-5.11,4.65-5.25a.51.51,0,0,1,.16-.37.54.54,0,0,1,.39-.13l21.84,2.24a.49.49,0,0,1,.45.5c0,.22,0,5.6-1.53,8.89s-4.8,3.29-10.79,3.27h-1.34c-4.2,0-5.47.7-7.08,1.58a18.89,18.89,0,0,1-3.69,1.63A9.85,9.85,0,0,1,432.07,469.4ZM437.45,452c-.2,1.18-1.1,4-5.22,5.62l-1.84.73c-3.47,1.36-11.6,4.56-11.27,5.89,0,0,.15.46,1.46,1.19,3.23,1.81,10.48,3.8,14,2.67a18.15,18.15,0,0,0,3.51-1.54c1.73-1,3.1-1.71,7.56-1.71H447c5.74,0,8.62,0,9.88-2.69,1.18-2.56,1.39-6.67,1.43-8Z" style="fill:#263238"></path><path d="M426,459.3s4.07.82,5.69,3a30.35,30.35,0,0,1,3.12,6.26l2.71-1.39a11.28,11.28,0,0,0-1.76-5.82,13.55,13.55,0,0,0-4.74-3.8Z" style="fill:#407BFF"></path><path d="M434.77,469.05a.39.39,0,0,1-.18,0,.52.52,0,0,1-.29-.29,29.93,29.93,0,0,0-3.05-6.14c-1.49-2-5.35-2.78-5.39-2.79a.5.5,0,0,1-.4-.45.51.51,0,0,1,.34-.51l5-1.76a.48.48,0,0,1,.37,0,13.75,13.75,0,0,1,4.94,4,11.69,11.69,0,0,1,1.86,6.12.5.5,0,0,1-.27.45L435,469A.46.46,0,0,1,434.77,469.05Zm-7.14-9.8a9.24,9.24,0,0,1,4.42,2.74,28,28,0,0,1,3,5.86l1.93-1a10.6,10.6,0,0,0-1.66-5.23,13,13,0,0,0-4.37-3.55Z" style="fill:#263238"></path><polygon points="447.24 465.13 452.25 456.19 454.01 456.59 451.3 464.86 447.24 465.13" style="fill:#407BFF"></polygon><path d="M447.24,465.63a.5.5,0,0,1-.42-.23.49.49,0,0,1,0-.51l5-8.95a.5.5,0,0,1,.55-.24l1.76.41a.51.51,0,0,1,.32.24.51.51,0,0,1,0,.4L451.78,465a.51.51,0,0,1-.44.34l-4.07.27Zm5.27-8.87-4.38,7.81,2.8-.19,2.44-7.42Z" style="fill:#263238"></path><path d="M497.54,230s9.09,8.81,12.79,15.35,7.1,10.51,6.53,16.19-.85,5.12-2.27,13.08-2.56,8.24-3.41,8.52-4.55,17.62-6.25,21.88-7.1,7.67-11.65,7.67-9.66-1.7-10.52-1.7,9.1-79.85,9.1-79.85S495,226.34,497.54,230Z" style="fill:#263238"></path><path d="M493.28,313.22a39.87,39.87,0,0,1-8.83-1.34,13.47,13.47,0,0,0-1.69-.36.51.51,0,0,1-.38-.18c-.59-.66,2.43-27.66,9-80.23a.49.49,0,0,1,.08-.21c.07-.11,1.78-2.73,3.89-2.76a3.15,3.15,0,0,1,2.59,1.57c.71.68,9.23,9,12.84,15.42.74,1.31,1.47,2.52,2.16,3.65,2.75,4.55,4.91,8.14,4.44,12.84a51.35,51.35,0,0,1-1.05,6.83c-.3,1.42-.67,3.18-1.23,6.28-1.32,7.4-2.39,8.44-3.63,8.88-.47.77-1.76,5.85-2.8,9.95-1.2,4.74-2.44,9.63-3.26,11.68C503.66,309.57,498.11,313.22,493.28,313.22Zm-10.07-2.65c.32.06.79.17,1.48.34a38.91,38.91,0,0,0,8.59,1.31c4.47,0,9.59-3.37,11.18-7.35.8-2,2-6.85,3.22-11.55,2.39-9.43,2.77-10.43,3.34-10.62s1.73-.58,3.08-8.14c.55-3.12.95-5,1.23-6.32a50.26,50.26,0,0,0,1-6.72c.43-4.37-1.55-7.66-4.31-12.22-.69-1.14-1.42-2.36-2.17-3.68-3.61-6.39-12.61-15.14-12.7-15.23l-.06-.07c-.55-.79-1.14-1.22-1.79-1.18-1.25,0-2.53,1.52-3,2.21C489.73,252.27,483.21,305.72,483.21,310.57Z" style="fill:#263238"></path><path d="M426.73,313.1a309,309,0,0,0,1.59,39.27c2.23,20.36,2,40.72,5,52.88s5,36.49,5.46,38-2.73,2-2.48,3.72.75,6.21.75,6.21,3-.25,9.68,3,11.42,1.74,11.42,1.74.49-3.48.74-4.22a7.13,7.13,0,0,0,.75-5.22c-.75-2.73-2.49-4.47-3-7.44s-2-25.33-2-27.81V397.31c0-1.25,2-52.38,2.23-59.33s.5-24.83.5-24.83Z" style="fill:#263238"></path><path d="M455.14,458.72a19.94,19.94,0,0,1-8.67-2.13c-6.45-3.11-9.4-2.94-9.42-2.93a.51.51,0,0,1-.54-.45s-.5-4.48-.74-6.19c-.17-1.17.78-1.87,1.55-2.44s1.07-.84.95-1.19-.41-2.64-.9-7.06c-.95-8.46-2.53-22.61-4.57-31-1.8-7.35-2.42-17.42-3.13-29.08-.47-7.73-1-15.73-1.85-23.86a313.16,313.16,0,0,1-1.59-39.35.5.5,0,0,1,.5-.48h0l30.63,0a.53.53,0,0,1,.36.15.54.54,0,0,1,.14.36c0,.18-.25,18-.5,24.83-.09,2.65-.44,11.71-.83,22-.62,16.3-1.4,36.58-1.4,37.34v15.88c0,2.29,1.47,24.64,2,27.72a13,13,0,0,0,1.54,4,17.32,17.32,0,0,1,1.43,3.35,7,7,0,0,1-.56,5.06,2.91,2.91,0,0,0-.19.44c-.2.58-.59,3.18-.73,4.14a.5.5,0,0,1-.34.4A11.29,11.29,0,0,1,455.14,458.72Zm-17.69-6.06c1.12.06,4.14.47,9.45,3,5.49,2.64,9.64,2,10.76,1.78.14-.92.5-3.32.72-4,.05-.15.13-.33.23-.55a5.91,5.91,0,0,0,.5-4.38,15.47,15.47,0,0,0-1.34-3.15,14,14,0,0,1-1.65-4.34c-.51-3.1-2-25.59-2-27.89V397.31c0-.78.74-20.22,1.4-37.37.39-10.27.74-19.33.83-22,.23-6.21.45-21.35.49-24.31l-29.64,0a315.26,315.26,0,0,0,1.6,38.72c.9,8.15,1.39,16.16,1.86,23.91.71,11.61,1.32,21.64,3.1,28.9,2.06,8.41,3.64,22.61,4.59,31.09.39,3.45.72,6.44.86,6.85.36,1.08-.57,1.77-1.31,2.32s-1.23.95-1.15,1.49C437,448.28,437.32,451.49,437.45,452.66Z" style="fill:#263238"></path><path d="M450.41,312.66s-4.72,52.13-4.72,59.08a33,33,0,0,0,3,13.4c.75,2,14.9,44.68,17.63,51.39s5,12.9,5,12.9-3.22,3.23-2.23,4.23,5.21,9.92,5.21,9.92,4.47-4,7.94-3.47,8.94,5,8.94,5a66.59,66.59,0,0,0-1.49-8.44c-1-3.72-1.74-5.95-2.23-8.68s-5-28.3-6-34.51-3.23-17.87-5-21.6-6.71-7.44-7-16.38,9.19-35.75,9.19-35.75l6.21-24.82Z" style="fill:#263238"></path><path d="M491.12,465.57a.5.5,0,0,1-.32-.11c-.05,0-5.39-4.38-8.69-4.86s-7.49,3.32-7.54,3.36a.5.5,0,0,1-.43.12.55.55,0,0,1-.35-.28c-1.62-3.43-4.44-9.11-5.12-9.79-1.15-1.15,1-3.66,2-4.7-.47-1.31-2.48-6.8-4.85-12.6-1.95-4.79-9.67-27.78-14.28-41.51-1.82-5.41-3.14-9.32-3.34-9.88l-.35-.88a31.7,31.7,0,0,1-2.67-12.7c0-6.9,4.53-57,4.72-59.13a.49.49,0,0,1,.53-.45L485,314.39a.51.51,0,0,1,.37.21.47.47,0,0,1,.08.41l-6.21,24.83c-.1.31-9.41,26.87-9.17,35.61.18,6.3,2.76,10,4.84,12.89a22.37,22.37,0,0,1,2.07,3.29c1.71,3.66,3.93,15,5,21.73,1,6.31,5.53,32.12,6,34.5.34,1.87.8,3.52,1.39,5.6l.84,3a67.78,67.78,0,0,1,1.5,8.52.49.49,0,0,1-.26.49A.53.53,0,0,1,491.12,465.57Zm-9.56-6a5.37,5.37,0,0,1,.7,0c2.71.39,6.47,3,8.22,4.33a61.08,61.08,0,0,0-1.33-7.18c-.3-1.13-.58-2.12-.84-3-.59-2.11-1.05-3.77-1.4-5.69-.44-2.38-5-28.2-6-34.52-1.07-6.67-3.26-17.9-4.93-21.46a21.09,21.09,0,0,0-2-3.14c-2.16-3-4.84-6.84-5-13.45-.24-8.92,8.83-34.82,9.22-35.92l6-24.2-33.42-2.16c-.47,5.3-4.67,52.06-4.67,58.55a31,31,0,0,0,2.59,12.32l.36.91c.22.57,1.53,4.49,3.36,9.92,4.6,13.72,12.32,36.68,14.26,41.45,2.7,6.63,4.95,12.86,5,12.93a.5.5,0,0,1-.11.52c-1.45,1.45-2.56,3.19-2.24,3.51.91.91,4,7.37,5,9.49C475.62,461.82,478.74,459.57,481.56,459.57Z" style="fill:#263238"></path><path d="M446.86,201.09s-14.66,4.7-16.81,5.87-6.26,3.91-6.84,6.45-9.58,25.41-9.58,25.41-1.17.2,7,3.71,9.57,3.52,9.57,3.52a222.22,222.22,0,0,1-6.06,28.54c-4.1,14.08-6.84,20.53-8.2,27.56a90.89,90.89,0,0,0-1.57,12.71s18.18,6.64,27,6.64,8.21-5.08,17.78-3.12,16,2.54,19.55,2.54a45,45,0,0,0,8.41-1.17s2.93-37.53,2.93-53.17,2.54-37.14.78-45,.39-12.71-5.86-15.05-19-6.26-19-6.26Z" style="fill:#8c8c8c"></path><path d="M441.39,322c-8.79,0-26.41-6.4-27.15-6.67a.51.51,0,0,1-.33-.49,91.17,91.17,0,0,1,1.57-12.78,116.21,116.21,0,0,1,3.83-13.47c1.2-3.7,2.7-8.31,4.39-14.14a224.23,224.23,0,0,0,6-28,64.19,64.19,0,0,1-9.21-3.47c-7.51-3.21-7.45-3.72-7.39-4.17a.47.47,0,0,1,.12-.27c.62-1.58,9-22.86,9.52-25.25.73-3.17,6-6.2,7.09-6.78,2.17-1.18,16.3-5.71,16.9-5.9a.27.27,0,0,1,.13,0l19.16-.79.16,0c.13,0,12.79,3.95,19,6.27,4.69,1.76,5,4.9,5.33,9.26a44.25,44.25,0,0,0,.85,6.15c1.1,4.88.55,14.92,0,25.56-.37,6.64-.74,13.51-.74,19.51,0,15.48-2.91,52.83-2.94,53.2a.49.49,0,0,1-.38.45,44.34,44.34,0,0,1-8.52,1.19c-2.15,0-8.37-.25-19.65-2.55-5.14-1.05-7.18,0-9.56,1.13A16.23,16.23,0,0,1,441.39,322Zm-26.46-7.49c2.54.91,18.51,6.49,26.46,6.49a15.12,15.12,0,0,0,7.68-1.9c2.44-1.2,4.73-2.33,10.2-1.21,11.19,2.28,17.33,2.53,19.45,2.53a43,43,0,0,0,7.94-1.08c.3-3.93,2.9-38.15,2.9-52.76,0-6,.37-12.91.74-19.57.58-10.56,1.12-20.54.05-25.28a43.76,43.76,0,0,1-.86-6.29c-.37-4.28-.59-6.87-4.69-8.4-5.91-2.22-17.75-5.88-18.85-6.22l-19,.77c-1.06.34-14.65,4.71-16.66,5.81-2.2,1.2-6.07,3.84-6.6,6.12-.56,2.46-8.61,23-9.52,25.3.4.31,1.82,1.16,6.69,3.25,7.8,3.35,9.34,3.48,9.4,3.48a.5.5,0,0,1,.36.19.47.47,0,0,1,.12.38,226.29,226.29,0,0,1-6.08,28.61c-1.7,5.84-3.2,10.46-4.4,14.17a113.67,113.67,0,0,0-3.79,13.35A93.15,93.15,0,0,0,414.93,314.51Zm-1.3-75.69h0Z" style="fill:#263238"></path><path d="M430.24,246.55a.5.5,0,0,1-.1-1s.22-.07.38-.39c.27-.5.55-1.83-.55-5-.85-2.45-1.52-7.24.1-16.09l.07-.38a.5.5,0,0,1,1,.16l-.07.4c-1.58,8.64-.95,13.24-.15,15.58,1,2.78,1.11,4.76.44,5.9a1.58,1.58,0,0,1-1,.81Z" style="fill:#263238"></path><path d="M466.42,272.76a.53.53,0,0,1-.46-.29c-.14-.29-.76-2.3,1.13-14,1.72-10.7,3.16-21.52,3.46-23.79-16.47-4.46-37.31-2.62-37.52-2.6a.5.5,0,1,1-.09-1c.21,0,21.59-1.91,38.29,2.75a.5.5,0,0,1,.36.55c0,.12-1.58,12.26-3.52,24.25-1.84,11.43-1.23,13.34-1.2,13.41a.5.5,0,0,1-.23.66A.54.54,0,0,1,466.42,272.76Z" style="fill:#263238"></path><path d="M437.67,253.79h-.05a.5.5,0,0,1-.45-.54l2.15-21.7a.51.51,0,0,1,.55-.45.5.5,0,0,1,.45.55l-2.15,21.69A.51.51,0,0,1,437.67,253.79Z" style="fill:#263238"></path><path d="M454.48,254.76h0a.5.5,0,0,1-.47-.53c.58-8.12,1.75-22.34,1.76-22.49a.52.52,0,0,1,.54-.45.49.49,0,0,1,.46.53c0,.15-1.18,14.37-1.76,22.48A.5.5,0,0,1,454.48,254.76Z" style="fill:#263238"></path><path d="M449.79,319.27a.5.5,0,0,1-.5-.5c0-.09,0-.27,0-.51a34.91,34.91,0,0,1,.24-8.76c.77-5,1.56-16.18,1.56-17.12a.5.5,0,0,1,1,0c0,1-.77,12.1-1.57,17.28a33.27,33.27,0,0,0-.23,8.51c0,.29,0,.49,0,.6A.5.5,0,0,1,449.79,319.27Z" style="fill:#263238"></path><path d="M472.08,289.36a.52.52,0,0,1-.21,0,.5.5,0,0,1-.25-.66s1.56-3.7,3.28-17.84a94.19,94.19,0,0,0,0-24.49.48.48,0,0,1,.4-.57.5.5,0,0,1,.58.4,94.58,94.58,0,0,1,0,24.78c-1.74,14.37-3.29,18-3.36,18.12A.49.49,0,0,1,472.08,289.36Z" style="fill:#263238"></path><path d="M480.09,204.81l-6.84-1.57s-1.37,23.46.39,33.23,7.43,20.72,11.34,25.81,8,10.36,8,10.36v-5.87s-8.21-13.68-11.34-25S480.09,204.81,480.09,204.81Z" style="fill:#263238"></path><path d="M493,273.14a.47.47,0,0,1-.39-.2s-4.11-5.27-8-10.36a69,69,0,0,1-11.43-26c-1.75-9.72-.41-33.11-.4-33.34a.51.51,0,0,1,.2-.38.49.49,0,0,1,.41-.08l6.84,1.56a.51.51,0,0,1,.39.52c0,.25-1.52,25.65,1.55,36.78s11.2,24.76,11.28,24.9a.43.43,0,0,1,.07.25v5.87a.51.51,0,0,1-.34.47A.41.41,0,0,1,493,273.14Zm-19.28-69.28c-.19,3.71-1.15,23.78.42,32.53A68,68,0,0,0,485.37,262c2.8,3.64,5.7,7.38,7.12,9.21v-4.27c-.82-1.38-8.36-14.31-11.32-25s-1.8-33.2-1.6-36.69Z" style="fill:#263238"></path><path d="M449.21,187.8s-1.18,10.56-2.35,13.29-5.86,5.48-7.43,8.21-2.15,10-2.15,10l34.21,2s.39-10.56-.2-13.68-2.54-5.87-2.93-8.21S467,184.09,467,184.09Z" style="fill:#fff"></path><path d="M471.49,221.73h0l-34.21-2a.49.49,0,0,1-.35-.17.53.53,0,0,1-.12-.37c0-.3.62-7.37,2.22-10.17a18.55,18.55,0,0,1,3.69-4c1.54-1.39,3.13-2.82,3.71-4.17,1.13-2.64,2.3-13.05,2.31-13.15a.5.5,0,0,1,.39-.44l17.79-3.71a.48.48,0,0,1,.4.09.49.49,0,0,1,.2.36c0,.13,1,12.91,1.36,15.2a16.31,16.31,0,0,0,1.26,3.48,21,21,0,0,1,1.67,4.72c.6,3.15.22,13.36.21,13.8a.57.57,0,0,1-.16.35A.55.55,0,0,1,471.49,221.73Zm-33.66-2.93L471,220.7c.06-2.14.29-10.41-.21-13.06a20.4,20.4,0,0,0-1.6-4.5,16.27,16.27,0,0,1-1.33-3.72c-.35-2.09-1.14-12.18-1.33-14.73l-16.88,3.53c-.22,1.91-1.26,10.56-2.34,13.07-.66,1.55-2.34,3.06-4,4.52a17.77,17.77,0,0,0-3.49,3.74C438.61,211.75,438,217.12,437.83,218.8Z" style="fill:#263238"></path><polygon points="459.64 194.05 468.36 199.34 469.73 189.01 466.2 185.73 459.64 194.05" style="fill:#263238"></polygon><path d="M468.36,199.84a.5.5,0,0,1-.26-.08l-8.72-5.28a.48.48,0,0,1-.23-.34.49.49,0,0,1,.1-.4l6.56-8.32a.49.49,0,0,1,.73,0l3.53,3.27a.49.49,0,0,1,.15.44l-1.36,10.32a.52.52,0,0,1-.28.39A.54.54,0,0,1,468.36,199.84Zm-8-5.92,7.59,4.59,1.23-9.31-2.94-2.73Z" style="fill:#263238"></path><path d="M447.25,146.36s-7.43,4.5-9.19,8.8-1.56,10.16-2.73,14.27-9,10-6.26,15.83,4.11,8.6,4.11,8.6-6.26,7.23-4.3,10.75,7.62,10.17,9.77,10.75a29.51,29.51,0,0,0,4.69.79s-4.3-2-3.71-4.89,7.23-6.45,8.4-8.8,1.18-14.66,1.18-14.66-2.74-5.08-3.33-7.62a11.84,11.84,0,0,1-.19-4.5h21.89s-1.56,9.78-2,12.71,2.94,4.69,2.74,6.45-6.84,10.16-6.45,15.44,12.32,11.14,13.68,10.75a15.68,15.68,0,0,0,3.52-1.95s-2.73-2.54-2.93-3.91,7.43-5.67,9.38-7.43,2.35-3.32,1.57-5.67-4.5-6.64-4.3-8.21,5.27-9.38,3.51-15.24-3.71-5.28-5.66-9.78-4.11-16.61-7.63-19.15-8.6-4.5-15.44-5.09S447.25,146.36,447.25,146.36Z" style="fill:#407BFF"></path><path d="M475.46,221.55c-1.37,0-5.16-1.8-8.25-4-2.53-1.77-5.59-4.47-5.8-7.28-.27-3.7,2.61-8.61,4.72-12.19a17.08,17.08,0,0,0,1.73-3.35c.07-.56-.44-1.24-1-2-.86-1.15-1.94-2.57-1.69-4.44.33-2.49,1.52-10,1.86-12.14H446.12a12.16,12.16,0,0,0,.25,3.89c.56,2.44,3.25,7.45,3.28,7.5a.6.6,0,0,1,.06.23c0,.51,0,12.46-1.23,14.89-.55,1.1-2.11,2.36-3.76,3.7-2,1.63-4.3,3.47-4.6,5-.5,2.5,3.39,4.31,3.43,4.33a.51.51,0,0,1,.28.58.5.5,0,0,1-.53.37,28.54,28.54,0,0,1-4.78-.79c-2.37-.65-8.1-7.43-10.08-11s3-9.71,4.14-11.07c-.42-.85-1.75-3.58-4-8.32-1.94-4.15,1.08-8.31,3.51-11.65a17.59,17.59,0,0,0,2.72-4.53,40.61,40.61,0,0,0,1-5.85A33.26,33.26,0,0,1,437.6,155c1.79-4.37,9-8.78,9.38-9,.26-.17,3.85-2.42,10.67-1.83,6.33.54,11.76,2.33,15.7,5.17,2.5,1.81,4.25,7.85,5.79,13.17a59.75,59.75,0,0,0,2,6.19,13.32,13.32,0,0,0,2.45,3.79,14.25,14.25,0,0,1,3.24,6c1.37,4.55-1.14,10-2.63,13.32a13.34,13.34,0,0,0-.87,2.13c-.08.7,1.12,2.57,2.09,4.07a20.88,20.88,0,0,1,2.19,3.92c.86,2.59.38,4.32-1.7,6.2a39.63,39.63,0,0,1-3.66,2.62c-1.91,1.28-5.47,3.67-5.56,4.39.12.85,1.76,2.65,2.77,3.59a.5.5,0,0,1,.16.4.49.49,0,0,1-.2.37,15.73,15.73,0,0,1-3.68,2A1,1,0,0,1,475.46,221.55Zm-29.77-46.37h21.89a.51.51,0,0,1,.38.18.49.49,0,0,1,.11.4c0,.1-1.56,9.8-1.95,12.7-.19,1.45.67,2.59,1.5,3.7a4.17,4.17,0,0,1,1.24,2.73c-.07.66-.69,1.74-1.87,3.75-1.93,3.27-4.83,8.22-4.58,11.6.12,1.64,1.54,3.58,4.11,5.6,3.68,2.9,8.23,4.82,9,4.71a12.65,12.65,0,0,0,2.86-1.54c-.83-.82-2.48-2.59-2.65-3.77s1.81-2.52,6-5.34a40.14,40.14,0,0,0,3.54-2.53c1.78-1.6,2.15-3,1.42-5.14a20.58,20.58,0,0,0-2.08-3.7c-1.27-2-2.37-3.67-2.24-4.73a11.16,11.16,0,0,1,.95-2.42c1.44-3.15,3.84-8.43,2.59-12.62a13.26,13.26,0,0,0-3.06-5.68,14.6,14.6,0,0,1-2.59-4,61.44,61.44,0,0,1-2.05-6.31c-1.41-4.91-3.18-11-5.41-12.64-3.79-2.74-9-4.46-15.19-5-6.55-.56-10,1.66-10,1.68h0c-.07,0-7.31,4.46-9,8.56a32.84,32.84,0,0,0-1.7,8.21,39.72,39.72,0,0,1-1,6,18.17,18.17,0,0,1-2.87,4.84c-2.39,3.29-5.1,7-3.41,10.64,2.7,5.79,4.08,8.56,4.09,8.59a.49.49,0,0,1-.07.55c-1.67,1.94-5.7,7.55-4.24,10.18,2,3.55,7.58,10,9.47,10.51a22.17,22.17,0,0,0,2.39.5c-1.18-.95-2.4-2.4-2-4.22s2.7-3.73,4.95-5.55c1.49-1.21,3-2.46,3.5-3.37.9-1.82,1.11-10.82,1.12-14.31a44,44,0,0,1-3.32-7.64,12,12,0,0,1-.19-4.7A.49.49,0,0,1,445.69,175.18Zm1.56-28.82h0Z" style="fill:#263238"></path><path d="M442.36,165.71s.2,11.93.59,14.47,6.26,10.95,9.38,12.9,9,.2,10.36-.59,7.43-9.57,7.43-14.46-.78-11.73-.78-11.73l-9.38-.39-2-7-1.76,7.24Z" style="fill:#fff"></path><path d="M456.11,194.48a7.6,7.6,0,0,1-4-1c-3.29-2.05-9.2-10.56-9.61-13.24s-.59-14-.6-14.54a.53.53,0,0,1,.15-.36.57.57,0,0,1,.37-.15l13.47.38,1.67-6.84a.5.5,0,0,1,.47-.38h0a.49.49,0,0,1,.48.37l1.86,6.69,9,.37a.5.5,0,0,1,.48.44c0,.07.78,6.93.78,11.79,0,5-6.1,14-7.68,14.9A16.87,16.87,0,0,1,456.11,194.48Zm-13.24-28.25c.05,2.32.24,11.7.57,13.87.37,2.41,6.18,10.7,9.16,12.56s8.53.15,9.84-.6,7.18-9.33,7.18-14c0-4.11-.56-9.68-.73-11.25l-8.95-.37a.51.51,0,0,1-.47-.37L458,160.86l-1.3,5.36a.51.51,0,0,1-.49.39h0Z" style="fill:#263238"></path><path d="M455.07,180.29c-1.25,0-1.88-1.48-2.05-2.36a.5.5,0,0,1,.39-.59.51.51,0,0,1,.59.39c.06.33.44,1.56,1.07,1.56s1.85-1,2.16-1.39a.51.51,0,0,1,.71-.05.49.49,0,0,1,.05.7C457.83,178.73,456.43,180.29,455.07,180.29Z" style="fill:#263238"></path><path d="M455.52,184a9.91,9.91,0,0,1-5-1.42.5.5,0,1,1,.56-.83,8.16,8.16,0,0,0,10.13-1.13.5.5,0,1,1,.68.74A9.13,9.13,0,0,1,455.52,184Z" style="fill:#263238"></path><path d="M445.88,168.76a.51.51,0,0,1-.48-.36.5.5,0,0,1,.33-.62,15.87,15.87,0,0,1,5.27-.61.5.5,0,0,1,.46.54.51.51,0,0,1-.53.46,15.75,15.75,0,0,0-4.9.56A.4.4,0,0,1,445.88,168.76Z" style="fill:#263238"></path><path d="M465.23,169.15a.46.46,0,0,1-.29-.1c-1-.73-3.82-1-4.81-1.08a.5.5,0,0,1-.48-.52.52.52,0,0,1,.53-.48c.16,0,3.87.22,5.34,1.27a.5.5,0,0,1,.12.7A.52.52,0,0,1,465.23,169.15Z" style="fill:#263238"></path><path d="M451,172c0,1.08-.61,1.95-1.36,1.95s-1.37-.87-1.37-1.95.61-2,1.37-2S451,170.89,451,172Z" style="fill:#263238"></path><ellipse cx="462.11" cy="172.36" rx="1.37" ry="1.95" style="fill:#263238"></ellipse><path d="M484.39,244.88l4.3,20.33a74.37,74.37,0,0,0-2.15,16.42c0,8.21-2.15,18.57-2.93,22.28a21.13,21.13,0,0,1-3.72,8.21c-1.56,2.35-1.95,3.72-1.95,4.5s-1.56,4.69-1.56,5.86,3.12.59,3.12.59-1.37,5.28.2,5.67,3.91-2.15,3.91-2.15,3.52-.39,5.08-2,1.76-6.25,1.95-9,0-6.25.2-7.23,2-6.26,5.08-14.27a184.25,184.25,0,0,0,6.84-20.92c.59-2.93,1.57-7.42,1.57-9.18s-4.11-21.7-4.11-21.7Z" style="fill:#fff"></path><path d="M480,329.28a1.76,1.76,0,0,1-.46-.06,1.28,1.28,0,0,1-.78-.6c-.66-1.11-.23-3.67.05-4.95a4,4,0,0,1-2.59-.37,1,1,0,0,1-.38-.82,17.13,17.13,0,0,1,.92-3.6,15.59,15.59,0,0,0,.64-2.26c0-1.14.69-2.75,2-4.78a20.83,20.83,0,0,0,3.64-8c.72-3.43,2.92-13.89,2.92-22.18a75.29,75.29,0,0,1,2.14-16.43L483.9,245a.47.47,0,0,1,.08-.38.44.44,0,0,1,.33-.21l15.83-2.54a.49.49,0,0,1,.57.39c.17.81,4.12,20,4.12,21.8a58.09,58.09,0,0,1-1.3,7.91l-.28,1.37a185.79,185.79,0,0,1-6.86,21c-3.22,8.25-4.88,13.31-5.06,14.19a22.61,22.61,0,0,0-.09,2.86c0,1.37,0,2.92-.1,4.31l0,.66c-.2,3-.48,7.07-2.06,8.65s-4.42,2-5.19,2.07C483.33,327.59,481.58,329.28,480,329.28Zm-.54-6.71a.5.5,0,0,1,.49.62c-.38,1.48-.81,4.11-.33,4.92.07.12.13.14.16.14.93.24,2.59-1.1,3.42-2a.47.47,0,0,1,.31-.16s3.37-.39,4.79-1.81,1.59-5.5,1.76-8l0-.66c.09-1.36.09-2.89.09-4.24a21.17,21.17,0,0,1,.11-3.06c.21-1.05,2-6.34,5.11-14.35a188,188,0,0,0,6.81-20.83l.28-1.38a58.36,58.36,0,0,0,1.28-7.71c0-1.37-2.8-15.28-4-21.13L485,245.29l4.19,19.82a.45.45,0,0,1,0,.23A74.57,74.57,0,0,0,487,281.63c0,8.4-2.21,18.93-2.94,22.38a21.68,21.68,0,0,1-3.79,8.39c-1.55,2.32-1.87,3.57-1.87,4.22a12.29,12.29,0,0,1-.69,2.57,17.88,17.88,0,0,0-.87,3.29,4.19,4.19,0,0,0,2.53.1Z" style="fill:#263238"></path><path d="M480.09,204.81s-3.71,6.45-2,19.35a247.76,247.76,0,0,0,4.89,25l20.72-4.5s-5.08-18.76-8.4-27.75S485,203.05,480.09,204.81Z" style="fill:#8c8c8c"></path><path d="M483,249.68a.5.5,0,0,1-.48-.37,250.7,250.7,0,0,1-4.9-25.08c-1.76-12.92,1.86-19.4,2-19.67a.51.51,0,0,1,.26-.22c5.49-2,12.62,3.59,15.88,12.41s8.37,27.62,8.42,27.8a.48.48,0,0,1-.05.39.5.5,0,0,1-.32.23l-20.72,4.5Zm-2.58-44.46c-.53,1.06-3.37,7.41-1.81,18.87a247.53,247.53,0,0,0,4.76,24.5l19.73-4.28c-.84-3.06-5.28-19.16-8.25-27.21C491.58,208.21,484.82,203.83,480.44,205.22Z" style="fill:#263238"></path><path d="M474.24,463.58a57.52,57.52,0,0,0-1.12,7c0,1.76-1.22,3.53.14,5.42s5.83,4.2,10.3,4.07,9.49-2.58,9.89-4.47a31.44,31.44,0,0,0,.54-4.07l-2.44-5.56s-3.79-4.33-7.86-5.55S474.24,463.58,474.24,463.58Z" style="fill:#fff"></path><path d="M483.18,480.54c-4.37,0-8.82-2.16-10.33-4.28a4.66,4.66,0,0,1-.46-4.13,7.54,7.54,0,0,0,.23-1.58,57.64,57.64,0,0,1,1.13-7.07.57.57,0,0,1,.17-.28c.23-.19,5.65-4.57,9.92-3.29s7.93,5.52,8.09,5.71a.5.5,0,0,1,.08.12l2.44,5.56a.45.45,0,0,1,0,.23,31,31,0,0,1-.55,4.14c-.48,2.23-5.81,4.73-10.37,4.87Zm-8.49-16.67a53.84,53.84,0,0,0-1.07,6.68,8.23,8.23,0,0,1-.26,1.8c-.26,1.19-.49,2.22.31,3.33,1.18,1.67,5.4,4,9.87,3.86s9.12-2.64,9.42-4.08a33.06,33.06,0,0,0,.53-3.87l-2.36-5.37c-.46-.5-3.95-4.26-7.58-5.35C480.12,459.84,475.53,463.22,474.69,463.87Z" style="fill:#263238"></path><path d="M473.12,470.55a18.39,18.39,0,0,1,10.17-2.3A22.85,22.85,0,0,1,494,471.5l-1.35-2.84s-6.51-3.26-10.71-3.26a18.51,18.51,0,0,0-8.26,2.44Z" style="fill:#407BFF"></path><path d="M494,472a.53.53,0,0,1-.27-.08,22.58,22.58,0,0,0-10.45-3.17A18,18,0,0,0,473.4,471a.5.5,0,0,1-.77-.51l.54-2.72a.56.56,0,0,1,.24-.33,18.87,18.87,0,0,1,8.52-2.51c4.27,0,10.66,3.17,10.93,3.31a.51.51,0,0,1,.23.23l1.36,2.85a.51.51,0,0,1-.13.59A.5.5,0,0,1,494,472Zm-11.63-4.27.95,0a23.9,23.9,0,0,1,9.55,2.53l-.6-1.25c-1-.48-6.64-3.13-10.33-3.13a18,18,0,0,0-7.82,2.26l-.29,1.44A19.63,19.63,0,0,1,482.36,467.73Z" style="fill:#263238"></path><path d="M493.45,475.57c.13-.59.23-1.2.3-1.76a11.92,11.92,0,0,1-1.79,1.76A16.24,16.24,0,0,1,481,478a14.35,14.35,0,0,1-8.26-4.61h-.05a3.36,3.36,0,0,0,.59,2.56c1.35,1.9,5.83,4.2,10.3,4.07S493.05,477.46,493.45,475.57Z" style="fill:#407BFF"></path><path d="M483.18,480.54c-4.37,0-8.82-2.16-10.33-4.28a3.89,3.89,0,0,1-.68-2.91.51.51,0,0,1,.42-.44.63.63,0,0,1,.51.17,13.94,13.94,0,0,0,7.95,4.43,15.79,15.79,0,0,0,10.61-2.34,10.74,10.74,0,0,0,1.71-1.69.5.5,0,0,1,.59-.13.5.5,0,0,1,.29.52c-.1.69-.2,1.28-.31,1.8-.48,2.23-5.81,4.73-10.37,4.87Zm-10-5.93a2.57,2.57,0,0,0,.48,1.07c1.18,1.67,5.4,4,9.87,3.86s9.12-2.64,9.42-4.08h0l0-.11a7.79,7.79,0,0,1-.73.62,16.54,16.54,0,0,1-11.34,2.53A14.37,14.37,0,0,1,473.19,474.61Z" style="fill:#263238"></path></g></svg>