<svg xmlns="http://www.w3.org/2000/svg" viewBox="240.92 146.1 125.99 322.03"><g id="freepik--character-2--inject-62"><path d="M252,260.83s-10.92,12.34-10.6,14.24.63,9.49,2.69,15,5.37,7,5.37,7,3.33,19.3,10.6,23.58,17.41,7.43,19,7a11.57,11.57,0,0,0,4.9-3.48c.64-1.11,4.75-22.47,4.75-22.47s-7.91-61.38-8.7-63.44-7.12,1.27-9.34,2.53S252,260.83,252,260.83Z" style="fill:#263238"/><path d="M278.69,328.13c-2.76,0-12.07-3.09-18.85-7.06-7-4.13-10.36-21.29-10.79-23.67-.85-.46-3.6-2.27-5.4-7.12-1.62-4.35-2.16-9.82-2.49-13.09-.09-.91-.16-1.62-.23-2-.33-2,8.12-11.71,10.72-14.65.69-.79,16.54-18.9,18.8-20.19,2.07-1.19,7.1-3.86,9.15-3.13a1.49,1.49,0,0,1,.9.85c.8,2.09,8.4,61,8.73,63.56a.92.92,0,0,1,0,.16c-.69,3.58-4.16,21.49-4.8,22.61a11.79,11.79,0,0,1-5.2,3.72A1.94,1.94,0,0,1,278.69,328.13Zm.05-90.08c-1.6,0-4.94,1.49-7.8,3.13-1.75,1-14,14.76-18.54,20h0c-5.24,5.92-10.59,12.71-10.48,13.82.07.44.15,1.17.24,2.1.32,3.22.85,8.61,2.42,12.84,1.95,5.24,5.08,6.66,5.11,6.67a.51.51,0,0,1,.3.38c0,.19,3.36,19.12,10.36,23.22,7.68,4.52,17.35,7.27,18.59,6.92a11.17,11.17,0,0,0,4.61-3.25c.46-.88,3-13.75,4.67-22.23-2.2-17.12-8-61.61-8.66-63.25a.42.42,0,0,0-.29-.26A1.64,1.64,0,0,0,278.74,238.05ZM252,260.83h0Z" style="fill:#263238"/><path d="M282.21,304.83s-.78,25.21.2,43,1.76,44,1.76,44-4.11,14.07-3.52,19S284.56,434,284.56,434s-2,3.33-2.54,4.5,1.17,9.77,1.17,9.77l18.57,1s4.3-8.8,5.08-12.32-1.76-2.73-1.76-6.06-1.17-24.23-.19-34.59,1.17-13.69,1.17-13.69,2.54-18.57,3.71-25.6,3.33-29.71,3.33-29.71,7.42,64.31,7.82,68.41.78,15.44,2.15,22.48,3.32,17.2,3.32,19.16-.2,4.69-.2,4.69a2.75,2.75,0,0,0-1.56,2.73c.19,2,1.37,7,1.37,7l21.11-1.37s.58-4.88.78-8.6-.78-10-1-11.92.78-15.25.59-20.72-2-17-2.35-22.09.2-67.63.2-67.63L345,305Z" style="fill:#263238"/><path d="M326,452.32a.5.5,0,0,1-.49-.39c-.05-.21-1.18-5.13-1.38-7.1a3.23,3.23,0,0,1,1.58-3.09c.05-.75.18-2.83.18-4.38,0-2-2.24-13.53-3.32-19.07a161.09,161.09,0,0,1-1.82-17.84c-.12-1.92-.23-3.58-.33-4.68-.33-3.41-5.57-48.87-7.28-63.74-.7,7-2,20.06-2.87,25.07-1.16,6.95-3.69,25.4-3.71,25.59h0s-.21,3.42-1.18,13.66c-.74,7.94-.22,22.15.06,29.78.08,2.32.14,4,.14,4.77a3.36,3.36,0,0,0,.94,2.5,3.55,3.55,0,0,1,.81,3.67c-.79,3.54-4.94,12.07-5.12,12.43a.52.52,0,0,1-.48.28l-18.57-1a.51.51,0,0,1-.46-.4c-.42-2.06-1.75-8.86-1.13-10.1.52-1,2.06-3.68,2.46-4.36-.34-1.93-3.33-18.52-3.88-23.11-.57-4.8,3.16-17.84,3.52-19.08-.05-1.61-.82-26.8-1.76-43.89-1-17.61-.21-42.8-.2-43.05a.5.5,0,0,1,.5-.48h0l62.75.19a.51.51,0,0,1,.5.49l.39,14.46c0,.65-.58,62.61-.2,67.61.16,2.08.56,5.28,1,8.67.59,4.78,1.25,10.2,1.37,13.44.11,3.06-.14,8.42-.36,13.14-.17,3.6-.31,6.72-.23,7.55,0,.42.12,1.05.22,1.81a67.47,67.47,0,0,1,.76,10.19c-.19,3.69-.78,8.58-.78,8.63a.5.5,0,0,1-.47.44L326,452.32ZM313.1,326.8a.51.51,0,0,1,.49.45c.08.64,7.44,64.36,7.82,68.42.11,1.12.22,2.79.34,4.71a155.66,155.66,0,0,0,1.81,17.72c1.73,8.9,3.33,17.39,3.33,19.26s-.2,4.69-.2,4.72a.47.47,0,0,1-.29.42,2.25,2.25,0,0,0-1.27,2.23c.15,1.58,1,5.32,1.26,6.56L346.66,450c.14-1.25.57-5.12.73-8.15a67.12,67.12,0,0,0-.75-10c-.1-.77-.18-1.4-.22-1.83-.09-.91,0-3.9.22-7.7.21-4.47.47-10,.36-13.06-.11-3.19-.78-8.59-1.37-13.34-.42-3.4-.81-6.62-1-8.72-.39-5.05.17-65.12.19-67.68l-.38-14-61.77-.19c-.1,3.59-.68,26.26.21,42.47,1,17.59,1.75,43.73,1.76,44a.77.77,0,0,1,0,.15c0,.14-4.07,14-3.5,18.76s3.87,23.05,3.9,23.23a.54.54,0,0,1-.06.35s-1.95,3.32-2.53,4.46c-.3.63.35,5.12,1.14,9.07l17.85.94c.76-1.56,4.22-8.84,4.9-11.9a2.64,2.64,0,0,0-.6-2.83,4.29,4.29,0,0,1-1.17-3.13c0-.75-.06-2.42-.14-4.73-.28-7.66-.81-21.91-.05-29.91,1-10.23,1.17-13.63,1.17-13.67,0-.22,2.56-18.69,3.72-25.66s3.3-29.45,3.32-29.67a.51.51,0,0,1,.49-.46Z" style="fill:#263238"/><polygon points="355.65 289.31 340.46 299.12 349.01 334.08 362.93 315.89 355.65 289.31" style="fill:#fff"/><path d="M349,334.58h-.11a.51.51,0,0,1-.38-.37l-8.54-35a.5.5,0,0,1,.21-.54l15.19-9.81a.51.51,0,0,1,.45-.05.49.49,0,0,1,.3.34l7.28,26.58a.5.5,0,0,1-.08.43l-13.93,18.2A.49.49,0,0,1,349,334.58Zm-8-35.23,8.21,33.6,13.14-17.17-7-25.68Z" style="fill:#263238"/><polygon points="355.65 289.31 336.82 299.12 346 333.61 349.01 334.08 340.46 299.12 355.65 289.31" style="fill:#fff"/><path d="M349,334.58h-.08l-3-.48a.49.49,0,0,1-.4-.36l-9.18-34.49a.5.5,0,0,1,.25-.57l18.83-9.81a.5.5,0,0,1,.66.19.49.49,0,0,1-.16.67L341,299.35,349.49,334a.48.48,0,0,1-.12.46A.45.45,0,0,1,349,334.58Zm-2.61-1.41,1.94.3L340,299.24a.5.5,0,0,1,.21-.54l6.18-4-9,4.67Z" style="fill:#263238"/><polygon points="358.02 295.32 346.79 304.97 352.96 327.12 355.49 326.81 362.93 315.89 358.02 295.32" style="fill:#fff"/><path d="M353,327.62a.5.5,0,0,1-.48-.36l-6.17-22.15a.51.51,0,0,1,.16-.52l11.23-9.65a.49.49,0,0,1,.48-.09.5.5,0,0,1,.33.36l4.9,20.56a.47.47,0,0,1-.07.4l-7.43,10.92a.5.5,0,0,1-.36.21l-2.53.32Zm-5.6-22.47,6,21.42,1.88-.23,7.18-10.55-4.66-19.55Z" style="fill:#263238"/><polygon points="355.49 326.81 349.48 304.66 358.02 296.75 358.02 295.32 346.79 304.97 352.96 327.12 355.49 326.81" style="fill:#fff"/><path d="M353,327.62a.5.5,0,0,1-.48-.36l-6.17-22.15a.51.51,0,0,1,.16-.52l11.23-9.65a.51.51,0,0,1,.53-.07.49.49,0,0,1,.29.45v1.43a.45.45,0,0,1-.16.36L350,304.82,356,326.67a.54.54,0,0,1-.07.41.51.51,0,0,1-.36.22l-2.53.32Zm-5.6-22.47,6,21.42,1.53-.19L349,304.79a.52.52,0,0,1,.14-.5l8.38-7.76v-.12Z" style="fill:#263238"/><path d="M347.42,245.17l2.54,19s-.64,7.59.63,13,3.8,14.4,5.22,18.83,3,11.7,3,11.7a7.81,7.81,0,0,0-1.9,4.75c0,2.69-.16,7-.16,7s-3.17,2.37-2.53,3.48a2.22,2.22,0,0,0,2.53,1.27c.79-.32,3-4.28,3-4.28l-.94,6s-1.75,1.1-1.27,1.74,1.27,1.26,1.74.79,4.75-4.43,5.22-4.75,1.9-7.12,1.9-8.07S364,304.18,364,304.18s2-30.69,1.58-35.28a54.77,54.77,0,0,0-2.53-10.44c-.16-.47-1.27-15.82-1.27-15.82S345.84,243,347.42,245.17Z" style="fill:#c9c9c9"/><path d="M358.9,329.05h-.09a2.76,2.76,0,0,1-1.66-1.15.94.94,0,0,1-.17-.73,3.27,3.27,0,0,1,1.38-1.61l.51-3.24a6.93,6.93,0,0,1-1.93,2.26,2.7,2.7,0,0,1-3.15-1.48c-.73-1.29,1.5-3.23,2.48-4,0-.94.15-4.42.15-6.71a8.18,8.18,0,0,1,1.85-4.88c-.28-1.3-1.68-7.52-2.94-11.42-1.39-4.34-3.93-13.33-5.23-18.87-1.23-5.21-.71-12.32-.65-13.07l-2.51-18.83a.92.92,0,0,1,0-.88c1-1.9,11.65-2.26,14.9-2.32a.48.48,0,0,1,.51.46c.43,6,1.12,15.15,1.25,15.73l0,.09a52.47,52.47,0,0,1,2.52,10.43c.46,4.51-1.44,33.25-1.58,35.29.31,1.37,2.37,10.48,2.37,11.43,0,.43-1.29,7.93-2.12,8.49-.41.27-4.63,4.17-5.15,4.68A1,1,0,0,1,358.9,329.05Zm.86-9.71a.51.51,0,0,1,.17,0,.5.5,0,0,1,.33.55l-.95,6a.5.5,0,0,1-.23.35c-.55.35-1.09.88-1.11,1.07a1.82,1.82,0,0,0,.91.7c.42-.38,4.55-4.22,5.29-4.78a43.37,43.37,0,0,0,1.74-7.7c0-.65-1.45-7.26-2.36-11.28a.32.32,0,0,1,0-.14c0-.31,2-30.7,1.58-35.2a50.59,50.59,0,0,0-2.47-10.21l0-.12c-.15-.47-.9-10.61-1.25-15.47-6.25.15-13.08.85-13.55,1.76,0,.07.1.11.11.2l2.53,19a.21.21,0,0,1,0,.11c0,.07-.61,7.58.63,12.81,1.29,5.51,3.82,14.47,5.21,18.79s3,11.68,3,11.76a.48.48,0,0,1-.12.44,7.43,7.43,0,0,0-1.76,4.41c0,2.67-.16,6.94-.16,7a.51.51,0,0,1-.2.38c-1.45,1.08-2.61,2.46-2.4,2.83.53.93,1.38,1.26,1.91,1a18.94,18.94,0,0,0,2.76-4A.51.51,0,0,1,359.76,319.34Z" style="fill:#263238"/><path d="M304.23,183.15s0,9.18-.15,10.13-6.49,6.8-6.49,6.8-16.93,5.38-19.14,7.28-2.53,8.07-2.22,12S281,288.84,281,288.84l-.16,17.24,57.6.51-1.6-7.47,8.37-4.2-1.25-44.69v-2.84a36.46,36.46,0,0,0,9,.79c4.11-.32,12.18-2.69,12.18-2.69s-4.9-27.37-6.64-33.23-3.48-7.43-8.39-8.7-14.87-2.69-17.24-3.48-9.49-4-10-4.59-.31-12.34-.31-12.34Z" style="fill:#407BFF"/><path d="M338.42,307.09h0l-57.6-.51a.49.49,0,0,1-.36-.15.5.5,0,0,1-.14-.35l.16-17.25c-.05-.62-4.43-65.5-4.75-69.41-.29-3.61-.11-10.3,2.39-12.44,2.2-1.88,17.64-6.84,19.21-7.34,2.93-2.72,6.06-5.86,6.26-6.46s.14-6.35.14-10a.51.51,0,0,1,.5-.5h18.36a.51.51,0,0,1,.5.51c-.08,5.37,0,11.43.25,12.09a71.5,71.5,0,0,0,9.69,4.36c1.14.38,4.21.93,7.48,1.52s7.23,1.3,9.73,2c5.2,1.34,7,3.2,8.74,9s6.45,32.16,6.66,33.28a.51.51,0,0,1-.36.57c-.33.09-8.16,2.39-12.28,2.71a35,35,0,0,1-8.56-.68v2.23l1.25,44.68a.53.53,0,0,1-.28.46l-8,4,1.52,7.09a.48.48,0,0,1-.1.42A.51.51,0,0,1,338.42,307.09Zm-57.1-1.5,56.48.49-1.46-6.86a.5.5,0,0,1,.26-.55l8.08-4.05-1.24-44.37v-2.86a.48.48,0,0,1,.19-.39.47.47,0,0,1,.42-.1,35.74,35.74,0,0,0,8.87.78c3.48-.27,9.93-2.06,11.65-2.55-.64-3.56-5-27.37-6.55-32.72-1.75-5.87-3.45-7.18-8-8.36-2.47-.64-6.29-1.33-9.66-1.94s-6.41-1.15-7.62-1.55c-2.1-.7-9.59-3.94-10.21-4.77-.46-.61-.49-6.82-.42-12.14H304.73c0,2.06,0,8.85-.16,9.71s-4.7,5.29-6.64,7.09a.45.45,0,0,1-.19.11c-4.68,1.49-17.21,5.68-19,7.18s-2.41,7-2,11.6c.31,3.92,4.7,68.81,4.75,69.46Zm16.27-105.51h0Z" style="fill:#263238"/><path d="M297,246.46a.49.49,0,0,1-.4-.8c5.26-6.81,9.84-21.37,9.89-21.52a.5.5,0,1,1,.95.3c-.19.6-4.68,14.88-10,21.83A.48.48,0,0,1,297,246.46Z" style="fill:#263238"/><path d="M299.49,234a.48.48,0,0,1-.26-.07.49.49,0,0,1-.17-.68L304,225a.5.5,0,0,1,.69-.17.49.49,0,0,1,.17.68l-4.9,8.23A.5.5,0,0,1,299.49,234Z" style="fill:#263238"/><path d="M331.13,242.67a.47.47,0,0,1-.39-.2,89.91,89.91,0,0,1-10-17,.5.5,0,0,1,.92-.4,89.09,89.09,0,0,0,9.9,16.82.5.5,0,0,1-.08.7A.51.51,0,0,1,331.13,242.67Z" style="fill:#263238"/><path d="M339,246.78a.49.49,0,0,1-.39-.19c-2.19-2.82-11.14-13.81-11.23-13.92a.5.5,0,1,1,.77-.63c.09.11,9.05,11.11,11.24,13.93a.5.5,0,0,1-.08.7A.51.51,0,0,1,339,246.78Z" style="fill:#263238"/><path d="M341.57,297.88a.49.49,0,0,1-.4-.21c-3-4.13-11.88-31.56-12.26-32.73a.51.51,0,0,1,.33-.63.49.49,0,0,1,.62.33c.1.28,9.19,28.44,12.11,32.44a.5.5,0,0,1-.4.8Z" style="fill:#263238"/><path d="M324.8,274.31a.5.5,0,0,1-.48-.37l-4-13.92a.5.5,0,1,1,1-.27l3.95,13.92a.5.5,0,0,1-.34.62Z" style="fill:#263238"/><path d="M343.94,247.89h0a.51.51,0,0,1-.48-.52l.95-23.73a.48.48,0,0,1,.52-.48.5.5,0,0,1,.48.52l-.95,23.73A.5.5,0,0,1,343.94,247.89Z" style="fill:#263238"/><path d="M332.87,200.08c-2.37-.79-9.49-4-10-4.59s-.31-12.34-.31-12.34H304.23s0,9.18-.15,10.13-6.49,6.8-6.49,6.8-1.72.55-4.13,1.35l19.63,11.78.32,10.92h3l.31-11.07,16.72-12.81C333.23,200.19,333,200.14,332.87,200.08Z" style="fill:#fff"/><path d="M316.42,224.63h-3a.51.51,0,0,1-.5-.49l-.31-10.64-19.4-11.64a.5.5,0,0,1,.1-.9c2.06-.69,3.62-1.19,4-1.32,2.93-2.72,6.06-5.86,6.26-6.46s.14-6.35.14-10a.51.51,0,0,1,.5-.5h18.36a.51.51,0,0,1,.5.51c-.08,5.37,0,11.43.25,12.09a72.78,72.78,0,0,0,9.69,4.36h0l.55.16a.48.48,0,0,1,.36.38.5.5,0,0,1-.18.5l-16.53,12.66-.31,10.83A.51.51,0,0,1,316.42,224.63Zm-2.52-1h2l.3-10.59a.51.51,0,0,1,.2-.38l15.95-12.22c-2.45-.88-9.29-3.86-9.88-4.65-.46-.61-.49-6.82-.42-12.14H304.73c0,2.06,0,8.85-.16,9.71s-4.7,5.29-6.64,7.09a.45.45,0,0,1-.19.11s-1.24.39-3.09,1l18.7,11.23a.46.46,0,0,1,.24.41Z" style="fill:#263238"/><path d="M314.36,210.52l15.47-11.63c-2.95-1.24-6.59-2.95-6.93-3.4-.47-.63-.31-12.34-.31-12.34H304.23s0,9.18-.15,10.13-6.49,6.8-6.49,6.8Z" style="fill:#c9c9c9"/><path d="M314.36,211a.48.48,0,0,1-.26-.07l-16.77-10.44a.51.51,0,0,1-.24-.38.52.52,0,0,1,.16-.41c3-2.74,6.13-5.93,6.34-6.54s.14-6.35.14-10a.51.51,0,0,1,.5-.5h18.36a.51.51,0,0,1,.5.51c-.08,5.37,0,11.43.25,12.09a55,55,0,0,0,6.68,3.18.5.5,0,0,1,.11.86l-15.47,11.63A.47.47,0,0,1,314.36,211Zm-15.95-11,15.92,9.92L328.83,199c-1.76-.76-5.85-2.58-6.33-3.22s-.49-6.82-.42-12.14H304.73c0,2.06,0,8.85-.16,9.71S300.53,198,298.41,200Z" style="fill:#263238"/><polygon points="311.67 190.43 304.08 193.28 303.64 185.16 311.67 190.43" style="fill:#263238"/><path d="M304.08,193.78a.54.54,0,0,1-.28-.08.51.51,0,0,1-.22-.39l-.44-8.12a.51.51,0,0,1,.25-.46.51.51,0,0,1,.53,0l8,5.26a.5.5,0,0,1-.09.89l-7.6,2.85Zm.11-7.66.35,6.45,6-2.26Z" style="fill:#263238"/><path d="M283,204.83s2.69,4.43,4.43,21-4.9,38.13-6,41.13-1.58,4.75-1.58,4.75l-.16,5.7s13.29-22.94,15.35-40.51-4.27-34.8-4.27-34.8Z" style="fill:#263238"/><path d="M279.71,278l-.13,0a.53.53,0,0,1-.37-.5l.16-5.69a.5.5,0,0,1,0-.12c0-.07.49-1.8,1.59-4.79,1.59-4.31,7.64-25.12,6-40.91-1.7-16.22-4.34-20.79-4.36-20.83a.47.47,0,0,1,0-.43.5.5,0,0,1,.3-.3l7.75-2.69a.5.5,0,0,1,.64.3c.06.17,6.34,17.56,4.29,35s-15.27,40.47-15.41,40.7A.5.5,0,0,1,279.71,278Zm.66-6.12-.1,3.59c3.11-5.72,12.6-24.08,14.29-38.53,1.83-15.66-3.11-31.25-4.08-34.11l-6.74,2.33c.74,1.61,2.79,7.09,4.22,20.71,1.68,16-4.44,37-6,41.36C280.94,269.83,280.46,271.5,280.37,271.83Z" style="fill:#263238"/><path d="M308,147.24s-9.49,3.32-10.76,5.86,1,20.4,3,26.26,9.33,10.44,11.39,11.07,3.8,1.27,6.17-.31,8.38-7.76,9.65-10.92,2.22-25.16,1.42-27.37-12.81-5.22-16-5.22A15.77,15.77,0,0,0,308,147.24Z" style="fill:#c9c9c9"/><path d="M314.85,191.61a10.37,10.37,0,0,1-3.09-.63l-.24-.07c-2.08-.64-9.57-5.29-11.71-11.39-2.09-5.93-4.34-23.93-3-26.65s10-5.75,11-6.1a16.17,16.17,0,0,1,5.08-.66c3,0,15.49,2.89,16.44,5.55.81,2.25,0,24.24-1.43,27.73-1.31,3.29-7.48,9.57-9.83,11.14A5.78,5.78,0,0,1,314.85,191.61Zm-1.91-44.5a15.82,15.82,0,0,0-4.74.6h0c-2.59.91-9.52,3.68-10.48,5.61-1.13,2.26.94,19.91,3,25.87,2,5.68,9.16,10.18,11.07,10.76l.24.08c1.91.59,3.42,1.06,5.5-.33s8.23-7.6,9.47-10.69,2.12-25,1.41-27C327.82,150.25,316.45,147.11,312.94,147.11Zm-4.91.13h0Z" style="fill:#263238"/><path d="M312.94,146.61a15.77,15.77,0,0,0-4.91.63s-9.49,3.32-10.76,5.86c-.69,1.38-.34,7.35.45,13.43h.19s3.48-3.48,3.48-4.74-1.27-3.64-1.27-5.86,4-4.11,5.85-4.11,5.38,1.9,7.91,1.74,4.12-1.58,7-1.9,5.53,3.17,5.06,5.7-1.9,4.11-1,5.85a50,50,0,0,1,2.06,4.59,3,3,0,0,0,1.58-.16,1.48,1.48,0,0,0,.26-.37c.39-6.84.5-14.22.05-15.45C328.12,149.61,316.1,146.61,312.94,146.61Z" style="fill:#263238"/><path d="M327.62,168.35a4.06,4.06,0,0,1-.68,0,.49.49,0,0,1-.39-.31s-1.11-2.84-2-4.53c-.73-1.33-.27-2.59.22-3.92a14.82,14.82,0,0,0,.68-2.27,4.59,4.59,0,0,0-1.35-3.69,3.85,3.85,0,0,0-3.17-1.41,13.15,13.15,0,0,0-3.44,1,11.5,11.5,0,0,1-3.54.94,14.39,14.39,0,0,1-4.87-1,12,12,0,0,0-3.08-.75c-1.67,0-5.35,1.75-5.35,3.61a12.34,12.34,0,0,0,.74,3.56,8.78,8.78,0,0,1,.53,2.3c0,1.4-3,4.49-3.63,5.1a.5.5,0,0,1-.39.14h-.18a.5.5,0,0,1-.46-.43c-.25-1.93-1.45-11.63-.4-13.73,1.31-2.63,10-5.75,11-6.1a15.84,15.84,0,0,1,5.07-.66c3,0,15.49,2.89,16.44,5.55.5,1.37.36,9.09,0,15.65a.44.44,0,0,1-.07.22,1.46,1.46,0,0,1-.42.54A2.42,2.42,0,0,1,327.62,168.35Zm-.25-1a2.21,2.21,0,0,0,.93-.09l.07-.12c.42-7.3.45-14.08.07-15.13-.62-1.75-12-4.89-15.5-4.89a15.82,15.82,0,0,0-4.74.6c-2.59.91-9.52,3.68-10.48,5.61-.54,1.09-.38,6.08.39,12.29,1.42-1.5,2.78-3.24,2.78-3.81a8.64,8.64,0,0,0-.48-2,13.19,13.19,0,0,1-.79-3.86c0-2.52,4.21-4.61,6.35-4.61a12.64,12.64,0,0,1,3.39.8,13.73,13.73,0,0,0,4.49.94,10.27,10.27,0,0,0,3.25-.87,14.28,14.28,0,0,1,3.69-1,4.86,4.86,0,0,1,4,1.73,5.59,5.59,0,0,1,1.6,4.56,14.25,14.25,0,0,1-.72,2.42c-.46,1.26-.79,2.16-.28,3.1A46.51,46.51,0,0,1,327.37,167.34Zm1.49-.06h0Z" style="fill:#263238"/><path d="M298.38,169.23s-2.53-3.32-3.8.64,5.22,7.59,5.22,7.59Z" style="fill:#c9c9c9"/><path d="M299.8,178a.53.53,0,0,1-.24-.06c-.28-.16-6.83-3.89-5.45-8.19.43-1.35,1.08-2.11,1.93-2.26,1.39-.24,2.6,1.3,2.74,1.48a.43.43,0,0,1,.09.22l1.43,8.22a.51.51,0,0,1-.21.5A.48.48,0,0,1,299.8,178Zm-3.47-9.53h-.12c-.56.1-.94.91-1.15,1.58-.85,2.66,2.39,5.27,4.06,6.41l-1.21-7A2.67,2.67,0,0,0,296.33,168.43Z" style="fill:#263238"/><path d="M328.6,169.07s3-3.48,3.64.8-4.12,6.17-4.12,6.17Z" style="fill:#c9c9c9"/><path d="M328.12,176.54a.53.53,0,0,1-.29-.1.51.51,0,0,1-.21-.44l.48-7a.5.5,0,0,1,.12-.29c.16-.19,1.64-1.85,3-1.45.79.23,1.3,1.07,1.51,2.49.68,4.61-4.37,6.69-4.42,6.71A.58.58,0,0,1,328.12,176.54Zm1-7.26-.4,5.92c1.23-.69,3.49-2.39,3.06-5.26-.14-1-.43-1.57-.8-1.68C330.4,168.1,329.52,168.82,329.08,169.28Z" style="fill:#263238"/><path d="M314.55,178.8a12.57,12.57,0,0,1-4.92-1.42c-.82-.61-.4-2.46-.18-3.22a.5.5,0,1,1,1,.27,4,4,0,0,0-.18,2.16c.59.44,3.9,1.42,4.6,1.19,1.41-.47,2.89-1.35,3-2.12a2.15,2.15,0,0,0-.49-1.65.49.49,0,0,1,0-.7.5.5,0,0,1,.71,0,3.13,3.13,0,0,1,.77,2.47c-.21,1.67-2.85,2.68-3.66,2.94A1.78,1.78,0,0,1,314.55,178.8Z" style="fill:#263238"/><path d="M313.6,181.32a11.3,11.3,0,0,1-5-1.21.5.5,0,0,1,.5-.87,9.16,9.16,0,0,0,10-.9.49.49,0,0,1,.7.07.5.5,0,0,1-.07.7A9.52,9.52,0,0,1,313.6,181.32Z" style="fill:#263238"/><path d="M303,167l-.16,0a.51.51,0,0,1-.32-.63s1.33-3.93,7.27-2.06a.49.49,0,0,1,.33.62.51.51,0,0,1-.63.33c-4.95-1.56-6,1.3-6,1.42A.49.49,0,0,1,303,167Z" style="fill:#263238"/><path d="M323.54,165.94a.49.49,0,0,1-.38-.18c-2.69-3.11-6.17-.95-6.32-.85a.5.5,0,1,1-.54-.84c.05,0,4.36-2.73,7.61,1a.49.49,0,0,1-.05.7A.45.45,0,0,1,323.54,165.94Z" style="fill:#263238"/><path d="M308.35,169.07c0,.88-.39,1.59-.87,1.59s-.87-.71-.87-1.59.39-1.58.87-1.58S308.35,168.2,308.35,169.07Z" style="fill:#263238"/><path d="M320.29,169.07c0,.88-.39,1.59-.87,1.59s-.87-.71-.87-1.59.39-1.58.87-1.58S320.29,168.2,320.29,169.07Z" style="fill:#263238"/><path d="M258.2,235.36s-13.61,21.2-14.4,22.94,3,6.81,3,6.81,13.6,19.14,16.77,22,10.28,9.17,10.91,9.8,4.43,3.33,5.38,3.49,2.53-1.59,2.53-1.59,1.9.32,2.53-.63a15.45,15.45,0,0,0,1.27-3.32,1.75,1.75,0,0,0,1.9-1.27c.31-1.42.63-1.74,0-3a28.29,28.29,0,0,0-2.06-3.17s-2.37-4.43-3.48-5.22-6.17,1.11-7.12.79-.95-.47-1.9-1.42a18,18,0,0,1-2.85-3.17c-.63-1.1-5.06-11.7-6.64-14.23a50.31,50.31,0,0,1-3.32-7.44l9.49-12.5Z" style="fill:#c9c9c9"/><path d="M280,300.89h-.2c-1.14-.19-5-3-5.65-3.62-.41-.4-3.7-3.35-6.61-6l-4.29-3.83c-3.17-2.85-16.29-21.29-16.84-22.07s-3.93-5.39-3.06-7.3,13.88-22.14,14.44-23a.49.49,0,0,1,.71-.13l12,8.86a.49.49,0,0,1,.19.33.48.48,0,0,1-.09.37l-9.33,12.29a47.49,47.49,0,0,0,3.18,7.08c1,1.66,3.24,6.64,4.85,10.28.86,1.93,1.6,3.6,1.81,4a13,13,0,0,0,2.18,2.48l.59.58.46.47a2.27,2.27,0,0,0,1.24.83,11.33,11.33,0,0,0,2.48-.42c2.38-.54,4-.85,4.77-.31,1.17.84,3.38,4.93,3.63,5.4a24.76,24.76,0,0,1,2.06,3.17,3,3,0,0,1,.22,2.64c-.05.2-.11.43-.17.7a2.12,2.12,0,0,1-2,1.66,14,14,0,0,1-1.23,3.1c-.65,1-2.13.94-2.76.88C282.11,299.83,281,300.89,280,300.89Zm-21.66-64.81c-4.77,7.44-13.47,21.11-14.08,22.43-.46,1,1.45,4.29,3,6.3.14.2,13.61,19.14,16.7,21.91l4.28,3.84c3.06,2.74,6.23,5.57,6.65,6,.63.62,4.35,3.21,5.11,3.34.41.08,1.4-.68,2.08-1.42a.49.49,0,0,1,.45-.16c.41.07,1.67.13,2-.42a14.66,14.66,0,0,0,1.2-3.17.48.48,0,0,1,.53-.37,1.23,1.23,0,0,0,1.36-.88c.06-.28.13-.52.18-.74a2,2,0,0,0-.14-1.93,28.82,28.82,0,0,0-2-3.09c-.94-1.73-2.63-4.59-3.37-5.11-.47-.33-2.66.17-4,.47a7.64,7.64,0,0,1-3,.39,3.25,3.25,0,0,1-1.65-1.09l-.44-.46-.58-.56a13.21,13.21,0,0,1-2.35-2.71c-.24-.42-.92-1.95-1.85-4.07-1.6-3.61-3.79-8.55-4.78-10.15a48.76,48.76,0,0,1-3.37-7.53.49.49,0,0,1,.07-.47l9.18-12.1Z" style="fill:#263238"/><path d="M285.72,204.83s-5.53-1-8.7.95-20.41,31.16-20.41,31.16l17.57,12.66,12.49-19.14" style="fill:#407BFF"/><path d="M274.17,250.1a.52.52,0,0,1-.29-.09l-17.56-12.66a.5.5,0,0,1-.14-.66c.71-1.2,17.35-29.4,20.59-31.34s8.8-1,9-1a.5.5,0,1,1-.17,1c-.05,0-5.39-.89-8.36.89-2.47,1.48-15,22.21-20,30.6L274,248.89l12.22-18.7A.49.49,0,0,1,287,230a.5.5,0,0,1,.14.69l-12.5,19.14a.45.45,0,0,1-.32.22Z" style="fill:#263238"/><path d="M302.35,447.72l-3.33-.4s-4.69-5.86-7.23-5.86a7.68,7.68,0,0,0-6.65,3.52c-1.36,2.34-1.95,3.32-1.95,3.32s-3.52,6.45-4.3,7.82-4.5,4.89-5.86,7.43.39,3.52,1,3.91,26.59,0,26.59,0h3.51a9.69,9.69,0,0,0,.79-5.67C304.5,458.08,302.35,447.72,302.35,447.72Z" style="fill:#fff"/><path d="M282.2,468.13c-5.38,0-8.21-.08-8.47-.26l-.09-.05c-.64-.42-2.58-1.68-1.06-4.51a31.83,31.83,0,0,1,3.85-5,22.72,22.72,0,0,0,2-2.48c.77-1.35,4.26-7.74,4.29-7.81s.6-1,2-3.33a8.22,8.22,0,0,1,7.08-3.77c2.54,0,6.61,4.8,7.49,5.89l3.12.37a.5.5,0,0,1,.44.39c.08.43,2.16,10.43,2.54,14.13s-.79,5.89-.85,6a.48.48,0,0,1-.42.25h-3.52Q288.85,468.14,282.2,468.13Zm-8-1.13c1.31.24,16.41.11,26.36,0h3.22a10.21,10.21,0,0,0,.59-5.12c-.34-3.26-2.08-11.83-2.46-13.67l-3-.35a.48.48,0,0,1-.33-.18c-1.26-1.58-4.95-5.68-6.84-5.68a7.17,7.17,0,0,0-6.21,3.27c-1.37,2.35-2,3.33-2,3.33s-3.52,6.45-4.3,7.81a21.63,21.63,0,0,1-2.14,2.64,29.92,29.92,0,0,0-3.71,4.78c-1.09,2,0,2.75.71,3.19Z" style="fill:#263238"/><path d="M272.53,465.11a2.58,2.58,0,0,0,1.47,2.35c.59.39,26.59,0,26.59,0h3.52a7.31,7.31,0,0,0,.71-2.35Z" style="fill:#fff"/><path d="M282.2,468.13c-5.38,0-8.21-.08-8.47-.26l-.09-.05a3,3,0,0,1-1.61-2.74.5.5,0,0,1,.5-.47h32.29a.52.52,0,0,1,.5.58,7.73,7.73,0,0,1-.78,2.52.52.52,0,0,1-.43.25h-3.52Q288.85,468.14,282.2,468.13Zm-8-1.13c1.31.24,16.41.11,26.36,0h3.21a6.71,6.71,0,0,0,.43-1.35H273.05a2.27,2.27,0,0,0,1.14,1.37Z" style="fill:#263238"/><path d="M298.63,467.57h-.05a.49.49,0,0,1-.44-.55l1-8.6a.5.5,0,0,1,1,.11l-1,8.6A.51.51,0,0,1,298.63,467.57Z" style="fill:#263238"/><path d="M287.24,458a5.68,5.68,0,0,1-.81-.05c-1.49-.17-3.29-.87-3.71-2s.73-3.45,2.22-6c.41-.69.77-1.29.92-1.64a20,20,0,0,0,.74-4.72.5.5,0,0,1,0-.12c.1-.32.22-.63.33-.94a.51.51,0,0,1,.21-.25,8.82,8.82,0,0,1,4.63-1.31,5.24,5.24,0,0,1,2.9,1.31.48.48,0,0,1,.18.53c-.2.72-.45,1.62-.64,2.32,0,.09-2.85,9.68-4.17,11.67A3.26,3.26,0,0,1,287.24,458Zm.35-14.25a21,21,0,0,1-.81,5,19.59,19.59,0,0,1-1,1.76c-.86,1.47-2.48,4.2-2.14,5.1.19.52,1.35,1.18,2.88,1.36,1.28.15,2.31-.11,2.68-.68,1.12-1.67,3.63-9.94,4-11.39l.56-2a3.81,3.81,0,0,0-2-.91,7.89,7.89,0,0,0-4,1.07Z" style="fill:#263238"/><path d="M347.5,448.5s-4.11-6.26-7-4.89-5.28,5.08-5.28,5.08L326,451.82l.19,15.05h35a16.5,16.5,0,0,0-.19-5.28c-.59-2.73-3.91-4.88-7-6.45S347.89,449.47,347.5,448.5Z" style="fill:#fff"/><path d="M361.18,467.37h-35a.51.51,0,0,1-.5-.49l-.19-15.05a.48.48,0,0,1,.34-.48l9-3.08c.49-.73,2.67-3.84,5.39-5.11,3.23-1.51,7.22,4.39,7.67,5.06a.36.36,0,0,1,0,.09c.32.78,3.17,4.86,6.21,6.39,4.41,2.2,6.8,4.42,7.31,6.79a17.24,17.24,0,0,1,.2,5.46A.51.51,0,0,1,361.18,467.37Zm-34.49-1h34.05a16.06,16.06,0,0,0-.24-4.67c-.44-2.05-2.66-4.05-6.77-6.11a18.39,18.39,0,0,1-6.67-6.86c-1.11-1.66-4.32-5.64-6.39-4.67-2.76,1.29-5,4.86-5.06,4.9a.53.53,0,0,1-.26.21l-8.85,3Z" style="fill:#263238"/><path d="M326.19,466.87h35a15.94,15.94,0,0,0,.12-2.54H326.16Z" style="fill:#fff"/><path d="M361.18,467.37h-35a.51.51,0,0,1-.5-.49l0-2.54a.5.5,0,0,1,.5-.51H361.3a.51.51,0,0,1,.5.49,18.11,18.11,0,0,1-.12,2.63A.51.51,0,0,1,361.18,467.37Zm-34.49-1h34.05c0-.35.07-.89.07-1.54H326.67Z" style="fill:#263238"/><path d="M340.46,443.61a11.07,11.07,0,0,0-3.08,2.34l.15.59a41.94,41.94,0,0,1,4.3,5.28c1,1.76,3.32,5.28,6.06,6.65s4.69-1.37,3.91-2.94a45.39,45.39,0,0,0-2.54-4.1l-.92-1.55a8.75,8.75,0,0,1-.84-1.38S343.39,442.24,340.46,443.61Z" style="fill:#fff"/><path d="M349.36,459.34a3.72,3.72,0,0,1-1.69-.43c-3.25-1.62-5.8-6-6.28-6.85a41.11,41.11,0,0,0-4.22-5.17.53.53,0,0,1-.12-.22l-.16-.59a.5.5,0,0,1,.13-.47,11.12,11.12,0,0,1,3.23-2.45h0c3.23-1.51,7.22,4.39,7.67,5.06a.36.36,0,0,1,0,.09,8.08,8.08,0,0,0,.79,1.28c.55.92.94,1.59.94,1.59a44.13,44.13,0,0,1,2.56,4.13,2.79,2.79,0,0,1-.7,3.11A3,3,0,0,1,349.36,459.34Zm-11.38-13a39.52,39.52,0,0,1,4.29,5.29c.45.81,2.86,4.95,5.84,6.44a2.21,2.21,0,0,0,2.73-.31,1.78,1.78,0,0,0,.51-1.95,43.63,43.63,0,0,0-2.5-4.05l-.94-1.58a8.51,8.51,0,0,1-.85-1.4c-1.11-1.66-4.32-5.64-6.39-4.67a10,10,0,0,0-2.74,2Z" style="fill:#263238"/></g></svg>