<svg xmlns="http://www.w3.org/2000/svg" viewBox="0 0 750 500"><g id="freepik--character-1--inject-62"><path d="M155.77,180.7a40.29,40.29,0,0,1-5.36,7.44c-2.77,2.77-12.8,5.53-13.67,9.17s1,9.34,1,10.38-11.76,4.67-10.2,12.45,17.12,15.57,17.12,15.57,27.16-38.23,28.37-41.17,2.77-6.92-1.73-10.9S157.33,179.49,155.77,180.7Z" style="fill:#263238"></path><path d="M144.7,236.21a.43.43,0,0,1-.22-.06c-.65-.32-15.81-8-17.39-15.91-1.23-6.14,5.12-9.72,8.54-11.65a13.12,13.12,0,0,0,1.64-1c0-.29-.16-.89-.3-1.53-.51-2.28-1.37-6.1-.71-8.86.57-2.41,4.44-4.3,8.19-6.13,2.34-1.15,4.56-2.23,5.61-3.27a40.27,40.27,0,0,0,5.27-7.33.64.64,0,0,1,.13-.15c1.77-1.37,11.61-1.11,16.21,3,4.82,4.27,3,8.59,1.86,11.46s-27.31,39.7-28.42,41.27A.52.52,0,0,1,144.7,236.21ZM156.15,181a39.53,39.53,0,0,1-5.39,7.45c-1.16,1.17-3.45,2.28-5.87,3.47-3.37,1.64-7.2,3.51-7.66,5.46-.6,2.54.22,6.22.71,8.42a10.77,10.77,0,0,1,.34,1.85c0,.55-.63.91-2.16,1.77-3.19,1.8-9.14,5.15-8.05,10.58,1.35,6.79,14.1,13.77,16.47,15,9.45-13.3,27.13-38.45,28.07-40.71,1.13-2.76,2.69-6.54-1.6-10.33S157.73,180.05,156.15,181Z" style="fill:#263238"></path><path d="M140.9,223.94s-7.1,15.4-13,24.39-7.44,12.46-7.44,15.57,1,10.21,1.22,17.3-2.08,10.9,2.07,15.22,9.34,5.71,15.57,4.67,12.8-7.44,14.36-10.55,10.37-47.22,10.89-53.8-5.88-12.8-10.89-16.08S140.9,223.94,140.9,223.94Z" style="fill:#263238"></path><path d="M135.53,301.92a16.06,16.06,0,0,1-12.12-5.15c-3.08-3.21-2.81-6.24-2.47-10.08a45,45,0,0,0,.26-5.48c-.1-4-.48-8-.78-11.26-.23-2.51-.44-4.67-.44-6.05,0-3.33,1.76-7,7.52-15.84s12.87-24.17,12.94-24.32a.59.59,0,0,1,.13-.18c.33-.28,8.13-6.77,13.4-3.32,5.71,3.74,11.63,10,11.12,16.54-.48,6.13-9.27,50.63-11,54-1.55,3.1-8.15,9.73-14.72,10.82A23.18,23.18,0,0,1,135.53,301.92Zm5.77-77.66c-.64,1.37-7.38,15.81-13,24.35S121,260.8,121,263.9c0,1.33.2,3.48.44,6,.3,3.25.68,7.31.78,11.33a48.72,48.72,0,0,1-.26,5.59c-.35,3.86-.57,6.41,2.19,9.29,3.92,4.09,8.87,5.57,15.13,4.53,6-1,12.46-7.23,14-10.28s10.28-46.53,10.84-53.61c.48-6.06-5.2-12.05-10.67-15.63C149,218.21,142.14,223.58,141.3,224.26Z" style="fill:#263238"></path><path d="M180.51,149.39s15.74,2.6,20.23,8.48-2.42,9.69-2.59,11.59,4.67,18.68,4.15,22.14-4.84,5.19-5,8.13-.17,3.8.18,4.67a11.64,11.64,0,0,1,.34,2.94s-14.18-5.54-15.91-6.23-4.84-3.28-11.07-6.57-8.65-5.88-8.65-5.88,7.44-33.56,11.59-37S180.51,149.39,180.51,149.39Z" style="fill:#263238"></path><path d="M197.8,207.84a.57.57,0,0,1-.18,0l-15.92-6.23a22.49,22.49,0,0,1-3.22-1.9c-1.84-1.2-4.36-2.84-7.89-4.7-6.23-3.29-8.68-5.87-8.79-6a.52.52,0,0,1-.12-.45c.31-1.38,7.53-33.76,11.76-37.29,4-3.35,6.72-2.54,7.2-2.35,1.2.2,16,2.8,20.5,8.66,3.48,4.55.5,8.06-1.27,10.16a5.34,5.34,0,0,0-1.22,1.77,60.87,60.87,0,0,0,1.56,7.62c1.36,5.81,2.91,12.4,2.59,14.55-.29,1.91-1.64,3.33-2.82,4.58s-2.12,2.24-2.2,3.51c-.17,2.86-.17,3.68.14,4.45a11.44,11.44,0,0,1,.38,3.13.51.51,0,0,1-.21.41A.52.52,0,0,1,197.8,207.84ZM162.72,188.5a37.75,37.75,0,0,0,8.33,5.6c3.57,1.88,6.12,3.53,8,4.74a22.23,22.23,0,0,0,3,1.81l15.21,5.95a7.53,7.53,0,0,0-.29-2c-.38-1-.38-1.84-.21-4.88.1-1.63,1.31-2.91,2.47-4.14s2.32-2.44,2.56-4c.29-2-1.3-8.73-2.58-14.17-1.06-4.53-1.65-7.12-1.58-7.94a5.18,5.18,0,0,1,1.45-2.33c1.79-2.11,4.24-5,1.25-8.91-4.33-5.65-19.77-8.26-19.93-8.28l-.12,0c-.05,0-2.42-1-6.22,2.18C170.81,154.75,164.83,179,162.72,188.5Z" style="fill:#263238"></path><path d="M200.57,203.88s6.05,2.42,6.92,4.84S210.08,222,210.08,222s4.67,15.4,6.75,23.87,1.9,11.94.86,13.67-4.32,2.76-4.32,2.76-6.23-1.73-7.61-1.9-4.84-9.68-4.84-9.68L203,211.32Z" style="fill:#fff"></path><path d="M213.37,262.84h-.13c-.07,0-6.21-1.73-7.54-1.89s-3.92-6.35-5.25-10a.35.35,0,0,1,0-.2l2.07-39.35-2.4-7.35a.49.49,0,0,1,.14-.51.48.48,0,0,1,.53-.1c.64.25,6.29,2.57,7.2,5.14s2.55,13,2.62,13.4c0,.09,4.68,15.44,6.74,23.83,1.87,7.66,2.11,11.86.8,14-1.12,1.88-4.46,2.95-4.6,3A.39.39,0,0,1,213.37,262.84Zm-12-12.16c1.55,4.24,3.67,9,4.43,9.27,1.27.16,6.53,1.6,7.51,1.87.61-.21,3.09-1.14,3.91-2.5,1.13-1.88.83-6.11-.93-13.29-2-8.36-6.69-23.69-6.73-23.84s-1.75-10.95-2.59-13.3c-.54-1.51-3.67-3.21-5.63-4.11l2.08,6.38a.55.55,0,0,1,0,.18Z" style="fill:#263238"></path><path d="M189,444.21s3.84,7.86,5.12,9.14,12.06,7.49,13,7.85,2.56,1.1,2.38,2.19,0,2.75-.73,3.29-34.17.37-34.17.37,1.28-18.64.36-20.28S189,444.21,189,444.21Z" style="fill:#fff"></path><path d="M187.28,467.59c-4.2,0-8.59,0-12.75,0a.5.5,0,0,1-.36-.16A.52.52,0,0,1,174,467c.61-9,1-19,.43-20a.78.78,0,0,1,0-.77c.85-1.54,10.41-2.28,14.48-2.53a.49.49,0,0,1,.48.28c1.06,2.17,4,8,5,9,1.19,1.19,11.92,7.39,12.81,7.75s2.94,1.18,2.68,2.74a9.57,9.57,0,0,0-.09,1c-.07,1-.13,2.09-.83,2.61C208.48,467.47,198.56,467.59,187.28,467.59Zm-12.21-1c12.84.07,31.78,0,33.38-.31a3.56,3.56,0,0,0,.39-1.83c0-.38,0-.76.1-1.1s-.25-.92-2.06-1.64c-.86-.35-11.76-6.59-13.15-8-1.19-1.2-4.28-7.38-5.06-9-5.85.37-12.35,1.19-13.27,1.94C176.19,448.83,175.34,462.58,175.07,466.55Z" style="fill:#263238"></path><path d="M208.71,466.68a2.47,2.47,0,0,0,.6-1.78c-10.22,0-34.22-.3-34.22-.3l-.43.51c-.07,1.19-.12,1.94-.12,1.94S208,467.23,208.71,466.68Z" style="fill:#fff"></path><path d="M187.28,467.59c-4.2,0-8.59,0-12.75,0a.5.5,0,0,1-.36-.16A.52.52,0,0,1,174,467s.05-.74.12-1.93a.56.56,0,0,1,.12-.3l.43-.5a.4.4,0,0,1,.39-.17c.24,0,24.11.27,34.21.29a.48.48,0,0,1,.36.16.45.45,0,0,1,.13.38,2.83,2.83,0,0,1-.79,2.14h0C208.48,467.47,198.56,467.59,187.28,467.59Zm21.43-.91Zm-33.64-.13c12.84.07,31.78,0,33.38-.31a1.64,1.64,0,0,0,.3-.84c-9.83,0-31-.26-33.43-.29l-.17.2C175.12,465.82,175.09,466.25,175.07,466.55Z" style="fill:#263238"></path><path d="M157.91,446.59s-1.28,4-1.83,6.39-2.19,6.4-3.1,9.87-.19,3.47,2.19,4.38,18.64,0,19.37-.18.55.55.55-4-.19-16.26-.19-16.26a28.17,28.17,0,0,0-9.13-2.56A11.3,11.3,0,0,0,157.91,446.59Z" style="fill:#fff"></path><path d="M161,468.14a24.58,24.58,0,0,1-6-.44l-.45-.17c-2.24-.84-3-1.31-2-4.81.47-1.77,1.13-3.71,1.72-5.43s1.12-3.27,1.39-4.42c.54-2.37,1.78-6.27,1.83-6.44a.54.54,0,0,1,.15-.22,11.65,11.65,0,0,1,8.23-2.5,28.47,28.47,0,0,1,9.32,2.61.49.49,0,0,1,.27.44c0,.12.19,11.75.19,16.27,0,.94,0,1.65,0,2.2,0,1.82,0,2.2-.77,2.28l-.17,0C174.13,467.67,166.63,468.14,161,468.14Zm-2.63-21.26c-.23.73-1.29,4.13-1.77,6.21-.28,1.2-.83,2.82-1.41,4.53s-1.24,3.62-1.7,5.35c-.74,2.81-.49,2.9,1.43,3.62l.46.17c2.22.86,18.26,0,19.07-.2l.18,0c0-.25,0-.71,0-1.29s0-1.27,0-2.21c0-4.1-.15-14.06-.18-15.94a27.59,27.59,0,0,0-8.68-2.38A11,11,0,0,0,158.34,446.88Z" style="fill:#263238"></path><path d="M174.54,467.05c.63-.16.58.36.55-2.45l-22.38-.6c-.44,2.33.38,2.43,2.46,3.23C157.54,468.15,173.81,467.23,174.54,467.05Z" style="fill:#fff"></path><path d="M161,468.14a24.58,24.58,0,0,1-6-.44l-.45-.17c-1.75-.66-2.8-1.06-2.32-3.62a.45.45,0,0,1,.5-.41l22.39.61a.48.48,0,0,1,.48.49v.62c0,1.83,0,2.21-.77,2.29l-.17,0C174.13,467.67,166.63,468.14,161,468.14Zm-7.84-3.63c-.19,1.35.2,1.49,1.76,2.08l.46.17c2.22.86,18.24,0,19.07-.2l.18,0c0-.25,0-.71,0-1.3v-.14Zm21.41,2.54h0Z" style="fill:#263238"></path><path d="M206.51,290.73s.55,31.06-1.46,45.5-6.94,33.43-6.94,33.43,0,11.33-1.1,21.75-9.32,40.19-9.5,41.84a34.62,34.62,0,0,0-.18,3.83c0,.73,1.28,1.65,1.46,2.2s.18,4.93.18,4.93a47.64,47.64,0,0,1-7.49,2.92,52.61,52.61,0,0,1-7.86.55l-.18-17.9,1.46-62.86,2.2-70.16Z" style="fill:#407BFF"></path><path d="M173.62,448.18a.51.51,0,0,1-.5-.49l-.18-17.91,1.46-62.87,2.2-70.17a.49.49,0,0,1,.39-.47l29.42-6a.49.49,0,0,1,.41.1.47.47,0,0,1,.19.38c0,.31.53,31.27-1.46,45.57-1.94,13.89-6.63,32.23-6.94,33.44,0,.93-.06,11.81-1.1,21.73-.79,7.53-5.35,25.36-7.8,34.94-.92,3.62-1.66,6.48-1.7,6.9a33.93,33.93,0,0,0-.18,3.78c0,.24.43.73.72,1.05a3,3,0,0,1,.71,1,39.32,39.32,0,0,1,.21,5.09.5.5,0,0,1-.28.45,48,48,0,0,1-7.6,3A52.8,52.8,0,0,1,173.62,448.18Zm4-151-2.18,69.77-1.46,62.85.18,17.39a47.59,47.59,0,0,0,7.26-.54,44.31,44.31,0,0,0,7.09-2.75,38.2,38.2,0,0,0-.16-4.46,3,3,0,0,0-.5-.63,2.93,2.93,0,0,1-1-1.72,36,36,0,0,1,.18-3.89c.06-.47.6-2.62,1.73-7,2.44-9.55,7-27.34,7.77-34.8,1.08-10.27,1.1-21.57,1.1-21.69a.49.49,0,0,1,0-.12c0-.19,4.95-19.14,6.94-33.38,1.82-13.13,1.52-40.42,1.46-44.82Z" style="fill:#263238"></path><path d="M143.48,293.47s-2.56,14.25-1.28,24.85,10.05,41.48,11.51,46.59,1.09,6.4.91,6.94-4.93,13.89-4.38,24.31a209.26,209.26,0,0,0,4.38,29.6c1.1,4.56,3.11,12.6,3.11,12.6a2.58,2.58,0,0,0-1.46,1.83c-.19,1.28,1.64,6.4,1.64,6.4s5.85-2.56,7.86-2.38,7.85,3.47,7.85,3.47.92.73,1.28-.91-.55-32.34.37-42.94.91-30.7,1.09-34.72,2-46,2-46l.74-23.75s-16.27-10.6-23.57-11S143.48,293.47,143.48,293.47Z" style="fill:#407BFF"></path><path d="M174.08,448.34a1.29,1.29,0,0,1-.77-.27c-1.53-.85-6-3.22-7.59-3.36s-6,1.64-7.61,2.33a.47.47,0,0,1-.4,0,.48.48,0,0,1-.27-.29c-.19-.53-1.86-5.27-1.67-6.63a2.91,2.91,0,0,1,1.38-2c-.41-1.63-2.06-8.25-3-12.24a206.73,206.73,0,0,1-4.4-29.69c-.5-9.4,3.22-21,4.37-24.38l0-.1c.14-.44.52-1.58-.92-6.65-1.71-6-10.27-36.23-11.53-46.67s1.26-24.86,1.28-25a.55.55,0,0,1,.12-.24c.2-.23,5-5.67,12.46-5.28s23.15,10.6,23.82,11a.52.52,0,0,1,.23.43l-.74,23.76s-1.82,42-2,46.05c-.05,1.14-.09,3.64-.13,6.81-.13,8.1-.31,20.35-1,27.92-.57,6.55-.43,20.76-.33,31.13.07,7.36.1,11.23-.05,11.88s-.49,1.24-1,1.4A.89.89,0,0,1,174.08,448.34Zm-8.52-4.64h.25c2.09.19,7.82,3.4,8.06,3.54a.37.37,0,0,0,.23.09c.06,0,.21-.2.31-.68s.08-6,0-11.65c-.1-10.39-.24-24.63.33-31.22.65-7.54.83-19.77,1-27.86,0-3.17.08-5.68.13-6.84.19-4,2-46,2-46l.72-23.47c-2-1.29-16.47-10.4-23.09-10.73-6.44-.31-10.89,4.13-11.57,4.85-.26,1.51-2.43,14.72-1.25,24.56,1.25,10.36,9.8,40.56,11.5,46.51,1.53,5.37,1.09,6.68.91,7.24l0,.12c-1.14,3.3-4.81,14.78-4.32,24a207.4,207.4,0,0,0,4.37,29.51c1.09,4.57,3.1,12.6,3.1,12.6a.49.49,0,0,1-.29.58,2.13,2.13,0,0,0-1.16,1.44c-.11.77.77,3.69,1.45,5.66C159.66,445.3,163.64,443.7,165.56,443.7Z" style="fill:#263238"></path><path d="M167.88,193.16S143,205.78,143.66,206.82s8.82,53.62,8.82,53.62-9.68,33.21-10.37,36.67-.87,4.33-.87,4.33l7.09-7.27,14.19,12.46,14,8.3,3.28-10,3.64,10.89s7.09-1.21,15.22-11.07,9.68-13.66,9.68-13.66-4.15-17.3-4.84-23.35-1.73-15.22-1.73-15.22.69-22.84.87-32.7,1.55-12.1-1-14.7-15.05-7.78-17.47-8.82a50.77,50.77,0,0,0-10.21-2.94C171.86,193.16,167.88,193.16,167.88,193.16Z" style="fill:#fff"></path><path d="M183.45,316.29A.5.5,0,0,1,183,316l-3.15-9.46L177,315.08a.48.48,0,0,1-.3.32.5.5,0,0,1-.43,0l-14-8.31-13.9-12.19-6.76,6.93a.52.52,0,0,1-.59.09.51.51,0,0,1-.26-.54l.87-4.33c.67-3.37,9.65-34.18,10.35-36.6-3.2-20.75-8.17-52-8.75-53.36a.53.53,0,0,1-.05-.44c.41-1.55,17.26-10.24,24.48-13.9a.46.46,0,0,1,.23-.05c.16,0,4,0,6.09.17a50.81,50.81,0,0,1,10.37,3l.62.27c3.59,1.52,14.52,6.17,17,8.66,2,2,1.84,3.72,1.53,8-.13,1.83-.29,4.11-.34,7.1-.17,9.75-.86,32.45-.87,32.7h0s1,9.12,1.73,15.15,4.79,23.12,4.83,23.29a.55.55,0,0,1,0,.31c-.07.16-1.68,4-9.77,13.79s-15.22,11.2-15.52,11.25Zm-3.64-11.89a.5.5,0,0,1,.48.34l3.49,10.46c1.61-.44,7.71-2.56,14.5-10.8,7.12-8.63,9.18-12.62,9.55-13.39-.43-1.8-4.16-17.55-4.82-23.25-.69-6.05-1.73-15.22-1.73-15.22,0-.3.7-23,.87-32.76,0-3,.21-5.31.35-7.15.29-4,.4-5.55-1.24-7.19s-7.18-4.4-16.69-8.44l-.63-.27a50.23,50.23,0,0,0-10.05-2.9c-1.83-.16-5.22-.17-5.89-.17-8.69,4.4-22.52,11.72-23.82,13.17,1.07,3.81,7,41.65,8.8,53.54a.5.5,0,0,1,0,.21c-.09.33-9.68,33.23-10.36,36.63l-.54,2.67,5.92-6.06a.5.5,0,0,1,.68,0l14.19,12.46,13.4,7.93,3.09-9.44a.51.51,0,0,1,.47-.34Zm-35.73-97.86a.57.57,0,0,1,.06.15A.47.47,0,0,0,144.08,206.54Z" style="fill:#263238"></path><polygon points="153.52 222.56 157.5 278.95 201.44 274.45 199.53 219.1 153.52 222.56" style="fill:#407BFF"></polygon><path d="M157.5,279.45a.47.47,0,0,1-.32-.12A.5.5,0,0,1,157,279l-4-56.38a.5.5,0,0,1,.46-.54l46-3.46a.52.52,0,0,1,.38.13.48.48,0,0,1,.16.35l1.9,55.35a.5.5,0,0,1-.44.52l-43.94,4.5ZM154.06,223,158,278.4l43-4.4-1.87-54.36Z" style="fill:#263238"></path><path d="M152.83,201.46a25.74,25.74,0,0,1,4.5,12.8c.69,8-.18,38.92-.18,38.92l-4.49-1.39s.17-32.52-.52-36.84a83.65,83.65,0,0,0-3.46-11.76Z" style="fill:#263238"></path><path d="M157.15,253.68l-.14,0-4.5-1.38a.5.5,0,0,1-.35-.48c0-.32.16-32.53-.52-36.76s-3.4-11.59-3.43-11.67a.5.5,0,0,1,.28-.63l4.15-1.73a.48.48,0,0,1,.58.15,26,26,0,0,1,4.61,13.06c.68,7.9-.17,38.67-.18,39a.49.49,0,0,1-.2.39A.54.54,0,0,1,157.15,253.68Zm-4-2.26,3.51,1.08c.12-4.52.78-31,.16-38.2a26.13,26.13,0,0,0-4.17-12.23l-3.35,1.4a77.47,77.47,0,0,1,3.32,11.4C153.29,219,153.18,247.63,153.16,251.42Z" style="fill:#263238"></path><path d="M170.13,189.52s-4.33,2.94-4.67,4.33-3.12,19.54-.87,19.54,12.8-5.19,12.8-5.19,9.34,4.67,11.25,4-1-7.78-2.77-12.11-3.12-7.09-4.85-8.64S173.59,186.93,170.13,189.52Z" style="fill:#fff"></path><path d="M164.59,213.89a.94.94,0,0,1-.75-.39c-1.8-2.3.94-19,1.13-19.77.37-1.49,4.1-4.09,4.87-4.61,3.86-2.88,9.88.46,11.52,1.93,1.87,1.69,3.29,4.63,5,8.84l.23.56c2.1,5.25,3.78,9.73,3,11.48a1.32,1.32,0,0,1-.75.72c-1.93.7-9.41-2.89-11.42-3.89C175.59,209.64,166.78,213.89,164.59,213.89ZM173.52,189a5.06,5.06,0,0,0-3.09.94l0,0c-1.73,1.17-4.26,3.2-4.47,4-.59,2.37-2.62,17.94-1.29,18.94,1.69,0,9.62-3.73,12.52-5.15a.51.51,0,0,1,.45,0c3.79,1.9,9.67,4.38,10.84,4,.06,0,.12-.05.18-.19.68-1.5-1.63-7.26-3-10.7l-.23-.56c-1.58-4-3-6.91-4.71-8.46A12.44,12.44,0,0,0,173.52,189Zm-3.39.54h0Z" style="fill:#263238"></path><path d="M182.93,194s-1.91,10.72-3.46,15.57-2.42,7.61-3.46,5.19-6.4-15.92-6.92-19.2,1-11.59,1-11.59Z" style="fill:#fff"></path><path d="M176.77,216.17c-.71,0-1.08-.87-1.22-1.2-.85-2-6.41-15.89-7-19.31s1-11.42,1-11.76a.49.49,0,0,1,.31-.38.53.53,0,0,1,.49.07l12.8,10a.51.51,0,0,1,.18.48c-.08.44-1.93,10.81-3.48,15.63l-.06.19c-1.47,4.6-2,6.19-3.06,6.24Zm-6.3-31.27c-.37,2.16-1.29,8-.89,10.6.51,3.18,5.72,16.35,6.89,19.08a1.87,1.87,0,0,0,.32.56c.5-.41,1.37-3.12,2.14-5.52l.06-.18c1.39-4.31,3.07-13.45,3.39-15.21Z" style="fill:#263238"></path><polygon points="175.31 190.32 180.95 202.54 182.93 194.02 175.31 190.32" style="fill:#263238"></polygon><path d="M181,203.05a.53.53,0,0,1-.46-.3l-5.64-12.22a.5.5,0,0,1,.1-.57.49.49,0,0,1,.57-.09l7.63,3.7a.49.49,0,0,1,.26.56l-2,8.53a.5.5,0,0,1-.44.38Zm-4.61-11.67,4.45,9.63,1.56-6.71Z" style="fill:#263238"></path><path d="M180.51,156.66s-3.64-1.39-4.67-.35-7.1,22.66-7.27,24.91,3.81,6.75,9.17,10.72,7.44,3.64,8.47,2.95,6.4-8.48,7.79-12.29,1.21-19.71,1.21-19.71Z" style="fill:#fff"></path><path d="M184.71,195.81c-1.76,0-4.13-1.14-7.27-3.46-4.82-3.58-9.58-8.41-9.37-11.17.15-1.94,6.18-24,7.41-25.22s4.55,0,5.2.23h0l14.7,6.23a.48.48,0,0,1,.31.45c0,.65.16,16.05-1.24,19.9s-6.83,11.76-8,12.52A3.13,3.13,0,0,1,184.71,195.81Zm-7.6-39.38a1.34,1.34,0,0,0-.92.24c-.86,1-6.92,22-7.12,24.59-.15,2,3.7,6.38,9,10.28,3.86,2.87,6.51,3.85,7.9,2.93.86-.58,6.2-8.22,7.59-12,1.23-3.38,1.2-16.93,1.18-19.21l-14.39-6.1A10.56,10.56,0,0,0,177.11,156.43Z" style="fill:#263238"></path><path d="M179.47,171.69a.49.49,0,0,1-.34-.14.48.48,0,0,1,0-.7c2.28-2.43,5.6-1.34,7-.43a.5.5,0,1,1-.54.84c-.14-.08-3.49-2.16-5.77.27A.52.52,0,0,1,179.47,171.69Z" style="fill:#263238"></path><path d="M190.36,171.69a.47.47,0,0,1-.31-.12.49.49,0,0,1-.07-.7,3.36,3.36,0,0,1,4.45-.63.5.5,0,0,1-.52.86,2.34,2.34,0,0,0-3.16.41A.53.53,0,0,1,190.36,171.69Z" style="fill:#263238"></path><path d="M189.48,183.48a10.13,10.13,0,0,1-2.54-.4.49.49,0,0,1-.34-.62.5.5,0,0,1,.62-.33,8.41,8.41,0,0,0,2.73.33.83.83,0,0,0,.64-.39,2.59,2.59,0,0,0-.17-2c-.71-1.78-1.06-6.85-1.07-7.07a.5.5,0,0,1,.46-.53.51.51,0,0,1,.54.46c0,.06.34,5.13,1,6.77a3.38,3.38,0,0,1,.11,2.92,1.84,1.84,0,0,1-1.37.88A6.08,6.08,0,0,1,189.48,183.48Z" style="fill:#263238"></path><path d="M186.56,186.74h-.05c-.16,0-4.09-.4-5.58-3.2a.5.5,0,1,1,.88-.47c1.24,2.33,4.76,2.68,4.8,2.68a.5.5,0,0,1,.45.54A.51.51,0,0,1,186.56,186.74Z" style="fill:#263238"></path><ellipse cx="182.06" cy="174.65" rx="1.04" ry="1.38" style="fill:#263238"></ellipse><ellipse cx="191.75" cy="174.65" rx="1.04" ry="1.38" style="fill:#263238"></ellipse><path d="M181.72,152.33s-1.73,6.92-5.88,19.72-10.73,24-15.92,28.37-9.34,1.21-7.95-5.53,4.67-15.4,4.67-19.72,1.73-19.55,5-23,10.9-4,16.26-4S181.72,152.33,181.72,152.33Z" style="fill:#263238"></path><path d="M155.45,202.92a3.86,3.86,0,0,1-2-.54c-2-1.18-2.7-4-2-7.6.55-2.7,1.41-5.7,2.24-8.61,1.24-4.36,2.42-8.47,2.42-11,0-3.68,1.59-19.61,5.15-23.35,2.64-2.78,8.08-4.14,16.62-4.14,1.93,0,3.27.52,4,1.54a3.91,3.91,0,0,1,.31,3.26c-.12.46-1.9,7.43-5.89,19.73s-10.59,24-16.07,28.59A7.79,7.79,0,0,1,155.45,202.92Zm22.46-54.24c-8.14,0-13.49,1.29-15.9,3.83-3.14,3.31-4.87,18.29-4.87,22.66,0,2.67-1.2,6.85-2.46,11.28-.83,2.88-1.68,5.87-2.22,8.54-.64,3.09-.07,5.59,1.49,6.53s3.49.31,5.65-1.48c5.35-4.46,11.83-16,15.76-28.14,4.1-12.63,5.85-19.62,5.87-19.69s0,0,0-.05a2.91,2.91,0,0,0-.19-2.37C180.55,149.05,179.49,148.68,177.91,148.68Z" style="fill:#263238"></path><path d="M165.11,255.94s23.35,3.81,24.74,4.33,12.1,1.9,13.49,2.59,1.9,1.39,1.9,2.6v1.21s1,2.59.87,3.63-2.25,1.9-2.08,2.42,1.73,1.91,0,2.42-3.11-.34-2.59-.69-.18-1.55-.18-1.55-4.15,0-6.57.17-8-4.33-8-4.33l-22.83.52Z" style="fill:#fff"></path><path d="M203,275.8a2.28,2.28,0,0,1-2.06-.86.68.68,0,0,1,.26-.9,2.09,2.09,0,0,0-.21-.64c-1,0-4.23,0-6.22.17-2.4.17-7.15-3.5-8.17-4.32l-22.65.51a.56.56,0,0,1-.37-.15.52.52,0,0,1-.14-.39l1.21-13.32a.51.51,0,0,1,.19-.35.46.46,0,0,1,.39-.1c2.4.39,23.44,3.83,24.83,4.35.57.21,3.13.63,5.61,1,4.29.7,7.15,1.19,7.93,1.58,1.57.78,2.18,1.63,2.18,3v1.11c.21.54,1,2.75.86,3.81a3.48,3.48,0,0,1-1.48,1.82,7.27,7.27,0,0,0-.56.47l.16.24a2.15,2.15,0,0,1,.55,1.83,1.49,1.49,0,0,1-1.1.88A4,4,0,0,1,203,275.8Zm-1-1.19a2.7,2.7,0,0,0,1.92.06c.29-.09.42-.2.44-.26s-.27-.7-.44-.94a3,3,0,0,1-.33-.59c-.2-.57.33-1,.95-1.47.44-.35,1-.82,1.1-1.19a9.94,9.94,0,0,0-.83-3.37.37.37,0,0,1,0-.18v-1.21c0-.89-.25-1.46-1.63-2.15a62.32,62.32,0,0,0-7.64-1.48c-2.76-.46-5.14-.85-5.8-1.09-1-.36-14.74-2.69-24.11-4.22l-1.11,12.23,22.27-.51a.56.56,0,0,1,.33.12c1.5,1.21,5.78,4.35,7.6,4.21,2.42-.17,6.57-.17,6.61-.17a.5.5,0,0,1,.44.25C201.83,272.88,202.4,274,202,274.61Z" style="fill:#263238"></path><path d="M148.68,203.19s-6.23,1.73-7.09,5.53-4.67,33-4.67,44.8-.35,12.8,2.94,14.36,18.51,1.21,18.51,1.21l1.21-14.36-6.92-2.94s-.18-30.09-.52-36.84A27.16,27.16,0,0,0,148.68,203.19Z" style="fill:#fff"></path><path d="M154.77,269.62c-4.75,0-12.76-.17-15.13-1.29-3.26-1.54-3.26-2.71-3.23-11.76v-3c0-12.17,3.87-41.33,4.68-44.91.92-4.05,7.18-5.83,7.45-5.9a.49.49,0,0,1,.55.21,27.41,27.41,0,0,1,3.54,12c.32,6.3.5,33.24.52,36.54l6.61,2.81a.5.5,0,0,1,.3.51l-1.21,14.35a.5.5,0,0,1-.48.46C158.19,269.59,156.77,269.62,154.77,269.62Zm-6.32-65.84c-1.31.44-5.7,2.09-6.38,5.05-.78,3.47-4.65,32.9-4.65,44.69v3c0,8.86,0,9.58,2.66,10.86,2.84,1.34,15.3,1.21,17.83,1.17l1.15-13.55-6.59-2.8a.49.49,0,0,1-.3-.45c0-.3-.18-30.17-.52-36.82A27.31,27.31,0,0,0,148.45,203.78Z" style="fill:#263238"></path><polygon points="157.15 253.18 155.08 270.13 165.63 271.34 166.5 255.25 157.15 253.18" style="fill:#fff"></polygon><path d="M165.63,271.84h-.06L155,270.62a.48.48,0,0,1-.33-.18.51.51,0,0,1-.11-.37l2.08-16.95a.5.5,0,0,1,.6-.43l9.34,2.07a.5.5,0,0,1,.39.52l-.86,16.09a.5.5,0,0,1-.18.35A.47.47,0,0,1,165.63,271.84Zm-10-2.15,9.52,1.09.81-15.13-8.39-1.87Z" style="fill:#263238"></path><path d="M143,257.14a.53.53,0,0,1-.31-.11.5.5,0,0,1-.08-.7c3.75-4.84,9.81-5,10.07-5a.54.54,0,0,1,.51.49.5.5,0,0,1-.49.51c-.06,0-5.84.2-9.3,4.65A.51.51,0,0,1,143,257.14Z" style="fill:#263238"></path><path d="M143.32,253.67a.47.47,0,0,1-.17,0,.51.51,0,0,1-.31-.64c.06-.16,1.43-3.85,7.66-2.75a.5.5,0,0,1,.4.58.51.51,0,0,1-.58.41c-5.35-.95-6.49,2-6.53,2.1A.51.51,0,0,1,143.32,253.67Z" style="fill:#263238"></path><path d="M203.51,246.09s-15.74,2.42-21.1,2.42-13-.35-13-.35a17.81,17.81,0,0,0-2.6-3.29c-1.21-1-2.94-1.55-4.84-3.11s-2.94-3.46-3.81-3.63-1.55-.52-1.21,1l.35,1.55.69,2.08s-4.32.17-4.84.34-.87,1.56-.35,2.25l.52.7s-.35,6.4.35,7.26S167,256.64,171,257.16s26.47,5.18,26.47,5.18,6.4,0,6.92-1S203.51,246.09,203.51,246.09Z" style="fill:#fff"></path><path d="M197.46,262.84h-.1c-.23,0-22.52-4.67-26.43-5.18-2.44-.32-16.68-2.8-17.63-4-.71-.89-.57-5.35-.46-7.42l-.41-.55a2.31,2.31,0,0,1-.23-2,1.4,1.4,0,0,1,.82-1,37.13,37.13,0,0,1,4.32-.34l-.49-1.45-.36-1.61a1.69,1.69,0,0,1,.17-1.55c.37-.37.89-.25,1.36-.14l.27.06c.63.12,1.17.74,1.92,1.6a17.4,17.4,0,0,0,2.1,2.13,18.59,18.59,0,0,0,2.8,1.81,12.07,12.07,0,0,1,2.06,1.31,16.93,16.93,0,0,1,2.55,3.18c1.38.06,7.95.34,12.69.34,5.26,0,20.87-2.4,21-2.42a.54.54,0,0,1,.39.1.48.48,0,0,1,.19.35c.33,3.36,1.35,14.41.81,15.49S200,262.84,197.46,262.84Zm-40.07-24.37a2.67,2.67,0,0,0,.08.59l.35,1.55.67,2a.49.49,0,0,1-.06.44.51.51,0,0,1-.39.22c-2.06.08-4.39.22-4.71.32a1.32,1.32,0,0,0-.23.57,1.27,1.27,0,0,0,.13.9l.52.69a.56.56,0,0,1,.1.33c-.16,2.95-.12,6.44.24,6.93.85.7,12.28,3,17,3.62,3.89.51,25,4.88,26.45,5.18,3.14,0,6.08-.35,6.43-.77.26-.74-.25-7.88-.88-14.41-2.81.42-15.8,2.35-20.65,2.35-5.31,0-12.92-.35-13-.35a.52.52,0,0,1-.4-.24,17.52,17.52,0,0,0-2.49-3.17,11.4,11.4,0,0,0-1.89-1.19,18.55,18.55,0,0,1-2.95-1.91,19.49,19.49,0,0,1-2.23-2.25c-.52-.6-1.06-1.22-1.36-1.28l-.29-.07Z" style="fill:#263238"></path><path d="M203.51,246.58a.43.43,0,0,1-.24-.06.49.49,0,0,1-.2-.67s2.83-5.06,9.63-1.84a.5.5,0,0,1,.24.67.51.51,0,0,1-.67.24c-6-2.82-8.22,1.23-8.32,1.4A.49.49,0,0,1,203.51,246.58Z" style="fill:#263238"></path><path d="M202.13,246.6s.69,4.5.86,8.31.35,8,.35,8,5.53.52,8.65-.34,4.49-.69,3.8-5-1.35-9.95-6-11.51S202.13,246.6,202.13,246.6Z" style="fill:#fff"></path><path d="M207,263.52c-2,0-3.57-.15-3.69-.16a.5.5,0,0,1-.45-.48s-.17-4.15-.35-7.95-.85-8.21-.86-8.25a.5.5,0,0,1,.2-.48c.13-.1,3.24-2.3,8.1-.68s5.58,6.95,6.25,11.26l.11.64c.66,4.14-.59,4.65-3.25,5.34l-.92.24A20.7,20.7,0,0,1,207,263.52Zm-3.16-1.12c1.35.1,5.54.33,8-.36.33-.1.65-.18.94-.25,2.41-.62,3.06-.79,2.51-4.21l-.1-.64c-.64-4.05-1.43-9.09-5.59-10.47a8.43,8.43,0,0,0-6.94.38c.16,1.11.68,4.83.82,8S203.77,261.23,203.82,262.4Z" style="fill:#263238"></path></g></svg>