<svg xmlns="http://www.w3.org/2000/svg" viewBox="0 0 500 500"><g id="freepik--Clouds--inject-4"><path d="M357.09,85a37.66,37.66,0,0,0-57.94-38.25A50.8,50.8,0,0,0,201.37,66.1c0,.63,0,1.24,0,1.86a33.07,33.07,0,0,0,4.51,64.57v.35H355.48A24,24,0,0,0,357.09,85Z" style="fill:none;stroke:#263238;stroke-linecap:round;stroke-linejoin:round"></path><path d="M129.52,134.32a15.63,15.63,0,0,0,.27-2.84,15.46,15.46,0,0,0-24-12.85,20.84,20.84,0,0,0-40.1,7.93c0,.26,0,.51,0,.76a13.56,13.56,0,0,0,1.85,26.48V154h61.33a9.83,9.83,0,0,0,.67-19.63Z" style="fill:none;stroke:#263238;stroke-linecap:round;stroke-linejoin:round"></path><path d="M408.67,31.89a9.93,9.93,0,0,0,.19-1.89,10.29,10.29,0,0,0-16-8.55,13.86,13.86,0,0,0-26.67,5.28c0,.17,0,.34,0,.51a9,9,0,0,0,1.23,17.61V45h40.8a6.54,6.54,0,0,0,.44-13.06Z" style="fill:none;stroke:#263238;stroke-linecap:round;stroke-linejoin:round"></path></g></svg>