<svg xmlns="http://www.w3.org/2000/svg" version="1.1" xmlns:xlink="http://www.w3.org/1999/xlink" xmlns:svgjs="http://svgjs.dev/svgjs" width="600" height="200" preserveAspectRatio="none" viewBox="0 0 600 200"><g mask="url(&quot;#SvgjsMask1407&quot;)" fill="none"><rect width="600" height="200" x="0" y="0" fill="url(&quot;#SvgjsLinearGradient1408&quot;)"></rect><path d="M630 200L0 200 L0 139.98Q15.22 125.2, 30 140.43Q49.25 109.68, 80 128.93Q99.48 98.41, 130 117.89Q156.36 114.25, 160 140.61Q179.99 110.6, 210 130.59Q229.56 100.15, 260 119.71Q297.03 106.74, 310 143.77Q319.42 123.19, 340 132.61Q349 111.61, 370 120.61Q407.15 107.76, 420 144.92Q428.02 122.94, 450 130.97Q458.44 109.41, 480 117.84Q517.13 104.97, 530 142.1Q548.11 110.21, 580 128.32Q599.5 97.82, 630 117.33z" fill="#182f5d"></path><path d="M610 200L0 200 L0 161.35Q8.62 139.97, 30 148.59Q39.81 128.4, 60 138.21Q87.28 135.5, 90 162.78Q107.92 130.7, 140 148.63Q149.32 127.95, 170 137.28Q207.81 125.09, 220 162.91Q229.74 142.65, 250 152.39Q269.75 122.14, 300 141.89Q325.92 137.81, 330 163.72Q349.1 132.82, 380 151.93Q399.28 121.21, 430 140.49Q466.93 127.42, 480 164.35Q499.86 134.2, 530 154.06Q548.85 122.91, 580 141.75Q601.44 133.19, 610 154.63z" fill="#25467d"></path><path d="M650 200L0 200 L0 159.32Q21.05 150.37, 30 171.41Q51.38 162.78, 60 184.16Q73.59 147.75, 110 161.34Q140.16 141.5, 160 171.65Q190.79 152.44, 210 183.23Q223.53 146.76, 260 160.3Q291.13 141.43, 310 172.56Q340.03 152.59, 360 182.63Q363.04 155.67, 390 158.71Q419.89 138.61, 440 168.5Q462.19 160.69, 470 182.89Q479.47 162.36, 500 171.83Q518.29 140.12, 550 158.41Q589.14 147.55, 600 186.69Q618.86 155.55, 650 174.4z" fill="#356cb1"></path><path d="M630 200L0 200 L0 182.8Q26.89 159.69, 50 186.59Q75.18 181.77, 80 206.95Q95.94 172.89, 130 188.84Q149.19 178.03, 160 197.23Q186.72 173.94, 210 200.66Q216.78 177.44, 240 184.23Q257.88 172.1, 270 189.98Q300.85 170.83, 320 201.68Q323.66 175.34, 350 179Q371.78 170.78, 380 192.56Q401.08 183.64, 410 204.73Q412.84 177.56, 440 180.4Q469.85 160.25, 490 190.11Q512.06 182.17, 520 204.23Q537.3 171.53, 570 188.83Q583.99 172.82, 600 186.81Q623.8 180.62, 630 204.42z" fill="white"></path></g><defs><mask id="SvgjsMask1407"><rect width="600" height="200" fill="#ffffff"></rect></mask><linearGradient x1="16.67%" y1="-50%" x2="83.33%" y2="150%" gradientUnits="userSpaceOnUse" id="SvgjsLinearGradient1408"><stop stop-color="#0e2a47" offset="0"></stop><stop stop-color="#00459e" offset="1"></stop></linearGradient></defs></svg>