<svg xmlns="http://www.w3.org/2000/svg" version="1.1" xmlns:xlink="http://www.w3.org/1999/xlink" xmlns:svgjs="http://svgjs.dev/svgjs" width="1440" height="560" preserveAspectRatio="none" viewBox="0 0 1440 560"><g mask="url(&quot;#SvgjsMask1178&quot;)" fill="none"><rect width="1440" height="560" x="0" y="0" fill="url(&quot;#SvgjsLinearGradient1179&quot;)"></rect><path d="M13.97 -3.58L78.92 33.92L78.92 108.92L13.97 146.42L-50.98 108.92L-50.98 33.92zM468.65 108.92L533.6 146.42L533.6 221.42L468.65 258.92L403.69 221.42L403.69 146.42zM533.6 221.42L598.55 258.92L598.55 333.92L533.6 371.42L468.65 333.92L468.65 258.92zM663.51 -3.58L728.46 33.92L728.46 108.92L663.51 146.42L598.55 108.92L598.55 33.92zM663.51 221.42L728.46 258.92L728.46 333.92L663.51 371.42L598.55 333.92L598.55 258.92zM793.41 -3.58L858.37 33.92L858.37 108.92L793.41 146.42L728.46 108.92L728.46 33.92zM858.37 558.92L923.32 596.42L923.32 671.42L858.37 708.92L793.41 671.42L793.41 596.42zM988.28 558.92L1053.23 596.42L1053.23 671.42L988.28 708.92L923.32 671.42L923.32 596.42zM1183.14 446.42L1248.09 483.92L1248.09 558.92L1183.14 596.42L1118.18 558.92L1118.18 483.92zM1378 333.92L1442.95 371.42L1442.95 446.42L1378 483.92L1313.05 446.42L1313.05 371.42zM1442.95 446.42L1507.91 483.92L1507.91 558.92L1442.95 596.42L1378 558.92L1378 483.92zM1507.91 558.92L1572.86 596.42L1572.86 671.42L1507.91 708.92L1442.95 671.42L1442.95 596.42z" stroke="#03305d" stroke-width="2"></path><path d="M6.47 -3.58 a7.5 7.5 0 1 0 15 0 a7.5 7.5 0 1 0 -15 0zM71.42 33.92 a7.5 7.5 0 1 0 15 0 a7.5 7.5 0 1 0 -15 0zM71.42 108.92 a7.5 7.5 0 1 0 15 0 a7.5 7.5 0 1 0 -15 0zM6.47 146.42 a7.5 7.5 0 1 0 15 0 a7.5 7.5 0 1 0 -15 0zM-58.48 108.92 a7.5 7.5 0 1 0 15 0 a7.5 7.5 0 1 0 -15 0zM-58.48 33.92 a7.5 7.5 0 1 0 15 0 a7.5 7.5 0 1 0 -15 0zM461.15 108.92 a7.5 7.5 0 1 0 15 0 a7.5 7.5 0 1 0 -15 0zM526.1 146.42 a7.5 7.5 0 1 0 15 0 a7.5 7.5 0 1 0 -15 0zM526.1 221.42 a7.5 7.5 0 1 0 15 0 a7.5 7.5 0 1 0 -15 0zM461.15 258.92 a7.5 7.5 0 1 0 15 0 a7.5 7.5 0 1 0 -15 0zM396.19 221.42 a7.5 7.5 0 1 0 15 0 a7.5 7.5 0 1 0 -15 0zM396.19 146.42 a7.5 7.5 0 1 0 15 0 a7.5 7.5 0 1 0 -15 0zM591.05 258.92 a7.5 7.5 0 1 0 15 0 a7.5 7.5 0 1 0 -15 0zM591.05 333.92 a7.5 7.5 0 1 0 15 0 a7.5 7.5 0 1 0 -15 0zM526.1 371.42 a7.5 7.5 0 1 0 15 0 a7.5 7.5 0 1 0 -15 0zM461.15 333.92 a7.5 7.5 0 1 0 15 0 a7.5 7.5 0 1 0 -15 0zM656.01 -3.58 a7.5 7.5 0 1 0 15 0 a7.5 7.5 0 1 0 -15 0zM720.96 33.92 a7.5 7.5 0 1 0 15 0 a7.5 7.5 0 1 0 -15 0zM720.96 108.92 a7.5 7.5 0 1 0 15 0 a7.5 7.5 0 1 0 -15 0zM656.01 146.42 a7.5 7.5 0 1 0 15 0 a7.5 7.5 0 1 0 -15 0zM591.05 108.92 a7.5 7.5 0 1 0 15 0 a7.5 7.5 0 1 0 -15 0zM591.05 33.92 a7.5 7.5 0 1 0 15 0 a7.5 7.5 0 1 0 -15 0zM656.01 221.42 a7.5 7.5 0 1 0 15 0 a7.5 7.5 0 1 0 -15 0zM720.96 258.92 a7.5 7.5 0 1 0 15 0 a7.5 7.5 0 1 0 -15 0zM720.96 333.92 a7.5 7.5 0 1 0 15 0 a7.5 7.5 0 1 0 -15 0zM656.01 371.42 a7.5 7.5 0 1 0 15 0 a7.5 7.5 0 1 0 -15 0zM785.91 -3.58 a7.5 7.5 0 1 0 15 0 a7.5 7.5 0 1 0 -15 0zM850.87 33.92 a7.5 7.5 0 1 0 15 0 a7.5 7.5 0 1 0 -15 0zM850.87 108.92 a7.5 7.5 0 1 0 15 0 a7.5 7.5 0 1 0 -15 0zM785.91 146.42 a7.5 7.5 0 1 0 15 0 a7.5 7.5 0 1 0 -15 0zM850.87 558.92 a7.5 7.5 0 1 0 15 0 a7.5 7.5 0 1 0 -15 0zM915.82 596.42 a7.5 7.5 0 1 0 15 0 a7.5 7.5 0 1 0 -15 0zM915.82 671.42 a7.5 7.5 0 1 0 15 0 a7.5 7.5 0 1 0 -15 0zM850.87 708.92 a7.5 7.5 0 1 0 15 0 a7.5 7.5 0 1 0 -15 0zM785.91 671.42 a7.5 7.5 0 1 0 15 0 a7.5 7.5 0 1 0 -15 0zM785.91 596.42 a7.5 7.5 0 1 0 15 0 a7.5 7.5 0 1 0 -15 0zM980.78 558.92 a7.5 7.5 0 1 0 15 0 a7.5 7.5 0 1 0 -15 0zM1045.73 596.42 a7.5 7.5 0 1 0 15 0 a7.5 7.5 0 1 0 -15 0zM1045.73 671.42 a7.5 7.5 0 1 0 15 0 a7.5 7.5 0 1 0 -15 0zM980.78 708.92 a7.5 7.5 0 1 0 15 0 a7.5 7.5 0 1 0 -15 0zM1175.64 446.42 a7.5 7.5 0 1 0 15 0 a7.5 7.5 0 1 0 -15 0zM1240.59 483.92 a7.5 7.5 0 1 0 15 0 a7.5 7.5 0 1 0 -15 0zM1240.59 558.92 a7.5 7.5 0 1 0 15 0 a7.5 7.5 0 1 0 -15 0zM1175.64 596.42 a7.5 7.5 0 1 0 15 0 a7.5 7.5 0 1 0 -15 0zM1110.68 558.92 a7.5 7.5 0 1 0 15 0 a7.5 7.5 0 1 0 -15 0zM1110.68 483.92 a7.5 7.5 0 1 0 15 0 a7.5 7.5 0 1 0 -15 0zM1370.5 333.92 a7.5 7.5 0 1 0 15 0 a7.5 7.5 0 1 0 -15 0zM1435.45 371.42 a7.5 7.5 0 1 0 15 0 a7.5 7.5 0 1 0 -15 0zM1435.45 446.42 a7.5 7.5 0 1 0 15 0 a7.5 7.5 0 1 0 -15 0zM1370.5 483.92 a7.5 7.5 0 1 0 15 0 a7.5 7.5 0 1 0 -15 0zM1305.55 446.42 a7.5 7.5 0 1 0 15 0 a7.5 7.5 0 1 0 -15 0zM1305.55 371.42 a7.5 7.5 0 1 0 15 0 a7.5 7.5 0 1 0 -15 0zM1500.41 483.92 a7.5 7.5 0 1 0 15 0 a7.5 7.5 0 1 0 -15 0zM1500.41 558.92 a7.5 7.5 0 1 0 15 0 a7.5 7.5 0 1 0 -15 0zM1435.45 596.42 a7.5 7.5 0 1 0 15 0 a7.5 7.5 0 1 0 -15 0zM1370.5 558.92 a7.5 7.5 0 1 0 15 0 a7.5 7.5 0 1 0 -15 0zM1565.36 596.42 a7.5 7.5 0 1 0 15 0 a7.5 7.5 0 1 0 -15 0zM1565.36 671.42 a7.5 7.5 0 1 0 15 0 a7.5 7.5 0 1 0 -15 0zM1500.41 708.92 a7.5 7.5 0 1 0 15 0 a7.5 7.5 0 1 0 -15 0zM1435.45 671.42 a7.5 7.5 0 1 0 15 0 a7.5 7.5 0 1 0 -15 0z" fill="#03305d"></path><path d="M37.26 131.7L80.56 156.7L80.56 206.7L37.26 231.7L-6.04 206.7L-6.04 156.7zM80.56 206.7L123.87 231.7L123.87 281.7L80.56 306.7L37.26 281.7L37.26 231.7zM37.26 281.7L80.56 306.7L80.56 356.7L37.26 381.7L-6.04 356.7L-6.04 306.7zM123.87 -18.3L167.17 6.7L167.17 56.7L123.87 81.7L80.56 56.7L80.56 6.7zM123.87 131.7L167.17 156.7L167.17 206.7L123.87 231.7L80.56 206.7L80.56 156.7zM167.17 206.7L210.47 231.7L210.47 281.7L167.17 306.7L123.87 281.7L123.87 231.7zM123.87 281.7L167.17 306.7L167.17 356.7L123.87 381.7L80.56 356.7L80.56 306.7zM167.17 356.7L210.47 381.7L210.47 431.7L167.17 456.7L123.87 431.7L123.87 381.7zM253.77 56.7L297.07 81.7L297.07 131.7L253.77 156.7L210.47 131.7L210.47 81.7zM253.77 206.7L297.07 231.7L297.07 281.7L253.77 306.7L210.47 281.7L210.47 231.7zM210.47 281.7L253.77 306.7L253.77 356.7L210.47 381.7L167.17 356.7L167.17 306.7zM210.47 431.7L253.77 456.7L253.77 506.7L210.47 531.7L167.17 506.7L167.17 456.7zM297.07 -18.3L340.38 6.7L340.38 56.7L297.07 81.7L253.77 56.7L253.77 6.7zM297.07 131.7L340.38 156.7L340.38 206.7L297.07 231.7L253.77 206.7L253.77 156.7zM340.38 506.7L383.68 531.7L383.68 581.7L340.38 606.7L297.07 581.7L297.07 531.7zM383.68 131.7L426.98 156.7L426.98 206.7L383.68 231.7L340.38 206.7L340.38 156.7zM383.68 431.7L426.98 456.7L426.98 506.7L383.68 531.7L340.38 506.7L340.38 456.7zM513.59 56.7L556.89 81.7L556.89 131.7L513.59 156.7L470.29 131.7L470.29 81.7zM513.59 206.7L556.89 231.7L556.89 281.7L513.59 306.7L470.29 281.7L470.29 231.7zM470.29 281.7L513.59 306.7L513.59 356.7L470.29 381.7L426.98 356.7L426.98 306.7zM513.59 356.7L556.89 381.7L556.89 431.7L513.59 456.7L470.29 431.7L470.29 381.7zM470.29 431.7L513.59 456.7L513.59 506.7L470.29 531.7L426.98 506.7L426.98 456.7zM513.59 506.7L556.89 531.7L556.89 581.7L513.59 606.7L470.29 581.7L470.29 531.7zM556.89 -18.3L600.19 6.7L600.19 56.7L556.89 81.7L513.59 56.7L513.59 6.7zM556.89 131.7L600.19 156.7L600.19 206.7L556.89 231.7L513.59 206.7L513.59 156.7zM600.19 206.7L643.5 231.7L643.5 281.7L600.19 306.7L556.89 281.7L556.89 231.7zM600.19 506.7L643.5 531.7L643.5 581.7L600.19 606.7L556.89 581.7L556.89 531.7zM686.8 56.7L730.1 81.7L730.1 131.7L686.8 156.7L643.5 131.7L643.5 81.7zM643.5 131.7L686.8 156.7L686.8 206.7L643.5 231.7L600.19 206.7L600.19 156.7zM686.8 206.7L730.1 231.7L730.1 281.7L686.8 306.7L643.5 281.7L643.5 231.7zM686.8 506.7L730.1 531.7L730.1 581.7L686.8 606.7L643.5 581.7L643.5 531.7zM730.1 131.7L773.4 156.7L773.4 206.7L730.1 231.7L686.8 206.7L686.8 156.7zM773.4 206.7L816.71 231.7L816.71 281.7L773.4 306.7L730.1 281.7L730.1 231.7zM730.1 281.7L773.4 306.7L773.4 356.7L730.1 381.7L686.8 356.7L686.8 306.7zM773.4 356.7L816.71 381.7L816.71 431.7L773.4 456.7L730.1 431.7L730.1 381.7zM816.71 -18.3L860.01 6.7L860.01 56.7L816.71 81.7L773.4 56.7L773.4 6.7zM816.71 281.7L860.01 306.7L860.01 356.7L816.71 381.7L773.4 356.7L773.4 306.7zM860.01 356.7L903.31 381.7L903.31 431.7L860.01 456.7L816.71 431.7L816.71 381.7zM860.01 506.7L903.31 531.7L903.31 581.7L860.01 606.7L816.71 581.7L816.71 531.7zM903.31 -18.3L946.61 6.7L946.61 56.7L903.31 81.7L860.01 56.7L860.01 6.7zM946.61 56.7L989.92 81.7L989.92 131.7L946.61 156.7L903.31 131.7L903.31 81.7zM903.31 131.7L946.61 156.7L946.61 206.7L903.31 231.7L860.01 206.7L860.01 156.7zM989.92 131.7L1033.22 156.7L1033.22 206.7L989.92 231.7L946.61 206.7L946.61 156.7zM1033.22 206.7L1076.52 231.7L1076.52 281.7L1033.22 306.7L989.92 281.7L989.92 231.7zM1033.22 356.7L1076.52 381.7L1076.52 431.7L1033.22 456.7L989.92 431.7L989.92 381.7zM989.92 431.7L1033.22 456.7L1033.22 506.7L989.92 531.7L946.61 506.7L946.61 456.7zM1033.22 506.7L1076.52 531.7L1076.52 581.7L1033.22 606.7L989.92 581.7L989.92 531.7zM1119.82 56.7L1163.13 81.7L1163.13 131.7L1119.82 156.7L1076.52 131.7L1076.52 81.7zM1119.82 206.7L1163.13 231.7L1163.13 281.7L1119.82 306.7L1076.52 281.7L1076.52 231.7zM1076.52 281.7L1119.82 306.7L1119.82 356.7L1076.52 381.7L1033.22 356.7L1033.22 306.7zM1119.82 356.7L1163.13 381.7L1163.13 431.7L1119.82 456.7L1076.52 431.7L1076.52 381.7zM1206.43 356.7L1249.73 381.7L1249.73 431.7L1206.43 456.7L1163.13 431.7L1163.13 381.7zM1163.13 431.7L1206.43 456.7L1206.43 506.7L1163.13 531.7L1119.82 506.7L1119.82 456.7zM1206.43 506.7L1249.73 531.7L1249.73 581.7L1206.43 606.7L1163.13 581.7L1163.13 531.7zM1249.73 -18.3L1293.03 6.7L1293.03 56.7L1249.73 81.7L1206.43 56.7L1206.43 6.7zM1249.73 431.7L1293.03 456.7L1293.03 506.7L1249.73 531.7L1206.43 506.7L1206.43 456.7zM1293.03 506.7L1336.34 531.7L1336.34 581.7L1293.03 606.7L1249.73 581.7L1249.73 531.7zM1336.34 -18.3L1379.64 6.7L1379.64 56.7L1336.34 81.7L1293.03 56.7L1293.03 6.7zM1379.64 56.7L1422.94 81.7L1422.94 131.7L1379.64 156.7L1336.34 131.7L1336.34 81.7zM1336.34 131.7L1379.64 156.7L1379.64 206.7L1336.34 231.7L1293.03 206.7L1293.03 156.7zM1379.64 206.7L1422.94 231.7L1422.94 281.7L1379.64 306.7L1336.34 281.7L1336.34 231.7zM1336.34 281.7L1379.64 306.7L1379.64 356.7L1336.34 381.7L1293.03 356.7L1293.03 306.7zM1379.64 506.7L1422.94 531.7L1422.94 581.7L1379.64 606.7L1336.34 581.7L1336.34 531.7zM1422.94 -18.3L1466.24 6.7L1466.24 56.7L1422.94 81.7L1379.64 56.7L1379.64 6.7zM1466.24 206.7L1509.55 231.7L1509.55 281.7L1466.24 306.7L1422.94 281.7L1422.94 231.7z" stroke="rgba(6, 80, 156, 0.93)" stroke-width="2"></path></g><defs><mask id="SvgjsMask1178"><rect width="1440" height="560" fill="#ffffff"></rect></mask><linearGradient x1="0%" y1="50%" x2="100%" y2="50%" gradientUnits="userSpaceOnUse" id="SvgjsLinearGradient1179"><stop stop-color="#0e2a47" offset="0"></stop><stop stop-color="rgba(216, 7, 7, 1)" offset="1"></stop></linearGradient></defs></svg>